<svg width="1447" height="369" viewBox="0 0 1447 369" fill="none" xmlns="http://www.w3.org/2000/svg">
<path d="M325.942 255.777V109.408C325.942 96.457 319.046 84.5203 307.834 78.0305L181.079 4.84567C169.866 -1.61522 156.075 -1.61522 144.863 4.84567L18.1079 78.0305C6.89548 84.4914 0 96.457 0 109.408V255.777C0 268.728 6.89548 280.665 18.1079 287.155L144.863 360.34C156.075 366.8 169.866 366.8 181.079 360.34L307.834 287.155C319.046 280.694 325.942 268.728 325.942 255.777Z" fill="#7B62D5"/>
<path d="M435.052 254.474L480.076 111.726H515.075L560.098 254.474H535.501L494.649 126.386H500.009L459.65 254.474H435.052ZM460.143 223.531V201.222H535.095V223.531H460.143Z" fill="black"/>
<path d="M615.176 257.427C604.137 257.427 594.721 254.964 586.927 250.039C579.134 245.113 573.165 238.392 569.022 229.874C564.879 221.356 562.793 211.708 562.735 200.93C562.793 189.95 564.966 180.215 569.225 171.726C573.484 163.237 579.539 156.544 587.42 151.706C595.3 146.867 604.629 144.434 615.465 144.434C627.634 144.434 637.919 147.505 646.35 153.618C654.781 159.731 660.286 168.075 662.864 178.65L639.078 185.082C637.224 179.346 634.152 174.855 629.865 171.639C625.577 168.423 620.68 166.829 615.204 166.829C609.004 166.829 603.876 168.307 599.849 171.233C595.822 174.188 592.837 178.216 590.925 183.373C589.013 188.53 588.057 194.382 588.057 200.93C588.057 211.1 590.346 219.328 594.895 225.615C599.443 231.902 606.223 235.031 615.204 235.031C621.549 235.031 626.562 233.582 630.212 230.656C633.892 227.759 636.644 223.558 638.498 218.053L662.893 223.5C659.59 234.394 653.796 242.796 645.539 248.619C637.282 254.472 627.17 257.398 615.204 257.398L615.176 257.427Z" fill="black"/>
<path d="M709.828 257.43C702.093 257.43 695.545 255.952 690.185 253.026C684.825 250.1 680.769 246.16 678.045 241.292C675.322 236.425 673.931 231.007 673.931 225.126C673.931 219.968 674.8 215.333 676.51 211.19C678.219 207.076 680.885 203.483 684.448 200.47C688.012 197.457 692.648 194.994 698.326 193.082C702.614 191.691 707.655 190.445 713.45 189.315C719.244 188.185 725.502 187.142 732.282 186.186C739.062 185.23 746.16 184.187 753.548 183.057L745.03 187.925C745.088 180.537 743.437 175.061 740.076 171.555C736.715 168.05 731.007 166.311 723.011 166.311C718.173 166.311 713.537 167.441 709.017 169.672C704.526 171.932 701.397 175.785 699.601 181.261L677.785 174.423C680.421 165.384 685.462 158.112 692.908 152.607C700.354 147.102 710.379 144.379 723.011 144.379C732.543 144.379 740.916 145.943 748.13 149.043C755.344 152.144 760.733 157.243 764.239 164.312C766.151 168.078 767.31 171.932 767.715 175.872C768.121 179.812 768.324 184.071 768.324 188.707V254.446H747.406V231.239L750.883 235.005C746.044 242.741 740.423 248.42 733.991 252.012C727.559 255.605 719.505 257.401 709.857 257.401L709.828 257.43ZM714.58 238.395C719.998 238.395 724.633 237.439 728.458 235.527C732.282 233.615 735.353 231.268 737.642 228.486C739.931 225.705 741.467 223.097 742.249 220.664C743.495 217.622 744.219 214.145 744.393 210.205C744.567 206.264 744.624 203.077 744.624 200.644L751.955 202.817C744.74 203.947 738.569 204.932 733.412 205.801C728.255 206.67 723.822 207.481 720.143 208.235C716.434 208.988 713.16 209.828 710.321 210.755C707.54 211.74 705.193 212.899 703.28 214.232C701.368 215.565 699.891 217.071 698.877 218.781C697.862 220.49 697.341 222.518 697.341 224.836C697.341 227.472 698.007 229.819 699.311 231.818C700.644 233.846 702.556 235.44 705.106 236.628C707.655 237.816 710.813 238.424 714.58 238.424V238.395Z" fill="black"/>
<path d="M833.976 257.428C824.125 257.428 815.521 254.936 808.191 249.982C800.86 245.027 795.182 238.277 791.155 229.759C787.127 221.241 785.099 211.622 785.099 200.902C785.099 190.182 787.127 180.389 791.184 171.9C795.24 163.411 801.005 156.69 808.48 151.764C815.955 146.839 824.734 144.376 834.845 144.376C844.957 144.376 853.561 146.839 860.486 151.764C867.381 156.69 872.626 163.411 876.189 171.929C879.753 180.447 881.549 190.095 881.549 200.873C881.549 211.651 879.753 221.125 876.189 229.672C872.626 238.219 867.295 244.998 860.225 249.953C853.156 254.907 844.406 257.399 833.947 257.399L833.976 257.428ZM837.655 236.017C844.058 236.017 849.244 234.539 853.185 231.613C857.125 228.687 859.993 224.573 861.819 219.271C863.644 213.969 864.542 207.855 864.542 200.931C864.542 194.006 863.644 187.806 861.819 182.533C859.993 177.289 857.183 173.175 853.33 170.249C849.505 167.294 844.551 165.845 838.467 165.845C832.064 165.845 826.762 167.41 822.619 170.568C818.447 173.697 815.376 177.927 813.405 183.258C811.435 188.589 810.421 194.47 810.421 200.96C810.421 207.45 811.406 213.447 813.347 218.749C815.289 224.08 818.302 228.281 822.329 231.381C826.356 234.481 831.484 236.046 837.684 236.046L837.655 236.017ZM864.513 254.472V179.317H861.529V111.695H885.605V254.443H864.484L864.513 254.472Z" fill="black"/>
<path d="M958.297 257.427C947.462 257.427 937.93 255.08 929.759 250.386C921.56 245.693 915.157 239.174 910.58 230.859C906.002 222.515 903.684 212.954 903.684 202.118C903.684 190.413 905.944 180.273 910.435 171.639C914.925 163.005 921.183 156.312 929.18 151.561C937.176 146.809 946.419 144.434 956.936 144.434C968.032 144.434 977.477 147.041 985.242 152.227C993.007 157.413 998.772 164.743 1002.54 174.188C1006.31 183.634 1007.72 194.788 1006.8 207.594H983.098V198.873C983.04 187.255 980.983 178.737 976.956 173.406C972.928 168.075 966.584 165.381 957.921 165.381C948.128 165.381 940.856 168.394 936.104 174.449C931.353 180.504 928.977 189.341 928.977 200.959C928.977 211.795 931.353 220.197 936.104 226.136C940.856 232.076 947.809 235.06 956.936 235.06C962.817 235.06 967.887 233.756 972.146 231.149C976.405 228.541 979.708 224.746 981.997 219.791L1005.58 226.919C1001.47 236.566 995.151 244.07 986.604 249.43C978.028 254.79 968.612 257.456 958.297 257.456V257.427ZM921.415 207.565V189.515H995.063V207.565H921.415Z" fill="black"/>
<path d="M1024.33 254.474V147.392H1045.45V180.594H1048.43V254.445H1024.33V254.474ZM1088.88 254.474V189.75C1088.88 182.275 1087.05 176.48 1083.43 172.308C1079.81 168.136 1074.83 166.05 1068.57 166.05C1062.31 166.05 1057.62 168.136 1053.94 172.308C1050.26 176.48 1048.43 181.898 1048.43 188.562L1037.71 181.435C1037.71 174.481 1039.42 168.252 1042.87 162.689C1046.32 157.127 1050.95 152.752 1056.81 149.565C1062.66 146.349 1069.21 144.755 1076.48 144.755C1084.47 144.755 1091.17 146.465 1096.56 149.854C1101.95 153.273 1105.97 157.88 1108.64 163.732C1111.3 169.585 1112.67 176.162 1112.67 183.521V254.503H1088.88V254.474ZM1153.11 254.474V189.431C1153.11 182.101 1151.29 176.364 1147.66 172.221C1144.04 168.107 1139.09 166.021 1132.89 166.021C1129.06 166.021 1125.62 166.89 1122.57 168.658C1119.53 170.396 1117.13 172.975 1115.33 176.393C1113.53 179.812 1112.67 183.839 1112.67 188.533L1102.06 182.275C1102 174.887 1103.65 168.339 1107.07 162.689C1110.46 157.04 1115.1 152.636 1120.89 149.449C1126.72 146.291 1133.18 144.697 1140.33 144.697C1152.15 144.697 1161.22 148.261 1167.54 155.359C1173.86 162.457 1177.01 171.787 1177.01 183.376V254.474H1153.11Z" fill="black"/>
<path d="M1199.93 131.135V109.231H1223.83V131.135H1199.93ZM1199.93 254.471V147.388H1223.83V254.471H1199.93Z" fill="black"/>
<path d="M1295.42 257.427C1284.38 257.427 1274.97 254.964 1267.18 250.039C1259.38 245.113 1253.41 238.392 1249.27 229.874C1245.13 221.356 1243.04 211.708 1242.98 200.93C1243.04 189.95 1245.21 180.215 1249.47 171.726C1253.73 163.237 1259.79 156.544 1267.67 151.706C1275.55 146.867 1284.88 144.434 1295.71 144.434C1307.88 144.434 1318.17 147.505 1326.6 153.618C1335.03 159.731 1340.53 168.075 1343.11 178.65L1319.33 185.082C1317.47 179.346 1314.4 174.855 1310.11 171.639C1305.82 168.423 1300.93 166.829 1295.45 166.829C1289.25 166.829 1284.12 168.307 1280.1 171.233C1276.07 174.188 1273.09 178.216 1271.17 183.373C1269.26 188.53 1268.3 194.382 1268.3 200.93C1268.3 211.1 1270.59 219.328 1275.14 225.615C1279.69 231.902 1286.47 235.031 1295.45 235.031C1301.8 235.031 1306.81 233.582 1310.46 230.656C1314.14 227.759 1316.89 223.558 1318.75 218.053L1343.14 223.5C1339.84 234.394 1334.04 242.796 1325.79 248.619C1317.53 254.472 1307.42 257.398 1295.45 257.398L1295.42 257.427Z" fill="black"/>
<path d="M1401.49 257.431C1388.28 257.431 1377.53 254.447 1369.27 248.508C1361.02 242.568 1356 234.195 1354.21 223.417L1378.6 219.651C1379.85 224.953 1382.63 229.096 1386.92 232.138C1391.21 235.18 1396.62 236.687 1403.17 236.687C1408.91 236.687 1413.37 235.557 1416.5 233.268C1419.63 230.979 1421.19 227.85 1421.19 223.91C1421.19 221.476 1420.61 219.506 1419.45 218C1418.3 216.522 1415.77 215.073 1411.86 213.683C1407.95 212.292 1401.98 210.554 1393.93 208.439C1384.95 206.063 1377.79 203.484 1372.52 200.761C1367.22 198.008 1363.42 194.764 1361.1 190.997C1358.79 187.231 1357.63 182.653 1357.63 177.322C1357.63 170.658 1359.36 164.835 1362.87 159.881C1366.38 154.926 1371.27 151.102 1377.53 148.436C1383.82 145.771 1391.21 144.409 1399.72 144.409C1408.24 144.409 1415.43 145.684 1421.89 148.263C1428.32 150.841 1433.53 154.521 1437.5 159.272C1441.47 164.024 1443.91 169.615 1444.83 176.018L1420.44 180.393C1419.83 175.844 1417.77 172.223 1414.24 169.586C1410.7 166.95 1405.98 165.443 1400.1 165.125C1394.48 164.806 1389.96 165.646 1386.51 167.645C1383.06 169.673 1381.36 172.484 1381.36 176.105C1381.36 178.162 1382.05 179.901 1383.44 181.349C1384.83 182.798 1387.61 184.247 1391.81 185.724C1396.02 187.173 1402.27 188.969 1410.59 191.084C1419.11 193.257 1425.94 195.749 1431.07 198.559C1436.2 201.369 1439.91 204.73 1442.17 208.612C1444.43 212.495 1445.59 217.246 1445.59 222.78C1445.59 233.558 1441.68 242.018 1433.85 248.16C1426.03 254.302 1415.2 257.373 1401.38 257.373L1401.49 257.431Z" fill="black"/>
<path d="M179.369 160.428V184.562C173.835 183.606 168.157 183.113 162.362 183.113C156.568 183.113 150.889 183.606 145.355 184.562V160.428H179.369Z" fill="#9E9EE8"/>
<path d="M131.652 160.428V187.923C123.54 190.53 115.862 194.123 108.822 198.614V160.428H131.652Z" fill="#9E9EE8"/>
<path d="M215.932 160.428V198.614C208.863 194.152 201.214 190.53 193.102 187.923V160.428H215.932Z" fill="#9E9EE8"/>
<path d="M222.075 144.583H103.258C100.666 144.583 98.5649 146.684 98.5649 149.277V155.737C98.5649 158.33 100.666 160.431 103.258 160.431H222.075C224.667 160.431 226.769 158.33 226.769 155.737V149.277C226.769 146.684 224.667 144.583 222.075 144.583Z" fill="white"/>
<path d="M232.447 116.911H92.8575C89.7853 116.911 87.2947 119.402 87.2947 122.474V130.094C87.2947 133.166 89.7853 135.656 92.8575 135.656H232.447C235.52 135.656 238.01 133.166 238.01 130.094V122.474C238.01 119.402 235.52 116.911 232.447 116.911Z" fill="white"/>
<path d="M179.398 252.734C179.427 255.806 176.906 258.297 173.835 258.297H150.947C147.876 258.297 145.384 255.806 145.384 252.734V192.529L145.355 184.562C150.889 183.606 156.568 183.113 162.362 183.113C168.157 183.113 173.835 183.606 179.369 184.562V252.734H179.398Z" fill="white"/>
<path d="M131.68 246.185C131.68 249.256 129.188 251.748 126.117 251.748H114.412C111.341 251.748 108.849 249.256 108.849 246.185V198.612C115.861 194.121 123.538 190.528 131.651 187.921V246.185H131.68Z" fill="white"/>
<path d="M215.932 198.612V246.185C215.932 249.256 213.469 251.748 210.398 251.748H198.664C195.593 251.748 193.131 249.256 193.131 246.185V197.018L193.102 187.921C201.214 190.528 208.863 194.15 215.932 198.612Z" fill="white"/>
</svg>
