<svg width="832" height="369" viewBox="0 0 832 369" fill="none" xmlns="http://www.w3.org/2000/svg">
<path d="M420.364 251.056L465.387 108.308H500.386L545.409 251.056H520.811L479.96 122.968H485.32L444.961 251.056H420.364ZM445.425 220.142V197.833H520.377V220.142H445.425Z" fill="black"/>
<path d="M556.969 251.056V108.308H578.496L627.865 209.422L677.235 108.308H698.732V251.056H676.423V159.56L632.617 251.056H623.085L579.365 159.56V251.056H556.969Z" fill="black"/>
<path d="M773.046 254.039C762.587 254.039 753.2 252.214 744.856 248.592C736.483 244.97 729.616 239.755 724.227 232.976C718.838 226.196 715.42 218.142 713.971 208.841L738.743 205.075C740.858 213.535 745.203 220.083 751.78 224.69C758.357 229.325 765.948 231.643 774.524 231.643C779.623 231.643 784.404 230.861 788.894 229.267C793.385 227.674 797.035 225.356 799.846 222.343C802.656 219.301 804.076 215.563 804.076 211.13C804.076 209.16 803.728 207.306 803.091 205.626C802.425 203.945 801.468 202.439 800.165 201.106C798.861 199.773 797.209 198.585 795.21 197.484C793.182 196.383 790.864 195.456 788.228 194.645L751.346 183.751C748.188 182.824 744.74 181.578 741.09 180.043C737.41 178.478 733.962 176.334 730.688 173.611C727.414 170.858 724.749 167.353 722.663 163.094C720.577 158.835 719.534 153.562 719.534 147.275C719.534 138.09 721.852 130.384 726.516 124.126C731.181 117.868 737.439 113.203 745.348 110.103C753.258 107.003 762.008 105.467 771.684 105.554C781.477 105.612 790.198 107.293 797.847 110.566C805.524 113.84 811.927 118.592 817.085 124.792C822.242 130.992 825.863 138.496 827.978 147.304L802.309 151.766C801.237 146.753 799.208 142.465 796.224 138.931C793.211 135.396 789.561 132.702 785.215 130.847C780.869 128.993 776.262 128.008 771.395 127.863C766.643 127.805 762.24 128.501 758.154 130.007C754.098 131.485 750.824 133.629 748.333 136.41C745.841 139.191 744.624 142.436 744.624 146.116C744.624 149.622 745.696 152.49 747.811 154.692C749.926 156.894 752.533 158.661 755.691 159.936C758.82 161.239 762.037 162.312 765.253 163.152L790.835 170.279C794.341 171.206 798.281 172.452 802.627 174.045C807.002 175.639 811.174 177.841 815.23 180.68C819.257 183.52 822.589 187.257 825.197 191.893C827.804 196.528 829.108 202.41 829.108 209.537C829.108 216.664 827.572 223.444 824.501 229.006C821.43 234.569 817.287 239.234 812.072 242.942C806.857 246.651 800.889 249.432 794.167 251.257C787.446 253.112 780.434 254.039 773.104 254.039H773.046Z" fill="black"/>
<path d="M325.942 255.777V109.408C325.942 96.4569 319.046 84.5204 307.834 78.0305L181.079 4.84567C169.866 -1.61522 156.075 -1.61522 144.863 4.84567L18.1079 78.0305C6.89548 84.4914 0 96.4569 0 109.408V255.777C0 268.728 6.89548 280.665 18.1079 287.155L144.863 360.34C156.075 366.8 169.866 366.8 181.079 360.34L307.834 287.155C319.046 280.694 325.942 268.728 325.942 255.777Z" fill="#009657"/>
<path d="M234.358 143.307V237.062C234.358 241.524 230.736 245.116 226.303 245.116H203.994C199.533 245.116 195.969 241.495 195.969 237.062V211.74C203.096 208.988 208.166 202.063 208.166 193.98C208.166 189.257 206.457 184.969 203.618 181.666L234.387 143.307H234.358Z" fill="white"/>
<path d="M234.359 98.282V106.858C227.203 109.61 222.133 116.535 222.133 124.618C222.133 128.24 223.147 131.571 224.914 134.469L195.942 170.598V98.282C195.942 93.8202 199.534 90.2275 203.967 90.2275H226.276C230.738 90.2275 234.33 93.8492 234.33 98.282H234.359Z" fill="#5DD1A4"/>
<path d="M130.029 123.371V153.647C122.988 156.428 118.005 163.324 118.005 171.349C118.005 172.827 118.179 174.276 118.527 175.666L95.4065 192.644C94.2186 191.862 92.9438 191.196 91.6111 190.703V123.371C91.6111 118.909 95.2327 115.316 99.6656 115.316H121.974C126.436 115.316 130.029 118.938 130.029 123.371Z" fill="#5DD1A4"/>
<path d="M130.029 189.027V237.063C130.029 241.525 126.407 245.118 121.974 245.118H99.6656C95.2038 245.118 91.6111 241.496 91.6111 237.063V226.198C98.7383 223.475 103.838 216.551 103.838 208.467C103.838 206.584 103.577 204.788 103.026 203.078L125.567 186.535C126.929 187.578 128.435 188.447 130.058 189.056L130.029 189.027Z" fill="white"/>
<path d="M182.296 142.495V176.219C179.283 177.349 176.676 179.261 174.648 181.637L156.018 173.293C156.076 172.655 156.105 171.989 156.105 171.351C156.105 163.268 151.035 156.315 143.879 153.591V142.495C143.879 138.033 147.5 134.44 151.933 134.44H174.242C178.675 134.44 182.268 138.062 182.268 142.495H182.296Z" fill="#5DD1A4"/>
<path d="M182.296 211.74V237.062C182.296 241.524 178.674 245.117 174.271 245.117H151.962C147.5 245.117 143.907 241.495 143.907 237.062V189.112C146.37 188.214 148.572 186.766 150.426 184.94L170.128 193.777V193.98C170.128 202.063 175.198 209.017 182.325 211.74H182.296Z" fill="white"/>
<path d="M227.173 275.015H98.7664C94.3046 275.015 90.7119 271.393 90.7119 266.961C90.7119 262.528 94.3336 258.906 98.7664 258.906H227.173C231.635 258.906 235.227 262.528 235.227 266.961C235.227 271.393 231.606 275.015 227.173 275.015Z" fill="white"/>
</svg>
