<svg width="1074" height="369" viewBox="0 0 1074 369" fill="none" xmlns="http://www.w3.org/2000/svg">
<path d="M505.37 257.457C491.086 257.457 478.86 254.328 468.691 248.099C458.521 241.841 450.699 233.149 445.252 221.965C439.805 210.811 437.082 197.831 437.082 183.113C437.082 168.395 439.805 155.415 445.252 144.261C450.699 133.107 458.521 124.386 468.691 118.128C478.86 111.87 491.086 108.77 505.37 108.77C521.826 108.77 535.53 112.884 546.511 121.112C557.492 129.34 565.169 140.437 569.602 154.372L545.526 161.007C542.745 151.678 538.022 144.406 531.358 139.162C524.695 133.918 516.032 131.281 505.399 131.281C495.809 131.281 487.842 133.425 481.468 137.713C475.094 142.001 470.284 148.027 467.097 155.792C463.881 163.557 462.259 172.654 462.201 183.113C462.201 193.543 463.794 202.67 467.01 210.434C470.226 218.199 475.036 224.225 481.439 228.542C487.842 232.83 495.838 234.974 505.428 234.974C516.061 234.974 524.724 232.338 531.387 227.036C538.051 221.734 542.803 214.491 545.555 205.219L569.631 211.854C565.198 225.79 557.492 236.886 546.54 245.115C535.559 253.343 521.855 257.457 505.399 257.457H505.37Z" fill="black"/>
<path d="M615.9 257.46C608.164 257.46 601.616 255.983 596.257 253.056C590.897 250.13 586.84 246.19 584.117 241.323C581.394 236.455 580.003 231.037 580.003 225.156C580.003 219.999 580.872 215.363 582.581 211.22C584.291 207.106 586.956 203.513 590.52 200.5C594.084 197.487 598.719 195.024 604.398 193.112C608.686 191.721 613.727 190.476 619.522 189.346C625.316 188.216 631.574 187.173 638.354 186.217C645.133 185.261 652.232 184.218 659.62 183.088L651.102 187.955C651.16 180.567 649.508 175.091 646.147 171.585C642.787 168.08 637.079 166.341 629.083 166.341C624.244 166.341 619.608 167.471 615.089 169.702C610.598 171.962 607.469 175.816 605.673 181.291L583.856 174.454C586.493 165.414 591.534 158.142 598.98 152.637C606.426 147.133 616.45 144.409 629.083 144.409C638.615 144.409 646.988 145.974 654.202 149.074C661.416 152.174 666.805 157.273 670.311 164.342C672.223 168.109 673.382 171.962 673.787 175.902C674.193 179.843 674.396 184.102 674.396 188.737V254.476H653.477V231.269L656.954 235.035C652.116 242.771 646.495 248.45 640.063 252.042C633.631 255.635 625.577 257.431 615.929 257.431L615.9 257.46ZM620.651 238.425C626.069 238.425 630.705 237.469 634.529 235.557C638.354 233.645 641.425 231.298 643.714 228.517C646.002 225.735 647.538 223.128 648.32 220.694C649.566 217.652 650.29 214.175 650.464 210.235C650.638 206.295 650.696 203.108 650.696 200.674L658.026 202.847C650.812 203.977 644.641 204.962 639.484 205.831C634.327 206.7 629.894 207.512 626.214 208.265C622.506 209.018 619.232 209.858 616.393 210.785C613.611 211.77 611.264 212.929 609.352 214.262C607.44 215.595 605.962 217.101 604.948 218.811C603.934 220.52 603.413 222.548 603.413 224.866C603.413 227.503 604.079 229.849 605.383 231.848C606.716 233.877 608.628 235.47 611.177 236.658C613.727 237.846 616.885 238.454 620.651 238.454V238.425Z" fill="black"/>
<path d="M696.271 254.474V147.392H717.392V180.594H720.376V254.446H696.271V254.474ZM760.822 254.474V189.75C760.822 182.275 758.996 176.48 755.375 172.308C751.753 168.136 746.77 166.05 740.512 166.05C734.254 166.05 729.56 168.136 725.881 172.308C722.201 176.48 720.376 181.898 720.376 188.562L709.656 181.435C709.656 174.481 711.365 168.252 714.813 162.689C718.261 157.126 722.897 152.752 728.749 149.565C734.601 146.378 741.149 144.755 748.421 144.755C756.418 144.755 763.111 146.465 768.499 149.854C773.888 153.244 777.916 157.88 780.581 163.732C783.247 169.585 784.608 176.161 784.608 183.521V254.503H760.822V254.474ZM825.054 254.474V189.431C825.054 182.101 823.229 176.364 819.607 172.221C815.986 168.078 811.031 166.021 804.831 166.021C801.007 166.021 797.559 166.89 794.517 168.658C791.475 170.425 789.07 173.004 787.274 176.393C785.477 179.783 784.608 183.839 784.608 188.533L774.004 182.275C773.946 174.887 775.598 168.339 779.016 162.689C782.435 157.04 787.042 152.636 792.836 149.449C798.66 146.291 805.121 144.697 812.277 144.697C824.098 144.697 833.166 148.261 839.482 155.359C845.798 162.457 848.956 171.787 848.956 183.376V254.446H825.054V254.474Z" fill="black"/>
<path d="M870.799 302.074V147.418H891.92V222.573H894.904V302.074H870.799ZM922.457 257.456C912.027 257.456 903.248 254.964 896.179 250.01C889.11 245.055 883.779 238.305 880.215 229.729C876.652 221.182 874.855 211.563 874.855 200.93C874.855 190.297 876.652 180.504 880.215 171.986C883.779 163.469 889.023 156.747 895.918 151.822C902.814 146.896 911.361 144.434 921.559 144.434C931.757 144.434 940.449 146.896 947.866 151.822C955.283 156.747 961.078 163.44 965.163 171.958C969.248 180.476 971.305 190.123 971.305 200.959C971.305 211.795 969.277 221.269 965.25 229.816C961.223 238.334 955.544 245.084 948.185 250.039C940.826 254.993 932.25 257.485 922.399 257.485L922.457 257.456ZM918.807 236.045C925.007 236.045 930.135 234.48 934.162 231.38C938.189 228.28 941.174 224.05 943.144 218.748C945.085 213.417 946.07 207.507 946.07 200.959C946.07 194.411 945.085 188.588 943.086 183.257C941.116 177.926 938.015 173.696 933.872 170.567C929.7 167.438 924.427 165.873 917.995 165.873C911.911 165.873 906.957 167.351 903.133 170.277C899.308 173.232 896.469 177.318 894.644 182.562C892.818 187.806 891.92 193.948 891.92 200.959C891.92 207.97 892.818 213.997 894.644 219.299C896.469 224.601 899.337 228.715 903.277 231.641C907.218 234.596 912.375 236.045 918.807 236.045Z" fill="black"/>
<path d="M1029.19 257.456C1015.98 257.456 1005.23 254.472 996.977 248.532C988.72 242.593 983.707 234.22 981.911 223.442L1006.31 219.675C1007.55 224.977 1010.33 229.121 1014.62 232.163C1018.91 235.205 1024.33 236.711 1030.87 236.711C1036.61 236.711 1041.07 235.581 1044.2 233.293C1047.33 231.004 1048.9 227.875 1048.9 223.934C1048.9 221.501 1048.32 219.531 1047.16 218.024C1046 216.546 1043.48 215.098 1039.57 213.707C1035.66 212.316 1029.69 210.578 1021.63 208.463C1012.65 206.087 1005.49 203.509 1000.22 200.785C994.92 198.033 991.124 194.788 988.807 191.022C986.489 187.255 985.33 182.706 985.33 177.346C985.33 170.683 987.068 164.859 990.574 159.905C994.08 154.951 998.976 151.126 1005.23 148.461C1011.52 145.795 1018.91 144.434 1027.43 144.434C1035.95 144.434 1043.13 145.737 1049.59 148.287C1056.02 150.865 1061.24 154.545 1065.21 159.297C1069.18 164.048 1071.61 169.64 1072.54 176.043L1048.14 180.418C1047.53 175.869 1045.48 172.247 1041.94 169.611C1038.41 166.974 1033.69 165.497 1027.8 165.149C1022.18 164.83 1017.66 165.67 1014.22 167.67C1010.77 169.698 1009.06 172.508 1009.06 176.159C1009.06 178.216 1009.75 179.954 1011.14 181.403C1012.54 182.851 1015.32 184.3 1019.52 185.777C1023.72 187.226 1029.98 189.022 1038.29 191.137C1046.81 193.31 1053.65 195.802 1058.78 198.612C1063.9 201.423 1067.61 204.783 1069.87 208.666C1072.13 212.548 1073.29 217.3 1073.29 222.833C1073.29 233.611 1069.38 242.071 1061.56 248.213C1053.73 254.356 1042.9 257.427 1029.08 257.427L1029.19 257.456Z" fill="black"/>
<path d="M325.942 255.777V109.408C325.942 96.457 319.046 84.5203 307.834 78.0304L181.079 4.84567C169.866 -1.61522 156.075 -1.61522 144.863 4.84567L18.1079 78.0304C6.89548 84.4913 0 96.457 0 109.408V255.777C0 268.728 6.89548 280.665 18.1079 287.155L144.863 360.339C156.075 366.8 169.866 366.8 181.079 360.339L307.834 287.155C319.046 280.694 325.942 268.728 325.942 255.777Z" fill="#1A6AFF"/>
<path d="M241.603 101.38C237.083 99.6996 232.1 102.017 230.419 106.508L228.739 111.086C226.769 110.854 224.625 110.593 222.336 110.333C199.708 107.725 168.708 104.103 152.164 110.68C149.325 111.839 147.413 114.534 147.268 117.605C147.036 122.762 146.776 127.832 146.602 132.931C123.597 141.101 100.332 146.867 77.0964 150.112C74.2861 150.518 71.8814 152.401 70.8094 155.037C69.7374 157.674 70.143 160.745 71.8814 163.063C99.5502 200.698 158.857 212.664 171.344 212.664C171.489 212.664 171.634 212.664 171.779 212.635H171.837C174.097 212.635 176.241 211.766 177.863 210.172C179.688 208.376 180.616 205.913 180.442 203.393C180.123 198.496 179.949 193.716 179.92 189.138C185.975 192.325 191.77 195.773 196.377 198.612L167.636 276.346C165.984 280.865 168.273 285.849 172.764 287.529C173.778 287.906 174.792 288.079 175.777 288.079C179.312 288.079 182.644 285.907 183.947 282.372L246.731 112.534C248.411 108.044 246.094 103.031 241.603 101.38ZM211.848 156.718L201.476 184.763C195.218 180.939 187.83 176.709 180.384 173.174C178.037 172.044 175.69 171.001 173.343 170.045C172.909 169.871 172.474 169.668 172.04 169.524C171.257 169.205 170.475 168.886 169.722 168.625C168.563 168.191 167.404 167.785 166.274 167.409C164.652 166.887 163.058 166.424 161.494 166.047C160.943 158.833 160.769 152.053 160.798 145.331C160.798 144.578 160.798 143.825 160.798 143.101C160.827 140.522 160.885 137.972 160.972 135.394V135.278C161.059 132.67 161.175 130.034 161.291 127.368C161.349 125.92 161.407 124.471 161.494 122.965C164.681 122.211 168.418 121.777 172.561 121.603C173.401 121.574 174.242 121.545 175.082 121.516C175.69 121.487 176.299 121.487 176.936 121.487C177.544 121.458 178.182 121.458 178.79 121.458C181.514 121.458 184.324 121.545 187.192 121.661H187.221C198.955 122.211 211.327 123.66 220.627 124.732C221.612 124.848 222.597 124.964 223.524 125.08L211.819 156.718H211.848ZM90.8005 162.889C90.8005 162.889 90.6556 162.744 90.5687 162.657C92.2781 162.367 94.0164 162.049 95.7258 161.701C97.1745 161.44 98.6231 161.15 100.072 160.861C103.78 160.107 107.518 159.296 111.226 158.398C113.602 157.848 116.007 157.268 118.382 156.66C120.758 156.051 123.163 155.414 125.539 154.777C132.492 152.835 139.417 150.691 146.341 148.345V148.403L148.833 174.507C149.209 175.115 149.615 175.695 150.078 176.216C151.672 178.013 153.874 179.287 156.337 179.751C159.147 180.272 162.247 181.257 165.492 182.503C165.376 187.342 165.434 192.412 165.637 197.656C150.658 195.425 113.515 185.516 90.8005 162.889Z" fill="white"/>
<path d="M223.553 125.083L211.848 156.721C206.922 155.214 195.044 151.303 183.194 148.492C180.789 147.942 178.413 147.391 176.067 146.957C173.604 146.464 171.199 146.059 168.939 145.769C165.926 145.421 163.145 145.247 160.798 145.334C160.798 144.581 160.798 143.828 160.798 143.103C160.827 140.525 160.885 137.975 160.972 135.397V135.281C161.059 132.673 161.175 130.037 161.291 127.371C161.349 125.923 161.407 124.474 161.493 122.967C164.68 122.214 168.418 121.78 172.561 121.606C173.401 121.577 174.241 121.548 175.082 121.519C175.69 121.49 176.298 121.49 176.936 121.49C177.544 121.461 178.182 121.461 178.79 121.461C181.514 121.461 184.324 121.548 187.192 121.664H187.221C198.955 122.214 211.326 123.663 220.627 124.735C221.612 124.851 222.597 124.967 223.524 125.083H223.553Z" fill="#34AFFF"/>
<path d="M148.832 174.51C128.957 169.382 110.269 166.079 90.7997 162.892C90.7127 162.805 90.6548 162.747 90.5679 162.66C92.2773 162.37 94.0156 162.052 95.725 161.704C97.1736 161.443 98.6223 161.153 100.071 160.864C103.779 160.11 107.517 159.299 111.225 158.401C113.601 157.851 116.006 157.271 118.382 156.663C120.757 156.054 123.162 155.417 125.538 154.78C132.491 152.838 139.416 150.694 146.34 148.348V148.406L148.832 174.51Z" fill="#34AFFF"/>
</svg>
