<svg width="1470" height="372" viewBox="0 0 1470 372" fill="none" xmlns="http://www.w3.org/2000/svg">
<path d="M507.106 258.297C492.774 258.297 480.506 255.158 470.303 248.907C460.099 242.628 452.25 233.907 446.785 222.686C441.319 211.494 438.587 198.47 438.587 183.702C438.587 168.935 441.319 155.911 446.785 144.719C452.25 133.498 460.099 124.776 470.303 118.497C480.506 112.218 492.774 109.107 507.106 109.107C523.618 109.107 537.368 113.235 548.386 121.491C559.404 129.747 567.107 140.881 571.555 154.864L547.398 161.522C544.607 152.161 539.868 144.864 533.182 139.602C526.496 134.341 517.804 131.695 507.135 131.695C497.513 131.695 489.518 133.846 483.123 138.149C476.727 142.451 471.901 148.498 468.704 156.318C465.477 164.109 463.849 173.237 463.762 183.731C463.762 194.226 465.361 203.354 468.587 211.145C471.814 218.936 476.64 224.982 483.065 229.314C489.489 233.616 497.513 235.768 507.135 235.768C517.804 235.768 526.496 233.122 533.182 227.802C539.868 222.482 544.636 215.215 547.398 205.912L571.555 212.569C567.107 226.552 559.375 237.686 548.386 245.942C537.368 254.198 523.618 258.326 507.106 258.326V258.297Z" fill="black"/>
<path d="M636.441 258.301C625.685 258.301 616.324 255.888 608.301 251.033C600.277 246.178 594.056 239.521 589.637 231.004C585.219 222.486 583.009 212.689 583.009 201.613C583.009 190.537 585.277 180.45 589.783 171.961C594.289 163.473 600.568 156.845 608.591 152.077C616.615 147.31 625.888 144.926 636.441 144.926C646.993 144.926 656.674 147.339 664.697 152.193C672.721 157.048 678.942 163.705 683.39 172.223C687.838 180.741 690.047 190.537 690.047 201.613C690.047 212.689 687.808 222.573 683.332 231.12C678.855 239.667 672.605 246.295 664.581 251.12C656.558 255.917 647.168 258.33 636.412 258.33L636.441 258.301ZM636.441 235.829C646.005 235.829 653.098 232.661 657.72 226.265C662.372 219.899 664.668 211.672 664.668 201.584C664.668 191.497 662.314 182.863 657.604 176.671C652.895 170.479 645.831 167.368 636.412 167.368C629.987 167.368 624.696 168.822 620.539 171.7C616.382 174.578 613.33 178.589 611.324 183.735C609.347 188.88 608.33 194.84 608.33 201.584C608.33 211.991 610.684 220.306 615.452 226.498C620.19 232.69 627.167 235.8 636.383 235.8L636.441 235.829Z" fill="black"/>
<path d="M708.943 255.332V109.107H732.926V255.332H708.943Z" fill="black"/>
<path d="M757.926 255.332V109.107H781.909V255.332H757.926Z" fill="black"/>
<path d="M855.923 258.301C845.05 258.301 835.486 255.946 827.259 251.237C819.032 246.527 812.608 239.986 808.014 231.643C803.392 223.271 801.096 213.678 801.096 202.805C801.096 191.061 803.363 180.886 807.869 172.223C812.375 163.56 818.654 156.845 826.678 152.077C834.701 147.31 843.975 144.926 854.527 144.926C865.661 144.926 875.138 147.542 882.929 152.746C890.72 157.949 896.505 165.304 900.284 174.781C904.063 184.258 905.488 195.45 904.558 208.299H880.778V199.549C880.72 187.892 878.656 179.345 874.615 173.996C870.574 168.618 864.208 165.944 855.516 165.944C845.69 165.944 838.393 168.967 833.626 175.043C828.858 181.119 826.474 189.985 826.474 201.642C826.474 212.515 828.858 220.945 833.626 226.905C838.393 232.864 845.37 235.858 854.527 235.858C860.429 235.858 865.516 234.55 869.789 231.934C874.063 229.317 877.377 225.509 879.673 220.538L903.337 227.689C899.209 237.37 892.871 244.899 884.295 250.277C875.691 255.655 866.243 258.33 855.894 258.33L855.923 258.301ZM818.916 208.27V190.159H892.842V208.27H818.916Z" fill="black"/>
<path d="M970.17 258.301C959.094 258.301 949.646 255.83 941.826 250.888C934.006 245.946 928.018 239.201 923.86 230.655C919.703 222.108 917.61 212.427 917.552 201.613C917.61 190.596 919.791 180.828 924.064 172.31C928.337 163.793 934.413 157.077 942.32 152.222C950.227 147.368 959.588 144.926 970.461 144.926C982.67 144.926 992.99 148.007 1001.45 154.141C1009.91 160.275 1015.43 168.647 1018.02 179.258L994.153 185.712C992.293 179.956 989.211 175.45 984.909 172.223C980.606 168.996 975.693 167.397 970.199 167.397C963.978 167.397 958.832 168.88 954.792 171.816C950.751 174.781 947.756 178.822 945.838 183.997C943.919 189.171 942.96 195.043 942.96 201.613C942.96 211.817 945.256 220.073 949.821 226.381C954.385 232.69 961.187 235.829 970.199 235.829C976.565 235.829 981.595 234.376 985.286 231.44C988.978 228.533 991.74 224.317 993.601 218.794L1018.08 224.259C1014.76 235.19 1008.95 243.62 1000.66 249.463C992.38 255.336 982.234 258.272 970.228 258.272L970.17 258.301Z" fill="black"/>
<path d="M1022.61 166.698V147.89H1097.53V166.698H1022.61ZM1097.53 255.334C1090.43 256.672 1083.49 257.253 1076.68 257.079C1069.88 256.904 1063.81 255.654 1058.43 253.299C1053.05 250.945 1048.98 247.224 1046.19 242.107C1043.75 237.456 1042.44 232.718 1042.32 227.892C1042.18 223.037 1042.12 217.572 1042.12 211.467V118.063H1065.99V210.072C1065.99 214.374 1066.04 218.153 1066.13 221.409C1066.22 224.665 1066.92 227.31 1068.17 229.374C1070.55 233.357 1074.36 235.566 1079.59 236.032C1084.82 236.497 1090.81 236.235 1097.5 235.247V255.334H1097.53Z" fill="black"/>
<path d="M1115.96 131.582V109.604H1139.94V131.582H1115.96ZM1115.96 255.335V147.89H1139.94V255.335H1115.96Z" fill="black"/>
<path d="M1193.29 255.335L1154.3 147.891H1178.29L1205.35 225.771L1232.3 147.891H1256.37L1217.39 255.335H1193.31H1193.29Z" fill="black"/>
<path d="M1314.97 258.301C1304.1 258.301 1294.54 255.946 1286.31 251.237C1278.08 246.527 1271.66 239.986 1267.07 231.643C1262.44 223.271 1260.15 213.678 1260.15 202.805C1260.15 191.061 1262.42 180.886 1266.92 172.223C1271.43 163.56 1277.71 156.845 1285.73 152.077C1293.75 147.31 1303.03 144.926 1313.58 144.926C1324.71 144.926 1334.19 147.542 1341.98 152.746C1349.77 157.949 1355.56 165.304 1359.34 174.781C1363.12 184.258 1364.54 195.45 1363.61 208.299H1339.83V199.549C1339.77 187.892 1337.71 179.345 1333.67 173.996C1329.63 168.618 1323.26 165.944 1314.57 165.944C1304.74 165.944 1297.45 168.967 1292.68 175.043C1287.91 181.119 1285.53 189.985 1285.53 201.642C1285.53 212.515 1287.91 220.945 1292.68 226.905C1297.45 232.864 1304.42 235.858 1313.58 235.858C1319.48 235.858 1324.57 234.55 1328.84 231.934C1333.11 229.317 1336.43 225.509 1338.73 220.538L1362.39 227.689C1358.26 237.37 1351.92 244.899 1343.35 250.277C1334.74 255.655 1325.29 258.33 1314.95 258.33L1314.97 258.301ZM1277.97 208.27V190.159H1351.89V208.27H1277.97Z" fill="black"/>
<path d="M1422.62 258.3C1409.37 258.3 1398.58 255.305 1390.3 249.346C1382.01 243.386 1376.98 234.985 1375.18 224.171L1399.66 220.392C1400.91 225.711 1403.7 229.869 1408.03 232.921C1412.33 235.973 1417.77 237.485 1424.34 237.485C1430.09 237.485 1434.57 236.351 1437.71 234.055C1440.85 231.758 1442.42 228.619 1442.42 224.665C1442.42 222.223 1441.84 220.246 1440.68 218.735C1439.51 217.223 1436.98 215.798 1433.06 214.403C1429.14 213.008 1423.15 211.263 1415.06 209.141C1406.05 206.758 1398.87 204.17 1393.58 201.438C1388.26 198.676 1384.45 195.42 1382.13 191.641C1379.8 187.862 1378.64 183.269 1378.64 177.92C1378.64 171.233 1380.38 165.39 1383.9 160.419C1387.42 155.448 1392.33 151.611 1398.61 148.936C1404.89 146.262 1412.33 144.896 1420.88 144.896C1429.43 144.896 1436.64 146.175 1443.12 148.762C1449.6 151.349 1454.8 155.041 1458.79 159.809C1462.77 164.576 1465.21 170.187 1466.14 176.611L1441.66 181.001C1441.05 176.437 1438.99 172.803 1435.44 170.158C1431.9 167.512 1427.16 166.001 1421.26 165.681C1415.62 165.361 1411.08 166.204 1407.62 168.21C1404.16 170.245 1402.45 173.065 1402.45 176.699C1402.45 178.763 1403.15 180.507 1404.54 181.96C1405.94 183.414 1408.73 184.867 1412.94 186.35C1417.16 187.804 1423.44 189.606 1431.78 191.728C1440.33 193.908 1447.19 196.408 1452.3 199.228C1457.45 202.048 1461.17 205.42 1463.44 209.316C1465.71 213.211 1466.87 217.979 1466.87 223.531C1466.87 234.345 1462.94 242.834 1455.1 248.997C1447.25 255.16 1436.37 258.241 1422.51 258.241L1422.62 258.3Z" fill="black"/>
<path d="M327.043 256.642V109.777C327.043 96.783 320.124 84.8059 308.874 78.2941L181.691 4.86204C170.44 -1.62068 156.603 -1.62068 145.352 4.86204L18.1691 78.2941C6.91878 84.7769 0 96.783 0 109.777V256.642C0 269.636 6.91878 281.613 18.1691 288.125L145.352 361.557C156.603 368.04 170.44 368.04 181.691 361.557L308.874 288.125C320.124 281.642 327.043 269.636 327.043 256.642Z" fill="#2CC3F2"/>
<path d="M266.926 238.615L257.188 248.325C256.054 249.459 254.222 249.459 253.06 248.325L202.39 197.684C201.256 196.55 199.425 196.55 198.262 197.684L197.186 198.731C196.023 199.864 196.023 201.725 197.186 202.888L239.658 245.36C240.821 246.493 240.821 248.325 239.658 249.488L229.949 259.197C228.815 260.331 226.954 260.331 225.821 259.197L183.319 216.696C182.186 215.562 180.383 215.562 179.25 216.696L178.145 217.801C177.011 218.935 176.982 220.795 178.145 221.929L212.39 256.174C213.524 257.308 213.524 259.168 212.39 260.302L202.68 270.011C201.547 271.174 199.686 271.174 198.552 270.011L164.278 235.795C163.145 234.662 161.313 234.662 160.179 235.795L159.104 236.842C157.941 237.976 157.941 239.836 159.104 240.999L185.151 267.017C186.285 268.151 186.285 270.011 185.151 271.145L175.412 280.855C174.279 281.988 172.447 281.988 171.284 280.855L146.865 256.406L148.9 254.371C151.4 251.871 152.766 248.383 152.592 244.807C152.447 241.522 151.08 238.412 148.726 236.057L138.987 226.318V225.941C140.557 223.702 141.429 220.911 141.371 218.091C141.254 214.748 139.888 211.58 137.504 209.196L127.766 199.428C125.266 196.957 121.952 195.562 118.463 195.562C115.847 195.562 113.376 196.347 111.254 197.771L101.283 187.8C98.8406 185.358 95.5556 183.992 92.0672 183.992C89.6253 183.992 87.2705 184.66 85.2356 185.91C85.1484 185.794 85.0321 185.678 84.9158 185.562L75.1772 175.794C73.433 174.079 71.2818 172.887 68.9271 172.364L63.7525 160.445C62.5316 157.712 63.142 154.514 65.2642 152.392L115.004 102.623C116.69 100.908 119.103 100.123 121.487 100.53L135.353 103.001L113.085 125.56C108.056 130.764 108.056 138.787 112.94 143.874L124.626 155.997C127.01 158.41 130.033 159.805 133.289 160.009C133.551 160.009 133.812 160.009 134.074 160.009C136.749 160.009 141.545 157.654 141.545 157.654L165.179 146.52C167.767 145.299 170.848 145.706 173.029 147.596L224.832 192.335L266.984 234.487C268.118 235.621 268.118 237.482 266.984 238.615H266.926Z" fill="white"/>
<path d="M103.695 208.907L101.515 211.088L87.27 225.303C86.6886 225.914 85.9037 226.204 85.1188 226.204C84.5083 226.204 83.8978 226.03 83.3746 225.623C83.2874 225.565 83.1711 225.478 83.0839 225.39L73.3453 215.652C73.3453 215.652 73.1418 215.448 73.0836 215.332C72.2406 214.198 72.3859 212.512 73.4325 211.466L89.8573 195.041C90.4387 194.459 91.2236 194.14 92.0085 194.14C92.7353 194.14 93.462 194.43 94.0144 194.983L103.782 204.721C103.782 204.721 103.782 204.721 103.84 204.779C104.916 205.913 104.829 207.745 103.695 208.907Z" fill="white"/>
<path d="M130.353 220.33L106.137 244.546C105.614 245.069 104.945 245.331 104.247 245.331C103.608 245.331 102.968 245.128 102.445 244.692C102.329 244.604 102.242 244.517 102.154 244.43L92.4157 234.691C92.4157 234.691 92.2122 234.459 92.1541 234.342C91.282 233.209 91.3401 231.668 92.2994 230.709L106.718 216.29L114.655 208.353L116.515 206.493C117.038 205.97 117.707 205.708 118.405 205.708C119.161 205.708 119.916 206.028 120.498 206.609L130.236 216.348C131.37 217.482 131.428 219.255 130.353 220.33Z" fill="white"/>
<path d="M77.6475 196.815L68.1415 206.321C67.5891 206.903 66.8333 207.164 66.1065 207.164C65.4961 207.164 64.8856 206.99 64.3914 206.612C64.2751 206.554 64.1588 206.438 64.0425 206.321L54.3039 196.583C53.1702 195.449 53.1702 193.618 54.3039 192.484L63.81 182.978C64.3623 182.396 65.1182 182.135 65.874 182.135C66.6298 182.135 67.3566 182.396 67.9089 182.978L77.6475 192.716C77.6475 192.716 77.7057 192.775 77.7057 192.804C78.7813 193.937 78.7522 195.711 77.6475 196.815Z" fill="white"/>
<path d="M141.632 247.165L139.626 249.2L125.149 263.677C124.654 264.171 124.015 264.404 123.346 264.404C122.59 264.404 121.805 264.084 121.195 263.503L111.456 253.764C111.456 253.764 111.282 253.589 111.224 253.473C110.323 252.369 110.352 250.77 111.282 249.81L125.759 235.333L127.794 233.327C128.288 232.833 128.928 232.601 129.596 232.601C130.323 232.601 131.079 232.862 131.66 233.444C131.66 233.444 131.68 233.463 131.718 233.502L141.457 243.24C142.591 244.374 142.678 246.118 141.632 247.165Z" fill="white"/>
<path d="M260.327 199.313L257.187 203.005C256.606 203.674 255.763 204.023 254.949 204.023H254.774C254.077 204.023 253.321 203.645 252.768 203.063L178.987 139.341L174.627 135.562C172.447 133.701 169.365 133.265 166.778 134.486L137.94 148.091C135.12 149.428 131.777 148.789 129.626 146.55L120.236 136.812C119.131 135.678 119.16 133.847 120.265 132.684L147.446 105.154L156.429 96.0549L157.592 94.863C160.382 92.0431 164.132 90.5605 167.97 90.5605C168.26 90.5605 168.551 90.5605 168.842 90.5605C170.179 90.6478 171.575 90.8803 172.883 91.3745L231.111 112.218C235.442 113.759 238.756 117.276 240.123 121.666L261.722 192.453C262.478 194.807 261.926 197.395 260.327 199.284V199.313Z" fill="white"/>
<path d="M227.098 194.663L141.486 157.656L165.12 146.522C167.707 145.301 170.789 145.737 172.969 147.597L223.377 191.116L224.773 192.337L227.098 194.663Z" fill="#74DFFF"/>
</svg>
