<svg width="1676" height="369" viewBox="0 0 1676 369" fill="none" xmlns="http://www.w3.org/2000/svg">
<path d="M505.34 258.416C491.057 258.416 478.83 255.287 468.661 249.058C458.492 242.8 450.669 234.108 445.222 222.924C439.775 211.77 437.052 198.79 437.052 184.072C437.052 169.354 439.775 156.374 445.222 145.22C450.669 134.066 458.492 125.345 468.661 119.087C478.83 112.829 491.057 109.729 505.34 109.729C521.797 109.729 535.501 113.843 546.481 122.071C557.462 130.299 565.14 141.396 569.572 155.332L545.496 161.966C542.715 152.637 537.992 145.365 531.329 140.121C524.665 134.877 516.002 132.24 505.369 132.24C495.779 132.24 487.812 134.384 481.438 138.672C475.064 142.96 470.254 148.987 467.067 156.78C463.851 164.545 462.229 173.642 462.171 184.101C462.171 194.531 463.765 203.658 466.981 211.422C470.197 219.187 475.006 225.213 481.409 229.53C487.812 233.818 495.808 235.962 505.398 235.962C516.031 235.962 524.694 233.326 531.358 228.024C538.021 222.722 542.773 215.479 545.525 206.207L569.601 212.842C565.169 226.778 557.462 237.874 546.51 246.103C535.53 254.331 521.826 258.445 505.369 258.445L505.34 258.416Z" fill="black"/>
<path d="M634.211 258.415C623.491 258.415 614.161 256.01 606.165 251.172C598.169 246.362 591.969 239.699 587.565 231.21C583.161 222.721 580.959 212.957 580.959 201.918C580.959 190.88 583.219 180.826 587.709 172.366C592.2 163.906 598.459 157.301 606.455 152.549C614.451 147.798 623.694 145.422 634.211 145.422C644.728 145.422 654.375 147.827 662.372 152.665C670.368 157.503 676.569 164.138 681.001 172.627C685.434 181.116 687.636 190.88 687.636 201.918C687.636 212.957 685.405 222.808 680.943 231.326C676.482 239.815 670.253 246.449 662.256 251.259C654.26 256.039 644.902 258.444 634.211 258.444V258.415ZM634.211 236.019C643.743 236.019 650.812 232.832 655.418 226.487C660.025 220.142 662.372 211.943 662.372 201.889C662.372 191.836 660.025 183.231 655.332 177.06C650.638 170.889 643.598 167.789 634.211 167.789C627.808 167.789 622.535 169.237 618.392 172.106C614.249 174.974 611.206 178.972 609.207 184.1C607.237 189.229 606.223 195.168 606.223 201.889C606.223 212.262 608.599 220.548 613.322 226.719C618.044 232.89 624.997 235.99 634.182 235.99L634.211 236.019Z" fill="black"/>
<path d="M705.164 255.458V148.375H726.285V181.578H729.269V255.429H705.164V255.458ZM769.715 255.458V190.704C769.715 183.229 767.89 177.435 764.268 173.263C760.647 169.091 755.664 167.004 749.406 167.004C743.147 167.004 738.454 169.091 734.774 173.263C731.095 177.435 729.269 182.853 729.269 189.516L718.55 182.389C718.55 175.435 720.259 169.206 723.707 163.644C727.155 158.081 731.79 153.706 737.642 150.519C743.495 147.303 750.043 145.71 757.315 145.71C765.311 145.71 772.004 147.419 777.393 150.809C782.782 154.199 786.809 158.834 789.475 164.687C792.14 170.539 793.502 177.116 793.502 184.475V255.458H769.715ZM833.947 255.458V190.414C833.947 183.084 832.122 177.348 828.501 173.205C824.879 169.062 819.925 167.004 813.725 167.004C809.9 167.004 806.453 167.874 803.41 169.641C800.368 171.408 797.964 173.987 796.167 177.377C794.371 180.766 793.502 184.823 793.502 189.516L782.898 183.258C782.84 175.87 784.491 169.322 787.91 163.673C791.3 158.023 795.935 153.619 801.73 150.432C807.553 147.274 814.014 145.681 821.171 145.681C832.992 145.681 842.06 149.244 848.376 156.343C854.692 163.441 857.85 172.77 857.85 184.359V255.458H833.947Z" fill="black"/>
<path d="M879.695 255.458V148.375H900.816V181.578H903.801V255.429H879.695V255.458ZM944.246 255.458V190.704C944.246 183.229 942.421 177.435 938.799 173.263C935.178 169.091 930.195 167.004 923.937 167.004C917.678 167.004 912.985 169.091 909.305 173.263C905.626 177.435 903.801 182.853 903.801 189.516L893.081 182.389C893.081 175.435 894.79 169.206 898.238 163.644C901.686 158.081 906.321 153.706 912.173 150.519C918.026 147.303 924.574 145.71 931.846 145.71C939.842 145.71 946.535 147.419 951.924 150.809C957.313 154.199 961.34 158.834 964.006 164.687C966.671 170.539 968.033 177.116 968.033 184.475V255.458H944.246ZM1008.48 255.458V190.414C1008.48 183.084 1006.65 177.348 1003.03 173.205C999.41 169.062 994.456 167.004 988.256 167.004C984.432 167.004 980.984 167.874 977.942 169.641C974.899 171.408 972.495 173.987 970.698 177.377C968.902 180.766 968.033 184.823 968.033 189.516L957.429 183.258C957.371 175.87 959.022 169.322 962.441 163.673C965.831 158.023 970.466 153.619 976.261 150.432C982.084 147.274 988.545 145.681 995.701 145.681C1007.52 145.681 1016.59 149.244 1022.91 156.343C1029.22 163.441 1032.38 172.77 1032.38 184.359V255.458H1008.48Z" fill="black"/>
<path d="M1094.7 258.527C1086.76 258.527 1080.22 257.195 1075.06 254.558C1069.9 251.921 1065.82 248.532 1062.77 244.446C1059.73 240.361 1057.47 235.987 1056.02 231.351C1054.57 226.715 1053.62 222.34 1053.21 218.226C1052.78 214.083 1052.58 210.751 1052.58 208.173V148.402H1076.77V199.945C1076.77 203.247 1077 206.956 1077.46 211.099C1077.93 215.242 1079 219.182 1080.68 223.007C1082.36 226.802 1084.88 229.931 1088.21 232.365C1091.54 234.799 1096.06 236.044 1101.74 236.044C1104.78 236.044 1107.8 235.552 1110.75 234.567C1113.71 233.582 1116.43 231.872 1118.84 229.468C1121.24 227.063 1123.18 223.731 1124.63 219.501C1126.08 215.271 1126.8 209.911 1126.8 203.45L1140.97 209.505C1140.97 218.632 1139.2 226.889 1135.67 234.277C1132.13 241.665 1126.92 247.576 1120.05 251.979C1113.19 256.383 1104.73 258.585 1094.67 258.585L1094.7 258.527ZM1129.7 255.456V222.253H1126.83V148.402H1150.82V255.485H1129.7V255.456Z" fill="black"/>
<path d="M1173.8 255.46V148.377H1195.12V181.58H1197.99V255.431H1173.8V255.46ZM1248.05 255.46V203.918C1248.05 200.557 1247.82 196.819 1247.36 192.705C1246.89 188.62 1245.82 184.651 1244.14 180.855C1242.46 177.06 1239.94 173.931 1236.61 171.497C1233.28 169.064 1228.76 167.818 1223.08 167.818C1220.04 167.818 1217.02 168.31 1214.07 169.295C1211.08 170.28 1208.39 171.99 1205.99 174.394C1203.58 176.799 1201.64 180.102 1200.19 184.303C1198.74 188.504 1198.02 193.864 1198.02 200.412L1183.85 194.357C1183.85 185.23 1185.62 176.973 1189.15 169.556C1192.69 162.168 1197.9 156.258 1204.77 151.854C1211.64 147.45 1220.1 145.248 1230.15 145.248C1238.09 145.248 1244.64 146.581 1249.79 149.217C1254.95 151.854 1259.03 155.244 1262.08 159.329C1265.12 163.443 1267.35 167.789 1268.83 172.424C1270.28 177.06 1271.23 181.435 1271.67 185.549C1272.1 189.663 1272.3 193.024 1272.3 195.602V255.373H1248.11L1248.05 255.46Z" fill="black"/>
<path d="M1295.02 132.124V110.221H1318.92V132.124H1295.02ZM1295.02 255.46V148.378H1318.92V255.46H1295.02Z" fill="black"/>
<path d="M1332.33 167.122V148.377H1407V167.122H1332.33ZM1407 255.459C1399.93 256.792 1393 257.343 1386.22 257.198C1379.44 257.024 1373.39 255.778 1368.03 253.431C1362.67 251.085 1358.61 247.376 1355.83 242.277C1353.4 237.641 1352.09 232.919 1351.98 228.109C1351.83 223.3 1351.77 217.824 1351.77 211.769V118.68H1375.56V210.378C1375.56 214.666 1375.62 218.432 1375.71 221.677C1375.79 224.922 1376.49 227.559 1377.73 229.616C1380.11 233.585 1383.9 235.787 1389.12 236.251C1394.33 236.714 1400.3 236.453 1406.97 235.468V255.488L1407 255.459Z" fill="black"/>
<path d="M1425.37 132.124V110.221H1449.27V132.124H1425.37ZM1425.37 255.46V148.378H1449.27V255.46H1425.37Z" fill="black"/>
<path d="M1523.03 258.415C1512.2 258.415 1502.66 256.068 1494.49 251.375C1486.3 246.681 1479.89 240.162 1475.31 231.847C1470.74 223.503 1468.42 213.942 1468.42 203.106C1468.42 191.401 1470.68 181.261 1475.17 172.627C1479.66 163.993 1485.92 157.301 1493.92 152.549C1501.91 147.798 1511.15 145.422 1521.67 145.422C1532.77 145.422 1542.21 148 1549.98 153.216C1557.74 158.431 1563.51 165.732 1567.27 175.177C1571.04 184.622 1572.46 195.776 1571.53 208.582H1547.83V199.862C1547.77 188.243 1545.72 179.725 1541.69 174.394C1537.66 169.064 1531.32 166.369 1522.66 166.369C1512.86 166.369 1505.59 169.382 1500.84 175.438C1496.09 181.493 1493.71 190.329 1493.71 201.947C1493.71 212.783 1496.09 221.185 1500.84 227.125C1505.59 233.064 1512.54 236.048 1521.67 236.048C1527.55 236.048 1532.62 234.744 1536.88 232.137C1541.14 229.529 1544.44 225.734 1546.73 220.78L1570.32 227.907C1566.2 237.555 1559.89 245.059 1551.34 250.419C1542.76 255.778 1533.35 258.444 1523.03 258.444V258.415ZM1486.15 208.553V190.503H1559.8V208.553H1486.15Z" fill="black"/>
<path d="M1630.32 258.415C1617.11 258.415 1606.36 255.431 1598.1 249.492C1589.84 243.552 1584.83 235.179 1583.03 224.401L1607.43 220.635C1608.67 225.937 1611.46 230.08 1615.74 233.122C1620.03 236.164 1625.45 237.671 1632 237.671C1637.73 237.671 1642.2 236.541 1645.33 234.252C1648.45 231.963 1650.02 228.834 1650.02 224.894C1650.02 222.46 1649.44 220.49 1648.28 218.983C1647.12 217.506 1644.6 216.057 1640.69 214.666C1636.78 213.276 1630.81 211.537 1622.76 209.422C1613.77 207.047 1606.62 204.468 1601.34 201.745C1596.04 198.992 1592.25 195.747 1589.93 191.981C1587.61 188.214 1586.45 183.666 1586.45 178.306C1586.45 171.642 1588.19 165.819 1591.7 160.864C1595.2 155.91 1600.1 152.086 1606.36 149.42C1612.64 146.755 1620.03 145.422 1628.55 145.422C1637.07 145.422 1644.25 146.697 1650.71 149.275C1657.15 151.854 1662.36 155.533 1666.33 160.285C1670.3 165.036 1672.73 170.628 1673.66 177.031L1649.27 181.406C1648.66 176.857 1646.6 173.236 1643.07 170.599C1639.53 167.963 1634.81 166.456 1628.93 166.137C1623.31 165.819 1618.79 166.659 1615.34 168.658C1611.89 170.686 1610.18 173.496 1610.18 177.147C1610.18 179.204 1610.88 180.942 1612.27 182.391C1613.66 183.84 1616.44 185.288 1620.64 186.766C1624.84 188.214 1631.1 190.011 1639.41 192.126C1647.93 194.299 1654.77 196.79 1659.9 199.601C1665.03 202.411 1668.73 205.772 1670.99 209.654C1673.25 213.537 1674.41 218.288 1674.41 223.822C1674.41 234.6 1670.5 243.06 1662.68 249.202C1654.86 255.344 1644.02 258.415 1630.2 258.415H1630.32Z" fill="black"/>
<path d="M325.942 255.777V109.408C325.942 96.4569 319.046 84.5202 307.834 78.0303L181.079 4.84567C169.866 -1.61522 156.075 -1.61522 144.863 4.84567L18.1079 78.0303C6.89548 84.4912 0 96.4569 0 109.408V255.777C0 268.728 6.89548 280.665 18.1079 287.155L144.863 360.339C156.075 366.8 169.866 366.8 181.079 360.339L307.834 287.155C319.046 280.694 325.942 268.728 325.942 255.777Z" fill="#7B62D5"/>
<path d="M162.971 80.3779C107.691 80.3779 62.7261 125.344 62.7261 180.623C62.7261 195.341 65.9129 209.306 71.6205 221.909L78.516 195.486C77.6468 190.677 77.2124 185.693 77.2124 180.623C77.2124 133.34 115.688 94.8642 162.971 94.8642C210.254 94.8642 248.73 133.34 248.73 180.623C248.73 185.664 248.296 190.59 247.426 195.399L254.351 221.88C260.03 209.277 263.216 195.312 263.216 180.623C263.216 125.344 218.251 80.3779 162.971 80.3779Z" fill="#9E9EE8"/>
<path d="M245.919 235.527L240.907 216.348L234.33 191.083C234.011 189.838 233.432 188.853 232.708 188.244C227.203 192.561 220.279 195.111 212.746 195.111C209.095 195.111 205.618 194.502 202.344 193.401L214.774 239.352C215.121 240.627 215.353 241.93 215.411 243.263H242.558C244.876 243.263 246.528 239.96 246.122 236.57C246.064 236.223 246.006 235.875 245.919 235.527Z" fill="white"/>
<path d="M196.666 175.96C198.724 178.451 201.36 180.45 204.373 181.754C206.923 182.913 209.762 183.521 212.746 183.521C215.731 183.521 218.57 182.884 221.149 181.754C224.162 180.45 226.798 178.451 228.855 175.96C231.868 172.309 233.694 167.644 233.694 162.574C233.694 151.014 224.335 141.627 212.746 141.627C207.589 141.627 202.867 143.481 199.216 146.61C199.853 149.334 200.201 152.173 200.201 155.099C200.201 161.937 198.347 168.34 195.131 173.844C195.594 174.598 196.087 175.293 196.666 175.96Z" fill="white"/>
<path d="M110.559 243.263C110.617 241.96 110.849 240.656 111.196 239.352L123.597 193.401C120.323 194.502 116.846 195.111 113.196 195.111C105.692 195.111 98.7674 192.561 93.2626 188.273C92.5383 188.853 91.9586 189.838 91.6399 191.084L85.0341 216.377L80.0509 235.528C79.964 235.875 79.9062 236.223 79.8483 236.6C79.4426 239.99 81.094 243.263 83.4118 243.263H110.559Z" fill="white"/>
<path d="M113.196 141.627C101.635 141.627 92.248 151.014 92.248 162.574C92.248 167.644 94.0734 172.309 97.0866 175.96C99.1726 178.451 101.809 180.45 104.822 181.754C107.372 182.913 110.211 183.521 113.196 183.521C116.18 183.521 119.019 182.913 121.568 181.754C124.581 180.45 127.218 178.451 129.304 175.96C129.855 175.293 130.376 174.598 130.811 173.844C127.595 168.34 125.741 161.937 125.741 155.099C125.741 152.173 126.088 149.334 126.726 146.61C123.075 143.481 118.353 141.627 113.196 141.627Z" fill="white"/>
<path d="M135.504 193.836L122.379 242.394C122.292 242.684 122.235 242.974 122.206 243.264C121.829 245.379 122.206 247.494 123.046 249.058C123.828 250.565 125.074 251.55 126.494 251.55H199.446C200.866 251.55 202.112 250.565 202.894 249.058C203.764 247.494 204.111 245.379 203.735 243.264C203.706 242.974 203.648 242.684 203.561 242.394L190.465 193.836L189.393 189.838C188.958 188.187 188.089 186.883 187.017 186.217C186.467 185.869 185.888 185.666 185.279 185.666H184.178C182.845 186.622 181.426 187.462 179.948 188.216C174.849 190.852 169.083 192.33 162.97 192.33C156.857 192.33 151.12 190.852 146.021 188.216C144.544 187.462 143.124 186.622 141.762 185.666H140.69C140.082 185.666 139.502 185.84 138.952 186.217C137.88 186.854 137.011 188.158 136.576 189.838L135.504 193.836Z" fill="white"/>
<path d="M205.851 254.848H205.677L205.445 255.079L205.416 255.108C204.286 255.775 203.127 256.383 201.968 256.963C197.014 259.512 191.799 261.598 186.323 263.134C178.906 265.249 171.054 266.379 162.971 266.379C154.888 266.379 147.065 265.249 139.648 263.134C134.143 261.598 128.899 259.512 123.916 256.934C122.786 256.383 121.656 255.775 120.555 255.108L120.294 254.848H95.6096C113.428 270.985 137.069 280.865 162.971 280.865C188.872 280.865 212.514 270.985 230.332 254.848H205.851Z" fill="#9E9EE8"/>
<path d="M144.167 172.482C144.66 173.062 145.21 173.583 145.761 174.076C148.745 176.799 152.366 178.798 156.364 179.87C158.479 180.45 160.681 180.74 162.97 180.74C165.259 180.74 167.461 180.45 169.576 179.87C173.574 178.798 177.196 176.799 180.18 174.076C180.731 173.583 181.281 173.062 181.802 172.482C183.599 170.541 185.105 168.31 186.235 165.848V165.79C187.771 162.516 188.611 158.952 188.611 155.099C188.611 153.94 188.524 152.781 188.379 151.651C188.032 148.928 187.22 146.349 186.09 143.973C181.947 135.397 173.14 129.458 162.97 129.458C152.801 129.458 144.022 135.397 139.85 143.973C138.72 146.32 137.938 148.899 137.561 151.593C137.416 152.752 137.33 153.911 137.33 155.099C137.33 158.952 138.199 162.632 139.705 165.906C140.864 168.339 142.342 170.541 144.167 172.482Z" fill="white"/>
</svg>
