<svg width="1538" height="369" viewBox="0 0 1538 369" fill="none" xmlns="http://www.w3.org/2000/svg">
<path d="M325.942 255.777V109.408C325.942 96.457 319.046 84.5203 307.834 78.0305L181.079 4.84567C169.866 -1.61522 156.075 -1.61522 144.863 4.84567L18.1079 78.0305C6.89548 84.4914 0 96.457 0 109.408V255.777C0 268.728 6.89548 280.665 18.1079 287.155L144.863 360.34C156.075 366.8 169.866 366.8 181.079 360.34L307.834 287.155C319.046 280.694 325.942 268.728 325.942 255.777Z" fill="#FC542D"/>
<path d="M505.339 257.428C491.056 257.428 478.829 254.299 468.659 248.069C458.49 241.811 450.668 233.12 445.221 221.936C439.774 210.782 437.051 197.802 437.051 183.084C437.051 168.366 439.774 155.386 445.221 144.232C450.668 133.077 458.49 124.356 468.659 118.098C478.829 111.84 491.056 108.74 505.339 108.74C521.796 108.74 535.499 112.854 546.48 121.083C557.461 129.311 565.138 140.407 569.571 154.343L545.495 160.978C542.713 151.649 537.991 144.377 531.327 139.132C524.664 133.888 516.001 131.252 505.368 131.252C495.778 131.252 487.811 133.396 481.437 137.684C475.063 141.972 470.253 147.998 467.066 155.792C463.879 163.585 462.228 172.654 462.17 183.113C462.17 193.572 463.764 202.669 466.979 210.434C470.195 218.199 475.005 224.225 481.408 228.542C487.811 232.83 495.807 234.974 505.397 234.974C516.03 234.974 524.693 232.337 531.356 227.035C538.02 221.733 542.771 214.49 545.524 205.219L569.6 211.854C565.167 225.79 557.461 236.886 546.509 245.114C535.528 253.342 521.825 257.457 505.368 257.457L505.339 257.428Z" fill="black"/>
<path d="M634.209 257.427C623.489 257.427 614.159 255.022 606.163 250.184C598.166 245.345 591.966 238.71 587.562 230.221C583.159 221.732 580.957 211.969 580.957 200.93C580.957 189.892 583.217 179.838 587.707 171.378C592.198 162.918 598.456 156.312 606.453 151.561C614.449 146.809 623.691 144.434 634.209 144.434C644.726 144.434 654.373 146.838 662.37 151.677C670.366 156.515 676.566 163.15 680.999 171.639C685.432 180.128 687.634 189.892 687.634 200.93C687.634 211.969 685.403 221.819 680.941 230.337C676.479 238.826 670.25 245.461 662.254 250.271C654.257 255.051 644.899 257.456 634.209 257.456V257.427ZM634.209 235.031C643.741 235.031 650.809 231.873 655.416 225.499C660.052 219.154 662.37 210.955 662.37 200.901C662.37 190.848 660.023 182.243 655.33 176.072C650.636 169.901 643.596 166.8 634.209 166.8C627.806 166.8 622.533 168.249 618.39 171.117C614.247 173.986 611.204 177.984 609.205 183.112C607.235 188.24 606.221 194.18 606.221 200.901C606.221 211.273 608.597 219.56 613.319 225.731C618.042 231.902 624.995 235.002 634.18 235.002L634.209 235.031Z" fill="black"/>
<path d="M705.163 254.474V147.392H726.284V180.594H729.268V254.445H705.163V254.474ZM769.714 254.474V189.75C769.714 182.275 767.888 176.48 764.267 172.308C760.645 168.136 755.662 166.05 749.404 166.05C743.146 166.05 738.453 168.136 734.773 172.308C731.093 176.48 729.268 181.898 729.268 188.562L718.548 181.435C718.548 174.481 720.258 168.252 723.705 162.689C727.153 157.127 731.789 152.752 737.641 149.565C743.494 146.349 750.042 144.755 757.314 144.755C765.31 144.755 772.003 146.465 777.392 149.854C782.78 153.273 786.807 157.88 789.473 163.732C792.138 169.585 793.501 176.162 793.501 183.521V254.503H769.714V254.474ZM833.946 254.474V189.431C833.946 182.101 832.121 176.364 828.5 172.221C824.878 168.107 819.923 166.021 813.723 166.021C809.899 166.021 806.451 166.89 803.409 168.658C800.367 170.396 797.962 172.975 796.166 176.393C794.369 179.812 793.501 183.839 793.501 188.533L782.896 182.275C782.838 174.887 784.49 168.339 787.909 162.689C791.299 157.04 795.934 152.636 801.728 149.449C807.552 146.291 814.013 144.697 821.169 144.697C832.99 144.697 842.058 148.261 848.374 155.359C854.69 162.457 857.849 171.787 857.849 183.376V254.474H833.946Z" fill="black"/>
<path d="M879.723 302.044V147.388H900.844V222.543H903.828V302.044H879.723ZM931.352 257.426C920.922 257.426 912.143 254.935 905.074 249.98C898.004 245.026 892.673 238.276 889.11 229.7C885.546 221.153 883.75 211.534 883.75 200.901C883.75 190.268 885.546 180.475 889.11 171.957C892.673 163.439 897.917 156.718 904.813 151.792C911.708 146.867 920.255 144.404 930.454 144.404C940.652 144.404 949.343 146.867 956.76 151.792C964.206 156.718 969.972 163.439 974.058 171.928C978.143 180.417 980.199 190.094 980.199 200.93C980.199 211.766 978.171 221.24 974.144 229.787C970.117 238.304 964.438 245.055 957.079 250.009C949.72 254.964 941.145 257.455 931.294 257.455L931.352 257.426ZM927.701 236.016C933.902 236.016 939.029 234.451 943.056 231.351C947.084 228.251 950.068 224.021 952.038 218.719C953.979 213.388 954.964 207.478 954.964 200.93C954.964 194.382 953.979 188.559 951.98 183.228C950.01 177.897 946.91 173.667 942.767 170.538C938.595 167.409 933.322 165.815 926.89 165.815C920.806 165.815 915.851 167.293 912.027 170.219C908.202 173.145 905.363 177.259 903.538 182.503C901.713 187.747 900.815 193.889 900.815 200.901C900.815 207.912 901.713 213.939 903.538 219.241C905.363 224.543 908.232 228.657 912.172 231.583C916.112 234.538 921.27 235.987 927.701 235.987V236.016Z" fill="black"/>
<path d="M999.265 254.472V108.74H1023.17V254.472H999.265Z" fill="black"/>
<path d="M1048.08 131.135V109.231H1071.99V131.135H1048.08ZM1048.08 254.471V147.388H1071.99V254.471H1048.08Z" fill="black"/>
<path d="M1126.37 257.43C1118.63 257.43 1112.08 255.952 1106.72 253.026C1101.36 250.1 1097.31 246.16 1094.58 241.292C1091.86 236.425 1090.47 231.007 1090.47 225.126C1090.47 219.968 1091.34 215.333 1093.05 211.19C1094.76 207.076 1097.42 203.483 1100.99 200.47C1104.55 197.457 1109.19 194.994 1114.86 193.082C1119.15 191.691 1124.19 190.445 1129.99 189.315C1135.78 188.185 1142.04 187.142 1148.82 186.186C1155.6 185.23 1162.7 184.187 1170.09 183.057L1161.57 187.925C1161.63 180.537 1159.98 175.061 1156.61 171.555C1153.25 168.05 1147.55 166.311 1139.55 166.311C1134.71 166.311 1130.08 167.441 1125.56 169.672C1121.06 171.932 1117.94 175.785 1116.14 181.261L1094.32 174.423C1096.96 165.384 1102 158.112 1109.45 152.607C1116.89 147.102 1126.92 144.379 1139.55 144.379C1149.08 144.379 1157.45 145.943 1164.67 149.043C1171.88 152.144 1177.27 157.243 1180.78 164.312C1182.69 168.078 1183.85 171.932 1184.25 175.872C1184.66 179.812 1184.86 184.071 1184.86 188.707V254.446H1163.94V231.239L1167.42 235.005C1162.58 242.741 1156.96 248.42 1150.53 252.012C1144.1 255.605 1136.04 257.401 1126.4 257.401L1126.37 257.43ZM1131.12 238.395C1136.54 238.395 1141.17 237.439 1145 235.527C1148.82 233.615 1151.89 231.268 1154.18 228.486C1156.47 225.705 1158.01 223.097 1158.79 220.664C1160.03 217.622 1160.76 214.145 1160.93 210.205C1161.11 206.264 1161.16 203.077 1161.16 200.644L1168.49 202.817C1161.28 203.947 1155.11 204.932 1149.95 205.801C1144.79 206.67 1140.36 207.481 1136.68 208.235C1132.97 208.988 1129.7 209.828 1126.86 210.755C1124.08 211.74 1121.73 212.899 1119.82 214.232C1117.91 215.565 1116.43 217.071 1115.41 218.781C1114.4 220.49 1113.88 222.518 1113.88 224.836C1113.88 227.472 1114.55 229.819 1115.85 231.818C1117.18 233.846 1119.09 235.44 1121.64 236.628C1124.19 237.816 1127.35 238.424 1131.12 238.424V238.395Z" fill="black"/>
<path d="M1206.74 254.472V147.389H1228.06V180.591H1230.93V254.443H1206.74V254.472ZM1280.99 254.472V202.929C1280.99 199.568 1280.76 195.831 1280.3 191.717C1279.83 187.632 1278.76 183.663 1277.08 179.867C1275.4 176.072 1272.88 172.943 1269.55 170.509C1266.22 168.075 1261.7 166.829 1256.02 166.829C1252.98 166.829 1249.96 167.322 1247.01 168.307C1244.02 169.292 1241.33 171.001 1238.93 173.406C1236.52 175.811 1234.58 179.114 1233.13 183.315C1231.68 187.516 1230.96 192.876 1230.96 199.424L1216.79 193.368C1216.79 184.242 1218.56 175.985 1222.09 168.568C1225.63 161.18 1230.84 155.269 1237.71 150.866C1244.58 146.462 1253.04 144.26 1263.09 144.26C1271.03 144.26 1277.57 145.593 1282.73 148.229C1287.89 150.866 1291.97 154.255 1295.02 158.34C1298.06 162.455 1300.29 166.8 1301.77 171.436C1303.24 176.072 1304.17 180.447 1304.61 184.561C1305.04 188.704 1305.24 192.036 1305.24 194.614V254.385H1281.05L1280.99 254.472Z" fill="black"/>
<path d="M1373.59 257.427C1362.55 257.427 1353.14 254.964 1345.34 250.039C1337.55 245.113 1331.58 238.392 1327.44 229.874C1323.29 221.356 1321.21 211.708 1321.15 200.93C1321.21 189.95 1323.38 180.215 1327.64 171.726C1331.9 163.237 1337.95 156.544 1345.84 151.706C1353.72 146.867 1363.05 144.434 1373.88 144.434C1386.05 144.434 1396.33 147.505 1404.77 153.618C1413.2 159.731 1418.7 168.075 1421.28 178.65L1397.49 185.082C1395.64 179.346 1392.57 174.855 1388.28 171.639C1383.99 168.423 1379.1 166.829 1373.62 166.829C1367.42 166.829 1362.29 168.307 1358.26 171.233C1354.24 174.188 1351.25 178.216 1349.34 183.373C1347.43 188.53 1346.47 194.382 1346.47 200.93C1346.47 211.1 1348.76 219.328 1353.31 225.615C1357.86 231.902 1364.64 235.031 1373.62 235.031C1379.97 235.031 1384.98 233.582 1388.63 230.656C1392.31 227.759 1395.06 223.558 1396.91 218.053L1421.31 223.5C1418.01 234.394 1412.21 242.796 1403.95 248.619C1395.7 254.472 1385.59 257.398 1373.62 257.398L1373.59 257.427Z" fill="black"/>
<path d="M1484.61 257.427C1473.78 257.427 1464.25 255.08 1456.08 250.386C1447.88 245.693 1441.47 239.174 1436.9 230.859C1432.32 222.515 1430 212.954 1430 202.118C1430 190.413 1432.26 180.273 1436.75 171.639C1441.24 163.005 1447.5 156.312 1455.5 151.561C1463.49 146.809 1472.73 144.434 1483.25 144.434C1494.35 144.434 1503.79 147.041 1511.56 152.227C1519.32 157.413 1525.09 164.743 1528.85 174.188C1532.62 183.634 1534.04 194.788 1533.11 207.594H1509.41V198.873C1509.36 187.255 1507.3 178.737 1503.27 173.406C1499.24 168.075 1492.9 165.381 1484.24 165.381C1474.44 165.381 1467.17 168.394 1462.42 174.449C1457.67 180.504 1455.29 189.341 1455.29 200.959C1455.29 211.795 1457.67 220.197 1462.42 226.136C1467.17 232.076 1474.13 235.06 1483.25 235.06C1489.13 235.06 1494.2 233.756 1498.46 231.149C1502.72 228.541 1506.02 224.746 1508.31 219.791L1531.9 226.919C1527.78 236.566 1521.47 244.07 1512.92 249.43C1504.34 254.79 1494.93 257.456 1484.61 257.456V257.427ZM1447.73 207.565V189.515H1521.38V207.565H1447.73Z" fill="black"/>
<path d="M244.181 115.667L176.732 92.5176V92.6914C176.906 93.155 177.052 93.5316 177.196 93.9372L177.312 94.169L177.37 94.3718C177.573 94.9223 177.776 95.5017 178.037 96.1102C178.732 97.7616 179.34 99.0944 179.891 100.282L180.21 100.949L180.267 101.064C180.788 102.165 181.368 103.237 181.948 104.28C182.121 104.599 182.324 104.947 182.498 105.266C182.759 105.758 183.02 106.222 183.309 106.685L183.367 106.772V106.83C184.294 108.337 185.163 109.698 186.09 111.031L239.488 129.371V186.244C239.227 196.964 236.995 210.175 230.998 223.677C229.607 226.806 228.014 229.964 226.16 233.122C225.233 234.715 224.248 236.338 223.147 237.96C222.828 238.453 222.481 238.974 222.162 239.467C221.554 240.336 220.945 241.234 220.278 242.103C214.107 250.592 205.908 258.965 195.014 266.295C194.29 266.788 193.566 267.251 192.812 267.744C192.783 267.744 192.783 267.744 192.754 267.744C184.323 273.278 174.444 278.261 162.941 282.404C151.439 278.261 141.56 273.278 133.158 267.744C132.955 267.599 132.752 267.483 132.549 267.367C120.815 259.747 112.095 250.998 105.634 242.074H105.605C104.591 240.683 103.635 239.293 102.737 237.931C101.665 236.309 100.651 234.686 99.7237 233.093C97.8984 229.935 96.2755 226.777 94.9138 223.648C88.9165 210.146 86.7147 196.935 86.425 186.215V129.342L139.532 111.118C139.561 110.278 139.647 109.524 139.705 108.916V108.742C139.821 107.757 139.937 106.772 140.082 105.816V105.439L140.198 105.063L140.256 104.86C140.401 103.933 140.633 102.658 141.01 101.267C141.155 100.456 141.357 99.7897 141.473 99.3261L141.56 99.0944V98.9785L141.618 98.8916C142.053 97.4139 142.574 95.9653 143.154 94.5457L81.7028 115.638C75.8504 117.637 71.9387 123.142 71.9387 129.342V186.592C72.1995 196.297 73.822 209.393 79.2399 223.648C80.3988 226.748 81.7602 229.906 83.3248 233.093C84.7734 236.077 86.3964 239.061 88.2217 242.074C88.6852 242.856 89.1778 243.639 89.6703 244.421C104.562 267.686 127.566 285.041 158.045 296.05C159.639 296.63 161.29 296.89 162.941 296.89C164.593 296.89 166.274 296.63 167.867 296.05C198.346 285.041 221.35 267.686 236.242 244.421C236.735 243.639 237.227 242.856 237.691 242.074C239.516 239.061 241.138 236.077 242.587 233.093C244.152 229.906 245.514 226.748 246.673 223.648C252.062 209.393 253.713 196.297 253.974 186.592V129.342C253.974 123.142 250.033 117.637 244.181 115.638V115.667Z" fill="#FFA149"/>
<path d="M162.942 269.453C182.035 262.557 195.71 252.822 205.416 242.103H120.497C130.174 252.822 143.849 262.557 162.942 269.453Z" fill="white"/>
<path d="M141.038 223.674H107.806C109.4 226.832 111.254 229.99 113.398 233.119H212.513C214.628 229.99 216.511 226.832 218.105 223.674H141.038Z" fill="white"/>
<path d="M151.149 214.258C152.975 214.547 154.829 214.721 156.683 214.721C160.478 214.721 164.303 214.055 167.925 212.461C171.112 211.1 174.095 209.477 176.326 206.696C176.442 206.551 176.558 206.377 176.674 206.232C179.484 202.495 179.977 198.381 179.253 194.209C179.05 192.992 178.731 191.775 178.354 190.558C176.326 184.126 171.952 179.085 167.722 173.986C166.823 172.885 165.897 171.813 165.027 170.683C156.944 160.745 149.758 150.112 144.283 138.465C142.718 135.278 141.443 132.033 140.227 128.702C140.053 128.354 139.734 128.122 139.415 128.122C139.184 128.122 138.981 128.209 138.807 128.412C138.228 128.962 137.59 129.716 137.184 130.208C136.924 130.498 136.721 130.759 136.518 131.048C132.259 136.292 129.71 142.261 129.333 149.156C128.898 156.023 130.608 162.397 133.65 168.394C136.026 173.145 138.981 177.694 142.11 182.069C143.268 183.692 144.34 185.343 144.862 187.4C145.615 190.616 144.92 192.036 142.197 192.036C141.791 192.036 141.327 192.007 140.748 191.891C140.313 191.891 139.995 191.601 139.589 191.456C136.2 190.239 133.968 187.574 131.737 184.879C128.55 180.997 126.059 176.593 123.422 172.218C123.22 171.958 122.93 171.842 122.698 171.842C122.263 171.842 121.829 172.131 121.829 172.653C121.278 182.127 122.727 191.137 127.913 199.279C133.389 207.739 141.328 212.809 151.149 214.258Z" fill="white"/>
<path d="M151.699 119.606C152.104 122.011 152.741 124.387 153.553 126.705C153.842 127.545 154.161 128.385 154.509 129.225C157.145 135.773 160.883 141.741 164.91 147.507C165.895 148.927 166.967 150.317 168.01 151.708C169.951 154.344 171.979 156.865 174.036 159.386C176.209 162.109 178.411 164.804 180.584 167.556C181.424 168.657 182.265 169.729 183.105 170.859C187.248 176.422 190.174 182.361 190.957 189.459C191.015 190.386 191.073 191.256 191.073 192.125C191.073 192.849 191.044 193.602 190.957 194.298C190.667 197.398 189.682 200.295 188.001 203.076C187.77 203.424 188.059 203.772 188.378 203.772C188.494 203.772 188.552 203.743 188.668 203.714C189.421 203.134 190.116 202.526 190.812 201.917C191.246 201.483 191.71 201.077 192.144 200.643C199.271 194.153 204.719 186.765 207.008 177.436C207.326 176.132 207.615 174.799 207.789 173.379C208.021 171.525 208.108 169.7 208.021 167.904C207.934 163.992 207.152 160.284 205.79 156.575V156.517C203.385 150.172 199.503 144.812 194.925 139.974C193.129 138.091 191.333 136.179 189.595 134.208C185.886 130.065 182.38 125.806 179.136 121.316C178.382 120.302 177.658 119.259 176.934 118.187C175.717 116.419 174.587 114.652 173.486 112.827C172.907 111.9 172.385 110.915 171.834 109.958C171.081 108.597 170.357 107.206 169.661 105.786C169.604 105.642 169.516 105.497 169.458 105.323C168.705 103.758 168.01 102.165 167.344 100.571C167.025 99.818 166.736 99.0358 166.475 98.3115C166.156 97.5292 165.895 96.7759 165.664 95.9936C165.403 95.2114 165.171 94.4291 164.997 93.6469C164.708 92.5749 164.504 91.5029 164.359 90.4309C164.272 89.8514 164.186 89.272 164.128 88.6636C164.07 88.171 164.041 87.6785 164.012 87.186C163.983 86.6065 163.983 85.9691 163.983 85.3317C163.983 85.013 163.751 84.8682 163.52 84.8682C163.375 84.8682 163.259 84.9261 163.172 85.013C162.389 85.9401 161.636 86.8383 160.912 87.7654C160.593 88.1421 160.303 88.5477 160.013 88.9243C156.826 93.0095 154.191 97.2684 152.713 102.223C152.568 102.744 152.394 103.295 152.307 103.845C152.017 104.888 151.814 105.931 151.641 106.974C151.612 107.119 151.583 107.264 151.554 107.409C151.438 108.249 151.322 109.118 151.235 109.958C151.148 110.944 151.061 111.958 151.061 112.943C151.061 114.71 151.206 116.448 151.438 118.187C151.496 118.65 151.583 119.143 151.699 119.606Z" fill="white"/>
</svg>
