<?xml version="1.0" encoding="UTF-8"?><svg id="Layer_2" xmlns="http://www.w3.org/2000/svg" viewBox="0 0 887.55 126.04"><defs><style>.cls-1,.cls-2,.cls-3,.cls-4{stroke-width:0px;}.cls-2{fill:#fc542d;}.cls-3{fill:#ffa149;}.cls-4{fill:#fff;}</style></defs><g id="Layer_1-2"><path class="cls-2" d="M112.5,88.28v-50.52c0-4.47-2.38-8.59-6.25-10.83L62.5,1.67c-3.87-2.23-8.63-2.23-12.5,0L6.25,26.93c-3.87,2.23-6.25,6.36-6.25,10.83v50.52c0,4.47,2.38,8.59,6.25,10.83l43.75,25.26c3.87,2.23,8.63,2.23,12.5,0l43.75-25.26c3.87-2.23,6.25-6.36,6.25-10.83Z"/><path class="cls-3" d="M84.29,39.92l-23.28-7.99v.06c.06.16.11.29.16.43l.04.08.02.07c.07.19.14.39.23.6.24.57.45,1.03.64,1.44l.11.23.02.04c.18.38.38.75.58,1.11.06.11.13.23.19.34.09.17.18.33.28.49l.02.03v.02c.32.52.62.99.94,1.45l18.43,6.33v19.63c-.09,3.7-.86,8.26-2.93,12.92-.48,1.08-1.03,2.17-1.67,3.26-.32.55-.66,1.11-1.04,1.67-.11.17-.23.35-.34.52-.21.3-.42.61-.65.91-2.13,2.93-4.96,5.82-8.72,8.35-.25.17-.5.33-.76.5-.01,0-.01,0-.02,0-2.91,1.91-6.32,3.63-10.29,5.06-3.97-1.43-7.38-3.15-10.28-5.06-.07-.05-.14-.09-.21-.13-4.05-2.63-7.06-5.65-9.29-8.73h-.01c-.35-.48-.68-.96-.99-1.43-.37-.56-.72-1.12-1.04-1.67-.63-1.09-1.19-2.18-1.66-3.26-2.07-4.66-2.83-9.22-2.93-12.92v-19.63l18.33-6.29c.01-.29.04-.55.06-.76v-.06c.04-.34.08-.68.13-1.01v-.13s.04-.13.04-.13l.02-.07c.05-.32.13-.76.26-1.24.05-.28.12-.51.16-.67l.03-.08v-.04s.02-.03.02-.03c.15-.51.33-1.01.53-1.5l-21.21,7.28c-2.02.69-3.37,2.59-3.37,4.73v19.76c.09,3.35.65,7.87,2.52,12.79.4,1.07.87,2.16,1.41,3.26.5,1.03,1.06,2.06,1.69,3.1.16.27.33.54.5.81,5.14,8.03,13.08,14.02,23.6,17.82.55.2,1.12.29,1.69.29s1.15-.09,1.7-.29c10.52-3.8,18.46-9.79,23.6-17.82.17-.27.34-.54.5-.81.63-1.04,1.19-2.07,1.69-3.1.54-1.1,1.01-2.19,1.41-3.26,1.86-4.92,2.43-9.44,2.52-12.79v-19.76c0-2.14-1.36-4.04-3.38-4.73Z"/><path class="cls-4" d="M56.25,93c6.59-2.38,11.31-5.74,14.66-9.44h-29.31c3.34,3.7,8.06,7.06,14.65,9.44Z"/><path class="cls-4" d="M48.69,77.2h-11.47c.55,1.09,1.19,2.18,1.93,3.26h34.21c.73-1.08,1.38-2.17,1.93-3.26h-26.6Z"/><path class="cls-4" d="M52.18,73.95c.63.1,1.27.16,1.91.16,1.31,0,2.63-.23,3.88-.78,1.1-.47,2.13-1.03,2.9-1.99.04-.05.08-.11.12-.16.97-1.29,1.14-2.71.89-4.15-.07-.42-.18-.84-.31-1.26-.7-2.22-2.21-3.96-3.67-5.72-.31-.38-.63-.75-.93-1.14-2.79-3.43-5.27-7.1-7.16-11.12-.54-1.1-.98-2.22-1.4-3.37-.06-.12-.17-.2-.28-.2-.08,0-.15.03-.21.1-.2.19-.42.45-.56.62-.09.1-.16.19-.23.29-1.47,1.81-2.35,3.87-2.48,6.25-.15,2.37.44,4.57,1.49,6.64.82,1.64,1.84,3.21,2.92,4.72.4.56.77,1.13.95,1.84.26,1.11.02,1.6-.92,1.6-.14,0-.3-.01-.5-.05-.15,0-.26-.1-.4-.15-1.17-.42-1.94-1.34-2.71-2.27-1.1-1.34-1.96-2.86-2.87-4.37-.07-.09-.17-.13-.25-.13-.15,0-.3.1-.3.28-.19,3.27.31,6.38,2.1,9.19,1.89,2.92,4.63,4.67,8.02,5.17Z"/><path class="cls-4" d="M52.37,41.28c.14.83.36,1.65.64,2.45.1.29.21.58.33.87.91,2.26,2.2,4.32,3.59,6.31.34.49.71.97,1.07,1.45.67.91,1.37,1.78,2.08,2.65.75.94,1.51,1.87,2.26,2.82.29.38.58.75.87,1.14,1.43,1.92,2.44,3.97,2.71,6.42.02.32.04.62.04.92,0,.25-.01.51-.04.75-.1,1.07-.44,2.07-1.02,3.03-.08.12.02.24.13.24.04,0,.06-.01.1-.02.26-.2.5-.41.74-.62.15-.15.31-.29.46-.44,2.46-2.24,4.34-4.79,5.13-8.01.11-.45.21-.91.27-1.4.08-.64.11-1.27.08-1.89-.03-1.35-.3-2.63-.77-3.91v-.02c-.83-2.19-2.17-4.04-3.75-5.71-.62-.65-1.24-1.31-1.84-1.99-1.28-1.43-2.49-2.9-3.61-4.45-.26-.35-.51-.71-.76-1.08-.42-.61-.81-1.22-1.19-1.85-.2-.32-.38-.66-.57-.99-.26-.47-.51-.95-.75-1.44-.02-.05-.05-.1-.07-.16-.26-.54-.5-1.09-.73-1.64-.11-.26-.21-.53-.3-.78-.11-.27-.2-.53-.28-.8-.09-.27-.17-.54-.23-.81-.1-.37-.17-.74-.22-1.11-.03-.2-.06-.4-.08-.61-.02-.17-.03-.34-.04-.51-.01-.2-.01-.42-.01-.64,0-.11-.08-.16-.16-.16-.05,0-.09.02-.12.05-.27.32-.53.63-.78.95-.11.13-.21.27-.31.4-1.1,1.41-2.01,2.88-2.52,4.59-.05.18-.11.37-.14.56-.1.36-.17.72-.23,1.08-.01.05-.02.1-.03.15-.04.29-.08.59-.11.88-.03.34-.06.69-.06,1.03,0,.61.05,1.21.13,1.81.02.16.05.33.09.49Z"/><path class="cls-1" d="M165.59,48.09c2.2-1.42,4.96-2.13,8.27-2.13,3.67,0,6.67.87,8.97,2.61,2.31,1.74,3.94,4.15,4.9,7.24l8.32-2.2c-1.53-4.62-4.19-8.29-7.98-11.01-3.79-2.72-8.53-4.08-14.21-4.08-4.93,0-9.16,1.03-12.67,3.1-3.52,2.07-6.22,4.95-8.1,8.65-1.88,3.7-2.83,7.98-2.83,12.86s.94,9.17,2.83,12.86c1.88,3.7,4.58,6.58,8.1,8.65,3.51,2.07,7.74,3.1,12.67,3.1,5.68,0,10.42-1.36,14.21-4.08,3.79-2.72,6.45-6.39,7.98-11.01l-8.32-2.2c-.96,3.06-2.59,5.47-4.9,7.22-2.31,1.75-5.3,2.62-8.97,2.62-3.31,0-6.07-.71-8.29-2.13-2.21-1.42-3.88-3.42-4.98-5.99-1.11-2.57-1.66-5.58-1.66-9.04.02-3.46.59-6.47,1.7-9.04,1.11-2.57,2.76-4.57,4.97-5.99Z"/><path class="cls-1" d="M228.1,52.71c-2.76-1.6-6-2.4-9.73-2.4s-6.83.79-9.59,2.36c-2.76,1.58-4.92,3.76-6.47,6.56-1.55,2.8-2.33,6.06-2.33,9.78s.76,6.88,2.28,9.7c1.52,2.81,3.66,5.01,6.42,6.61,2.76,1.6,5.99,2.4,9.69,2.4s6.93-.79,9.69-2.38c2.76-1.59,4.91-3.78,6.45-6.6,1.54-2.81,2.31-6.05,2.31-9.73s-.76-6.89-2.29-9.7c-1.53-2.81-3.68-5.01-6.44-6.61ZM225.7,77.16c-1.6,2.1-4.04,3.15-7.33,3.15s-5.58-1.02-7.21-3.07c-1.63-2.05-2.45-4.79-2.45-8.22,0-2.23.34-4.2,1.03-5.89.68-1.7,1.74-3.02,3.17-3.97,1.43-.95,3.25-1.43,5.46-1.43,3.24,0,5.67,1.02,7.29,3.07,1.62,2.04,2.43,4.79,2.43,8.22s-.8,6.04-2.4,8.14Z"/><path class="cls-1" d="M282.95,50.42c-2.47,0-4.7.52-6.71,1.58-1.9.99-3.42,2.37-4.57,4.1-.91-1.64-2.18-2.98-3.83-3.99-1.86-1.13-4.17-1.69-6.93-1.69-2.51,0-4.78.53-6.8,1.59-1.56.82-2.86,1.87-3.92,3.15v-3.85h-7.29v35.44h8.32v-21.82c0-2.21.63-4,1.9-5.38,1.27-1.38,2.95-2.07,5.05-2.07s3.88.69,5.14,2.07c1.25,1.38,1.88,3.3,1.88,5.78v21.43h8.22v-21.82c0-1.55.31-2.89.92-4.02.62-1.13,1.45-1.98,2.5-2.56,1.05-.58,2.24-.87,3.56-.87,2.15,0,3.85.68,5.1,2.05,1.25,1.37,1.88,3.26,1.88,5.69v21.53h8.25v-23.53c0-3.83-1.09-6.92-3.27-9.27-2.18-2.35-5.31-3.53-9.4-3.53Z"/><path class="cls-1" d="M329.79,52.76c-2.57-1.63-5.6-2.44-9.09-2.44s-6.47.82-8.85,2.44c-.49.34-.94.71-1.39,1.1v-2.56h-7.29v51.19h8.32v-17.57c.15.11.29.24.45.35,2.44,1.64,5.47,2.46,9.07,2.46,3.4,0,6.37-.82,8.9-2.46s4.5-3.87,5.89-6.69c1.39-2.82,2.09-6,2.09-9.55s-.71-6.79-2.12-9.6c-1.42-2.81-3.41-5.03-5.98-6.66ZM328.15,74.91c-.67,1.76-1.71,3.16-3.1,4.18-1.39,1.03-3.16,1.54-5.31,1.54s-4-.49-5.36-1.46c-1.36-.97-2.35-2.33-2.98-4.08s-.94-3.77-.94-6.07.31-4.35.94-6.09c.63-1.74,1.6-3.1,2.93-4.07,1.32-.97,3.04-1.46,5.14-1.46,2.21,0,4.04.52,5.48,1.56,1.44,1.04,2.5,2.44,3.18,4.2.69,1.76,1.03,3.71,1.03,5.86s-.34,4.13-1.01,5.89Z"/><rect class="cls-1" x="344.47" y="38.51" width="8.25" height="48.24"/><rect class="cls-1" x="361.33" y="51.3" width="8.25" height="35.44"/><rect class="cls-1" x="361.33" y="38.67" width="8.25" height="7.25"/><path class="cls-1" d="M407.16,56.91c-1.21-2.34-3.06-4.03-5.56-5.05-2.5-1.03-5.39-1.54-8.68-1.54-4.36,0-7.82.91-10.39,2.72-2.57,1.82-4.31,4.22-5.22,7.22l7.53,2.26c.62-1.82,1.7-3.1,3.25-3.84,1.55-.74,3.16-1.12,4.83-1.12,2.76,0,4.73.58,5.89,1.74.97.96,1.52,2.38,1.67,4.23-1.49.21-2.95.41-4.35.61-2.34.32-4.51.66-6.51,1.03-2,.37-3.74.79-5.22,1.25-1.96.63-3.56,1.45-4.79,2.44-1.23,1-2.15,2.18-2.74,3.54-.59,1.37-.89,2.9-.89,4.61,0,1.95.47,3.73,1.42,5.35.95,1.62,2.35,2.92,4.2,3.89,1.85.97,4.11,1.46,6.78,1.46,3.33,0,6.11-.6,8.34-1.79,1.71-.92,3.26-2.24,4.64-3.97v4.77h7.23v-21.75c0-1.53-.07-2.95-.21-4.25-.14-1.3-.54-2.58-1.2-3.82ZM399.56,75.55c-.27.81-.8,1.67-1.59,2.59-.79.92-1.84,1.7-3.17,2.33-1.32.63-2.92.95-4.79.95-1.3,0-2.39-.2-3.27-.59s-1.55-.92-2-1.59c-.46-.67-.68-1.44-.68-2.31,0-.76.18-1.43.53-2,.35-.57.86-1.07,1.52-1.51s1.47-.82,2.43-1.15c.98-.31,2.11-.58,3.39-.84,1.28-.25,2.81-.52,4.59-.8,1.14-.18,2.43-.38,3.85-.6-.01.6-.04,1.28-.07,2.06-.06,1.3-.3,2.46-.74,3.46Z"/><path class="cls-1" d="M448.93,59.28c-.5-1.53-1.28-2.97-2.33-4.33-1.05-1.36-2.47-2.47-4.25-3.35-1.78-.87-4.04-1.31-6.78-1.31-3.47,0-6.39.73-8.77,2.18-1.28.78-2.38,1.72-3.32,2.8v-3.96h-7.36v35.44h8.36v-18.21c0-2.17.25-3.94.75-5.33.5-1.39,1.17-2.48,2-3.28.83-.8,1.76-1.36,2.79-1.69s2.07-.49,3.12-.49c1.96,0,3.52.41,4.67,1.21,1.15.81,2.02,1.84,2.6,3.1.58,1.26.95,2.57,1.11,3.92.16,1.36.24,2.59.24,3.71v17.06h8.36v-19.79c0-.85-.08-1.96-.22-3.33-.15-1.37-.47-2.82-.98-4.35Z"/><path class="cls-1" d="M468.45,59.19c1.39-.97,3.16-1.46,5.31-1.46,1.89,0,3.58.53,5.07,1.59,1.48,1.06,2.55,2.54,3.18,4.45l8.22-2.13c-.89-3.5-2.79-6.26-5.7-8.29-2.91-2.02-6.47-3.04-10.67-3.04-3.74,0-6.97.8-9.69,2.41-2.72,1.61-4.81,3.82-6.28,6.63-1.47,2.81-2.22,6.03-2.24,9.66.02,3.57.75,6.76,2.17,9.58s3.49,5.05,6.18,6.68c2.69,1.63,5.95,2.44,9.76,2.44,4.13,0,7.62-.97,10.48-2.9,2.85-1.94,4.85-4.71,5.99-8.32l-8.42-1.81c-.64,1.82-1.59,3.21-2.86,4.17s-3,1.44-5.19,1.44c-3.11,0-5.45-1.04-7.02-3.12-1.58-2.08-2.36-4.8-2.36-8.17,0-2.17.33-4.1.99-5.81.66-1.71,1.69-3.05,3.08-4.02Z"/><path class="cls-1" d="M521.4,52.89c-2.68-1.72-5.94-2.58-9.78-2.58-3.63,0-6.83.79-9.59,2.36-2.76,1.58-4.92,3.79-6.47,6.64-1.55,2.86-2.33,6.22-2.33,10.09,0,3.59.79,6.76,2.38,9.52s3.79,4.91,6.63,6.46c2.83,1.55,6.12,2.33,9.86,2.33s6.82-.89,9.78-2.66c2.96-1.77,5.14-4.25,6.56-7.45l-8.15-2.36c-.8,1.64-1.94,2.89-3.41,3.76-1.47.86-3.23,1.3-5.26,1.3-3.15,0-5.55-.98-7.19-2.95-1.29-1.54-2.06-3.59-2.34-6.14h26.76c.32-4.24-.17-7.93-1.47-11.06-1.3-3.13-3.29-5.55-5.98-7.27ZM511.97,57.24c2.99,0,5.18.89,6.57,2.66.99,1.26,1.62,3.05,1.92,5.35h-18.18c.38-2.05,1.09-3.72,2.14-5,1.64-2,4.16-3,7.53-3Z"/><polygon class="cls-1" points="557.3 48.28 550.83 48.28 550.83 60 538.57 60 538.57 66.2 550.83 66.2 550.83 77.95 557.3 77.95 557.3 66.2 569.49 66.2 569.49 60 557.3 60 557.3 48.28"/><path class="cls-1" d="M614.97,64.81c2.03-2.77,3.05-6.08,3.05-9.93,0-2.6-.45-4.97-1.35-7.1-.9-2.13-2.28-3.9-4.14-5.3-1.86-1.4-4.22-2.31-7.07-2.72-.64-.11-1.33-.18-2.09-.21-.75-.03-1.37-.05-1.85-.05h-20.38v47.25h8.25v-16.5h11.72l8.35,16.5h9.35l-9.11-17.91c2.21-.91,3.97-2.24,5.28-4.02ZM589.39,46.91h11.78c.46,0,.97.02,1.54.05.57.03,1.1.12,1.58.25,1.37.33,2.45.91,3.24,1.74.79.83,1.35,1.78,1.68,2.84.33,1.06.5,2.1.5,3.1s-.17,2.03-.5,3.08c-.33,1.05-.89,1.99-1.68,2.82-.79.83-1.87,1.41-3.24,1.74-.48.13-1,.22-1.58.26-.57.04-1.08.07-1.54.07h-11.78v-15.95Z"/><path class="cls-1" d="M649.68,52.89c-2.68-1.72-5.94-2.58-9.78-2.58-3.63,0-6.83.79-9.59,2.36-2.76,1.58-4.92,3.79-6.47,6.64-1.55,2.86-2.33,6.22-2.33,10.09,0,3.59.79,6.76,2.38,9.52s3.79,4.91,6.63,6.46c2.83,1.55,6.12,2.33,9.86,2.33s6.82-.89,9.78-2.66c2.96-1.77,5.14-4.25,6.56-7.45l-8.15-2.36c-.8,1.64-1.94,2.89-3.41,3.76-1.47.86-3.23,1.3-5.26,1.3-3.15,0-5.55-.98-7.19-2.95-1.29-1.54-2.06-3.59-2.34-6.14h26.76c.32-4.24-.17-7.93-1.47-11.06-1.3-3.13-3.29-5.55-5.98-7.27ZM640.24,57.24c2.99,0,5.18.89,6.57,2.66.99,1.26,1.62,3.05,1.92,5.35h-18.18c.38-2.05,1.09-3.72,2.14-5,1.64-2,4.16-3,7.53-3Z"/><path class="cls-1" d="M674.4,59.19c1.39-.97,3.16-1.46,5.31-1.46,1.89,0,3.58.53,5.07,1.59,1.48,1.06,2.55,2.54,3.18,4.45l8.22-2.13c-.89-3.5-2.79-6.26-5.7-8.29-2.91-2.02-6.47-3.04-10.67-3.04-3.74,0-6.97.8-9.69,2.41-2.72,1.61-4.81,3.82-6.28,6.63-1.47,2.81-2.22,6.03-2.24,9.66.02,3.57.75,6.76,2.17,9.58s3.49,5.05,6.18,6.68c2.69,1.63,5.95,2.44,9.76,2.44,4.13,0,7.62-.97,10.48-2.9,2.85-1.94,4.85-4.71,5.99-8.32l-8.42-1.81c-.64,1.82-1.59,3.21-2.86,4.17s-3,1.44-5.19,1.44c-3.11,0-5.45-1.04-7.02-3.12-1.58-2.08-2.36-4.8-2.36-8.17,0-2.17.33-4.1.99-5.81.66-1.71,1.69-3.05,3.08-4.02Z"/><path class="cls-1" d="M718.53,51.15c-1.16.08-2.3.28-3.41.62-1.11.34-2.12.8-3.03,1.39-1.07.63-1.99,1.44-2.76,2.41-.35.44-.66.91-.94,1.39v-5.67h-7.29v35.44h8.29v-18.01c0-1.36.17-2.62.51-3.79.34-1.17.87-2.21,1.59-3.13.72-.92,1.65-1.67,2.79-2.26,1.14-.66,2.43-1.04,3.85-1.15s2.69-.01,3.78.29v-7.38c-1.1-.17-2.23-.22-3.39-.15Z"/><path class="cls-1" d="M752.01,69.51c0,2.14-.25,3.92-.75,5.32-.5,1.4-1.17,2.5-2,3.3-.83.8-1.76,1.36-2.79,1.69s-2.07.49-3.12.49c-1.96,0-3.52-.4-4.67-1.21-1.15-.81-2.02-1.84-2.6-3.1s-.95-2.57-1.11-3.94c-.16-1.37-.24-2.6-.24-3.69v-17.06h-8.36v19.79c0,.85.07,1.96.22,3.33.15,1.37.47,2.82.98,4.35s1.28,2.98,2.33,4.33c1.05,1.36,2.46,2.47,4.25,3.35,1.78.87,4.04,1.31,6.78,1.31,3.47,0,6.39-.73,8.77-2.18,1.28-.78,2.38-1.72,3.32-2.8v3.96h7.29v-35.44h-8.29v18.21Z"/><rect class="cls-1" x="768.6" y="38.67" width="8.25" height="7.25"/><rect class="cls-1" x="768.6" y="51.3" width="8.25" height="35.44"/><path class="cls-1" d="M796.42,41.46h-8.22v9.84h-6.71v6.2h6.71v14.77c0,2.01.02,3.82.07,5.41.05,1.6.49,3.16,1.34,4.69.96,1.68,2.36,2.92,4.21,3.69,1.85.78,3.94,1.19,6.28,1.25s4.73-.14,7.17-.57v-6.63c-2.31.33-4.36.42-6.16.26-1.8-.15-3.12-.89-3.94-2.2-.43-.68-.67-1.55-.7-2.62-.03-1.07-.05-2.32-.05-3.74v-14.31h10.85v-6.2h-10.85v-9.84Z"/><path class="cls-1" d="M846.05,59.28c-.5-1.53-1.28-2.97-2.33-4.33-1.05-1.36-2.47-2.47-4.25-3.35-1.78-.87-4.04-1.31-6.78-1.31-3.47,0-6.39.73-8.77,2.18-1.28.78-2.38,1.72-3.32,2.8v-3.96h-7.36v35.44h8.36v-18.21c0-2.17.25-3.94.75-5.33.5-1.39,1.17-2.48,2-3.28.83-.8,1.76-1.36,2.79-1.69s2.07-.49,3.12-.49c1.96,0,3.52.41,4.67,1.21,1.15.81,2.02,1.84,2.6,3.1.58,1.26.95,2.57,1.11,3.92.16,1.36.24,2.59.24,3.71v17.06h8.36v-19.79c0-.85-.08-1.96-.22-3.33-.15-1.37-.47-2.82-.98-4.35Z"/><path class="cls-1" d="M880.32,51.3v2.56c-.44-.39-.89-.76-1.39-1.1-2.39-1.63-5.34-2.44-8.85-2.44s-6.53.82-9.11,2.44c-2.58,1.63-4.57,3.85-5.98,6.66-1.4,2.81-2.11,6.01-2.11,9.6s.7,6.73,2.09,9.55c1.39,2.82,3.36,5.05,5.89,6.69,2.53,1.64,5.5,2.46,8.9,2.46,3.61,0,6.63-.82,9.07-2.46.16-.11.29-.24.45-.35v3.4c.05,1.68-.3,3.09-1.04,4.22-.74,1.13-1.79,1.98-3.13,2.56-1.35.58-2.88.87-4.59.87-1.46,0-2.84-.31-4.13-.94-1.29-.62-2.29-1.58-3-2.87l-7.6,3.61c.96,1.62,2.19,3,3.7,4.15s3.2,2.03,5.08,2.64c1.88.61,3.85.92,5.91.92,2.78,0,5.32-.36,7.62-1.08,2.29-.72,4.22-1.82,5.77-3.3,1.55-1.48,2.6-3.36,3.15-5.66.18-.79.31-1.59.39-2.41s.12-1.68.12-2.58v-37.14h-7.23ZM876.4,79.18c-1.36.97-3.14,1.46-5.36,1.46s-3.92-.51-5.31-1.54c-1.39-1.03-2.43-2.42-3.1-4.18-.67-1.76-1.01-3.72-1.01-5.89s.34-4.1,1.03-5.86c.68-1.76,1.75-3.16,3.18-4.2s3.26-1.56,5.48-1.56c2.1,0,3.81.49,5.14,1.46,1.32.97,2.3,2.33,2.93,4.07.63,1.74.94,3.77.94,6.09s-.31,4.32-.94,6.07-1.62,3.11-2.98,4.08Z"/></g></svg>