<svg width="806" height="369" viewBox="0 0 806 369" fill="none" xmlns="http://www.w3.org/2000/svg">
<path d="M326.667 257.818V110.281C326.667 97.2267 319.756 85.1947 308.519 78.6531L181.482 4.88433C170.244 -1.62811 156.423 -1.62811 145.185 4.88433L18.1482 78.6531C6.91082 85.1655 0 97.2267 0 110.281V257.818C0 270.872 6.91082 282.904 18.1482 289.446L145.185 363.215C156.423 369.727 170.244 369.727 181.482 363.215L308.519 289.446C319.756 282.934 326.667 270.872 326.667 257.818Z" fill="#1A6AFF"/>
<path d="M163.159 240.732C160.197 240.732 157.264 239.973 154.622 238.454L120.358 218.566C115.102 215.529 111.821 209.834 111.821 203.731V163.955C111.821 157.852 115.073 152.157 120.329 149.12L154.593 129.232C159.848 126.195 166.382 126.195 171.637 129.232L205.901 149.12C211.157 152.186 214.438 157.852 214.438 163.955V203.731C214.438 209.834 211.186 215.529 205.901 218.566L171.637 238.454C168.995 239.973 166.062 240.732 163.101 240.732H163.159ZM163.159 141.498C162.723 141.498 162.287 141.614 161.881 141.848L127.617 161.736C126.833 162.203 126.34 163.021 126.34 163.926V203.702C126.34 204.607 126.833 205.454 127.588 205.892L161.852 225.78C162.636 226.247 163.594 226.247 164.378 225.78L198.642 205.892C199.426 205.425 199.92 204.607 199.92 203.702V163.926C199.92 163.021 199.426 162.174 198.642 161.736L164.378 141.848C164.001 141.614 163.565 141.498 163.101 141.498H163.159Z" fill="#34AFFF"/>
<path d="M163.361 170.876C158.221 170.876 153.082 169.737 148.262 167.459L89.2872 139.307C86.2964 137.876 84.38 134.868 84.3219 131.539C84.2638 128.209 86.0932 125.143 89.0259 123.595L147.594 92.9896C157.524 88.025 169.226 88.025 179.012 92.9312L237.725 123.624C240.657 125.172 242.487 128.239 242.429 131.568C242.371 134.897 240.454 137.905 237.463 139.336L178.518 167.488C173.727 169.766 168.587 170.934 163.419 170.934L163.361 170.876ZM112.575 131.013L155.724 151.602C160.573 153.909 166.119 153.909 170.968 151.602L214.089 131.013L171.085 108.526C166.294 106.131 160.399 106.131 155.463 108.584L112.604 130.984L112.575 131.013Z" fill="white"/>
<path d="M145.884 278.872C144.577 278.872 143.27 278.58 142.08 277.996L94.1685 254.604C82.1472 248.734 74.3652 236.235 74.3652 222.801V164.452C74.3652 161.473 75.8752 158.699 78.3433 157.093C80.8405 155.486 83.9475 155.253 86.6479 156.45L139.582 180.368C148.7 184.486 154.595 193.656 154.595 203.731V270.14C154.595 273.148 153.056 275.952 150.5 277.558C149.107 278.434 147.481 278.902 145.884 278.902V278.872ZM91.7875 177.973V222.772C91.7875 229.547 95.7075 235.855 101.776 238.805L137.172 256.093V203.673C137.172 200.489 135.314 197.598 132.439 196.313L91.7875 177.944V177.973Z" fill="white"/>
<path d="M180.783 278.814C179.186 278.814 177.56 278.375 176.166 277.47C173.611 275.864 172.072 273.06 172.072 270.052V203.643C172.072 193.568 177.967 184.427 187.084 180.28L239.99 156.362C242.69 155.136 245.797 155.369 248.295 157.005C250.763 158.611 252.273 161.385 252.273 164.364V222.713C252.273 236.176 244.491 248.646 232.469 254.545L184.558 277.937C183.339 278.521 182.061 278.814 180.754 278.814H180.783ZM234.879 177.914L194.228 196.284C191.353 197.598 189.495 200.489 189.495 203.643V256.064L224.891 238.775C230.959 235.796 234.879 229.518 234.879 222.713V177.914Z" fill="white"/>
<path d="M445.98 256.501V112.614H469.936V173.183H537.708V112.614H561.548V256.501H537.708V195.757H469.936V256.501H445.98Z" fill="black"/>
<path d="M625.516 259.6C617.56 259.6 610.997 258.257 605.829 255.599C600.66 252.942 596.566 249.525 593.517 245.407C590.468 241.26 588.203 236.88 586.752 232.207C585.3 227.535 584.341 223.125 583.935 218.978C583.499 214.802 583.296 211.443 583.296 208.844V148.597H607.542V200.55C607.542 203.879 607.774 207.618 608.239 211.794C608.704 215.97 609.778 219.942 611.462 223.796C613.146 227.622 615.672 230.776 619.012 233.229C622.351 235.682 626.881 236.938 632.572 236.938C635.621 236.938 638.641 236.442 641.603 235.449C644.593 234.456 647.294 232.733 649.704 230.309C652.114 227.885 654.059 224.527 655.511 220.263C656.963 215.999 657.689 210.596 657.689 204.084L671.888 210.187C671.888 219.387 670.117 227.71 666.574 235.157C663.032 242.604 657.805 248.561 650.923 253C644.042 257.439 635.563 259.659 625.487 259.659L625.516 259.6ZM660.593 256.505V223.037H657.718V148.597H681.761V256.534H660.593V256.505Z" fill="black"/>
<path d="M704.787 256.501V112.614H728.946V180.776H725.955V256.53H704.787V256.501ZM756.531 259.48C746.078 259.48 737.279 256.969 730.194 251.975C723.109 246.981 717.766 240.176 714.195 231.532C710.623 222.917 708.823 213.221 708.823 202.503C708.823 191.786 710.623 181.915 714.195 173.329C717.766 164.743 723.022 157.968 729.933 153.003C736.844 148.038 745.41 145.556 755.631 145.556C765.852 145.556 774.563 148.038 781.996 153.003C789.459 157.968 795.237 164.743 799.332 173.3C803.426 181.856 805.487 191.61 805.487 202.533C805.487 213.455 803.455 223.005 799.419 231.62C795.382 240.206 789.691 247.01 782.316 252.004C774.94 256.998 766.345 259.509 756.473 259.509L756.531 259.48ZM752.872 237.898C759.086 237.898 764.226 236.321 768.262 233.197C772.298 230.072 775.289 225.808 777.263 220.464C779.209 215.09 780.196 209.133 780.196 202.533C780.196 195.933 779.209 190.063 777.205 184.689C775.231 179.316 772.124 175.052 767.972 171.898C763.79 168.744 758.505 167.138 752.059 167.138C745.961 167.138 740.996 168.627 737.163 171.577C733.33 174.526 730.485 178.673 728.655 183.959C726.826 189.245 725.926 195.436 725.926 202.503C725.926 209.571 726.826 215.645 728.655 220.989C730.485 226.334 733.359 230.481 737.308 233.43C741.257 236.409 746.426 237.869 752.872 237.869V237.898Z" fill="black"/>
</svg>
