<svg width="1659" height="412" viewBox="0 0 1659 412" fill="none" xmlns="http://www.w3.org/2000/svg">
<path d="M448.641 147.93V5.19043H472.538V147.901H448.641V147.93Z" fill="black"/>
<path d="M496.201 147.929V40.8747H517.52V74.0686H520.387V147.901H496.201V147.929ZM570.439 147.929V96.4007C570.439 93.0407 570.207 89.3042 569.744 85.1912C569.28 81.1071 568.209 77.1389 566.529 73.3445C564.849 69.5501 562.329 66.4218 558.998 63.9888C555.667 61.5557 551.148 60.3102 545.471 60.3102C542.43 60.3102 539.417 60.8026 536.463 61.7874C533.479 62.7722 530.786 64.4812 528.382 66.8853C525.977 69.2894 524.037 72.5914 522.589 76.7913C521.14 80.9913 520.416 86.3498 520.416 92.8959L506.252 86.8422C506.252 77.7182 508.019 69.4632 511.553 62.0771C515.087 54.691 520.3 48.7821 527.165 44.3794C534.03 39.9767 542.488 37.7754 552.538 37.7754C560.475 37.7754 567.021 39.1078 572.177 41.7436C577.333 44.3794 581.417 47.7683 584.458 51.8524C587.499 55.9654 589.73 60.3102 591.207 64.9446C592.655 69.579 593.611 73.9527 594.045 78.0658C594.48 82.2078 594.683 85.5388 594.683 88.1167V147.872H570.497L570.439 147.929Z" fill="black"/>
<path d="M640.011 147.929L601.169 40.874H625.065L652.032 118.471L678.882 40.874H702.865L664.023 147.929H640.04H640.011Z" fill="black"/>
<path d="M761.261 150.888C750.428 150.888 740.899 148.541 732.731 143.849C724.534 139.157 718.132 132.64 713.556 124.327C708.979 115.985 706.662 106.426 706.662 95.5933C706.662 83.8914 708.921 73.7536 713.411 65.122C717.901 56.4904 724.157 49.7995 732.151 45.0492C740.146 40.299 749.386 37.9238 759.9 37.9238C770.994 37.9238 780.436 40.5307 788.199 45.7154C795.961 50.9002 801.725 58.2283 805.491 67.6709C809.256 77.1135 810.676 88.2651 809.749 101.068H786.055V92.3492C785.997 80.7052 783.941 72.2185 779.915 66.8889C775.889 61.5593 769.545 58.8656 760.885 58.8656C751.095 58.8656 743.824 61.8779 739.074 67.9316C734.324 73.9853 731.949 82.8197 731.949 94.4346C731.949 105.268 734.324 113.667 739.074 119.605C743.824 125.543 750.776 128.527 759.9 128.527C765.78 128.527 770.849 127.223 775.107 124.616C779.364 122.009 782.666 118.215 784.955 113.262L808.532 120.387C804.419 130.033 798.105 137.535 789.56 142.893C780.986 148.252 771.573 150.917 761.261 150.917V150.888ZM724.389 101.039V82.9935H798.018V101.039H724.389Z" fill="black"/>
<path d="M827.272 147.929V40.8747H848.591V74.0686H851.458V147.901H827.272V147.929ZM901.51 147.929V96.4007C901.51 93.0407 901.278 89.3042 900.815 85.1912C900.351 81.1071 899.279 77.1389 897.599 73.3445C895.919 69.5501 893.4 66.4218 890.069 63.9888C886.738 61.5557 882.219 60.3102 876.542 60.3102C873.5 60.3102 870.488 60.8026 867.534 61.7874C864.55 62.7722 861.857 64.4812 859.452 66.8853C857.048 69.2894 855.108 72.5914 853.659 76.7913C852.211 80.9913 851.487 86.3498 851.487 92.8959L837.323 86.8422C837.323 77.7182 839.09 69.4632 842.624 62.0771C846.157 54.691 851.371 48.7821 858.236 44.3794C865.101 39.9767 873.558 37.7754 883.609 37.7754C891.546 37.7754 898.092 39.1078 903.248 41.7436C908.403 44.3794 912.487 47.7683 915.529 51.8524C918.57 55.9654 920.8 60.3102 922.278 64.9446C923.726 69.579 924.682 73.9527 925.116 78.0658C925.551 82.2078 925.753 85.5388 925.753 88.1167V147.872H901.568L901.51 147.929Z" fill="black"/>
<path d="M931.227 59.6148V40.8744H1005.87V59.6148H931.227ZM1005.87 147.929C998.802 149.262 991.879 149.841 985.102 149.667C978.324 149.493 972.27 148.248 966.912 145.902C961.553 143.556 957.498 139.848 954.717 134.75C952.284 130.116 950.981 125.394 950.865 120.586C950.72 115.749 950.662 110.304 950.662 104.221V11.1562H974.442V102.831C974.442 107.117 974.5 110.883 974.587 114.127C974.674 117.371 975.369 120.007 976.615 122.063C978.99 126.032 982.784 128.233 987.998 128.696C993.212 129.16 999.179 128.899 1005.84 127.914V147.929H1005.87Z" fill="black"/>
<path d="M1066.61 150.888C1055.89 150.888 1046.56 148.483 1038.57 143.646C1030.58 138.809 1024.38 132.176 1019.97 123.689C1015.57 115.203 1013.37 105.441 1013.37 94.4057C1013.37 83.37 1015.63 73.3191 1020.12 64.8613C1024.61 56.4035 1030.87 49.7995 1038.86 45.0492C1046.85 40.299 1056.09 37.9238 1066.61 37.9238C1077.12 37.9238 1086.77 40.3279 1094.76 45.1651C1102.76 50.0023 1108.96 56.6353 1113.39 65.151C1117.82 73.6377 1120.02 83.399 1120.02 94.4346C1120.02 105.47 1117.79 115.318 1113.33 123.805C1108.87 132.292 1102.64 138.925 1094.65 143.733C1086.65 148.512 1077.3 150.917 1066.61 150.917V150.888ZM1066.61 128.498C1076.14 128.498 1083.21 125.34 1087.81 118.968C1092.45 112.625 1094.76 104.428 1094.76 94.4057C1094.76 84.3838 1092.42 75.7522 1087.72 69.5826C1083.03 63.4131 1075.99 60.3138 1066.61 60.3138C1060.21 60.3138 1054.94 61.7621 1050.79 64.6296C1046.65 67.4971 1043.61 71.4943 1041.61 76.6211C1039.64 81.748 1038.63 87.6568 1038.63 94.4057C1038.63 104.775 1041 113.059 1045.72 119.229C1050.45 125.398 1057.4 128.498 1066.58 128.498H1066.61Z" fill="black"/>
<path d="M1137.75 147.931V40.8757H1158.86V66.9443L1156.28 63.5843C1157.62 60.0216 1159.38 56.7486 1161.59 53.8231C1163.79 50.8976 1166.45 48.4646 1169.55 46.5529C1172.19 44.7571 1175.11 43.3667 1178.33 42.353C1181.54 41.3392 1184.82 40.7019 1188.2 40.4702C1191.56 40.2385 1194.84 40.3833 1198.02 40.9047V63.2078C1194.84 62.2809 1191.19 61.9913 1187.07 62.3099C1182.93 62.6575 1179.22 63.7871 1175.92 65.7857C1172.62 67.5815 1169.93 69.8408 1167.84 72.6214C1165.76 75.4021 1164.22 78.5593 1163.24 82.093C1162.25 85.6267 1161.76 89.4501 1161.76 93.5342V147.96H1137.78L1137.75 147.931Z" fill="black"/>
<path d="M1231.25 195.49L1251.87 138.892L1252.28 155.547L1205.58 40.874H1230.47L1263.57 125.713H1257.23L1289.44 40.874H1313.33L1253.67 195.49H1231.28H1231.25Z" fill="black"/>
<path d="M446.642 356.48V213.77H468.135L517.491 314.858L566.847 213.77H588.34V356.48H566.036V265.009L522.241 356.48H512.712L469.004 265.009V356.48H446.614H446.642Z" fill="black"/>
<path d="M641.46 359.431C633.726 359.431 627.18 357.954 621.822 355.028C616.463 352.103 612.408 348.164 609.685 343.298C606.934 338.403 605.572 333.015 605.572 327.135C605.572 321.979 606.441 317.345 608.15 313.203C609.859 309.061 612.524 305.498 616.087 302.486C619.649 299.473 624.284 297.011 629.961 295.1C634.248 293.709 639.288 292.464 645.081 291.334C650.874 290.205 657.13 289.162 663.908 288.206C670.686 287.25 677.782 286.207 685.168 285.078L676.652 289.944C676.71 282.558 675.059 277.083 671.699 273.608C668.339 270.103 662.633 268.365 654.639 268.365C649.802 268.365 645.167 269.495 640.649 271.725C636.159 273.984 633.031 277.837 631.235 283.311L609.425 276.475C612.06 267.438 617.1 260.168 624.544 254.665C631.988 249.19 642.01 246.438 654.639 246.438C664.169 246.438 672.539 248.003 679.752 251.102C686.964 254.201 692.352 259.299 695.856 266.366C697.768 270.132 698.927 273.984 699.332 277.923C699.738 281.863 699.94 286.121 699.94 290.755V356.477H679.028V333.276L682.503 337.041C677.666 344.775 672.047 350.452 665.617 354.044C659.187 357.635 651.134 359.46 641.489 359.46L641.46 359.431ZM646.21 340.401C651.627 340.401 656.261 339.445 660.084 337.534C663.908 335.622 666.978 333.276 669.266 330.495C671.555 327.714 673.09 325.108 673.872 322.675C675.117 319.633 675.841 316.157 676.015 312.218C676.189 308.279 676.247 305.093 676.247 302.66L683.575 304.832C676.363 305.962 670.193 306.946 665.038 307.815C659.882 308.684 655.45 309.495 651.772 310.248C648.064 311.002 644.791 311.842 641.952 312.768C639.172 313.753 636.826 314.912 634.914 316.244C633.002 317.577 631.525 319.083 630.511 320.792C629.497 322.501 628.976 324.528 628.976 326.845C628.976 329.481 629.642 331.827 630.946 333.826C632.249 335.825 634.19 337.447 636.739 338.634C639.288 339.822 642.445 340.43 646.21 340.43V340.401Z" fill="black"/>
<path d="M721.811 356.478V249.423H743.129V282.617H745.996V356.449H721.811V356.478ZM796.048 356.478V304.949C796.048 301.59 795.816 297.853 795.353 293.74C794.889 289.656 793.818 285.688 792.138 281.893C790.458 278.099 787.938 274.971 784.607 272.538C781.276 270.105 776.757 268.859 771.08 268.859C768.039 268.859 765.026 269.351 762.072 270.336C759.089 271.321 756.395 273.03 753.991 275.434C751.587 277.838 749.646 281.14 748.198 285.34C746.749 289.54 746.025 294.899 746.025 301.445L731.861 295.391C731.861 286.267 733.628 278.012 737.162 270.626C740.696 263.24 745.91 257.331 752.774 252.928C759.639 248.526 768.097 246.324 778.148 246.324C786.084 246.324 792.63 247.657 797.786 250.292C802.942 252.928 807.026 256.288 810.067 260.401C813.108 264.485 815.339 268.859 816.816 273.493C818.264 278.128 819.22 282.502 819.655 286.644C820.089 290.786 820.292 294.117 820.292 296.694V356.449H796.106L796.048 356.478Z" fill="black"/>
<path d="M871.646 359.431C863.913 359.431 857.366 357.954 852.008 355.028C846.649 352.103 842.594 348.164 839.872 343.298C837.12 338.403 835.759 333.015 835.759 327.135C835.759 321.979 836.627 317.345 838.336 313.203C840.045 309.061 842.71 305.498 846.273 302.486C849.836 299.473 854.47 297.011 860.147 295.1C864.434 293.709 869.474 292.464 875.267 291.334C881.06 290.205 887.316 289.162 894.094 288.206C900.872 287.25 907.968 286.207 915.354 285.078L906.839 289.944C906.897 282.558 905.246 277.083 901.886 273.608C898.526 270.103 892.82 268.365 884.825 268.365C879.988 268.365 875.354 269.495 870.835 271.725C866.346 273.984 863.217 277.837 861.422 283.311L839.611 276.475C842.247 267.438 847.287 260.168 854.731 254.665C862.175 249.19 872.197 246.438 884.825 246.438C894.355 246.438 902.726 248.003 909.938 251.102C917.15 254.201 922.538 259.299 926.043 266.366C927.954 270.132 929.113 273.984 929.518 277.923C929.924 281.863 930.127 286.121 930.127 290.755V356.477H909.214V333.276L912.69 337.041C907.853 344.775 902.233 350.452 895.803 354.044C889.373 357.635 881.321 359.46 871.675 359.46L871.646 359.431ZM876.397 340.401C881.813 340.401 886.447 339.445 890.271 337.534C894.094 335.622 897.164 333.276 899.453 330.495C901.741 327.714 903.276 325.108 904.058 322.675C905.304 319.633 906.028 316.157 906.201 312.218C906.375 308.279 906.433 305.093 906.433 302.66L913.761 304.832C906.549 305.962 900.38 306.946 895.224 307.815C890.068 308.684 885.636 309.495 881.958 310.248C878.25 311.002 874.977 311.842 872.139 312.768C869.358 313.753 867.012 314.912 865.1 316.244C863.188 317.577 861.711 319.083 860.697 320.792C859.684 322.501 859.162 324.528 859.162 326.845C859.162 329.481 859.828 331.827 861.132 333.826C862.435 335.825 864.376 337.447 866.925 338.634C869.474 339.822 872.631 340.43 876.397 340.43V340.401Z" fill="black"/>
<path d="M995.789 359.436C985.941 359.436 977.338 356.945 970.01 351.992C962.682 347.039 957.005 340.29 952.979 331.774C948.953 323.258 946.925 313.642 946.925 302.925C946.925 292.208 948.953 282.418 953.008 273.931C957.063 265.444 962.827 258.724 970.3 253.8C977.773 248.876 986.549 246.414 996.658 246.414C1006.77 246.414 1015.37 248.876 1022.29 253.8C1029.19 258.724 1034.43 265.444 1037.99 273.96C1041.55 282.476 1043.35 292.121 1043.35 302.896C1043.35 313.671 1041.55 323.143 1037.99 331.687C1034.43 340.261 1029.1 347.01 1022.03 351.963C1014.96 356.916 1006.22 359.407 995.76 359.407L995.789 359.436ZM997.846 407.025C991.908 407.025 986.202 406.098 980.756 404.245C975.311 402.391 970.387 399.726 966.042 396.25C961.668 392.775 958.106 388.604 955.325 383.708L977.338 372.818C979.395 376.728 982.291 379.595 985.999 381.478C989.707 383.361 993.704 384.288 997.933 384.288C1002.89 384.288 1007.32 383.419 1011.2 381.652C1015.11 379.885 1018.12 377.336 1020.26 373.918C1022.41 370.529 1023.42 366.271 1023.28 361.174V330.76H1026.26V249.397H1047.17V361.579C1047.17 364.302 1047.06 366.88 1046.83 369.371C1046.59 371.862 1046.22 374.266 1045.7 376.641C1044.1 383.593 1041.06 389.27 1036.57 393.73C1032.08 398.191 1026.52 401.522 1019.86 403.694C1013.23 405.867 1005.87 406.967 997.817 406.967L997.846 407.025ZM999.439 338.031C1005.84 338.031 1011.02 336.553 1014.96 333.628C1018.9 330.673 1021.77 326.56 1023.6 321.289C1025.42 315.988 1026.32 309.876 1026.32 302.954C1026.32 296.031 1025.42 289.804 1023.6 284.561C1021.77 279.318 1018.96 275.205 1015.11 272.28C1011.29 269.354 1006.33 267.877 1000.25 267.877C993.848 267.877 988.548 269.441 984.406 272.57C980.264 275.698 977.165 279.927 975.195 285.256C973.225 290.586 972.212 296.466 972.212 302.954C972.212 309.442 973.196 315.409 975.137 320.738C977.078 326.068 980.09 330.268 984.116 333.367C988.142 336.466 993.269 338.031 999.468 338.031H999.439Z" fill="black"/>
<path d="M1119.88 359.432C1109.04 359.432 1099.51 357.086 1091.35 352.394C1083.15 347.702 1076.75 341.184 1072.17 332.872C1067.59 324.53 1065.28 314.971 1065.28 304.138C1065.28 292.436 1067.54 282.299 1072.03 273.667C1076.52 265.035 1082.77 258.344 1090.77 253.594C1098.76 248.844 1108 246.469 1118.51 246.469C1129.61 246.469 1139.05 249.076 1146.81 254.26C1154.58 259.445 1160.34 266.773 1164.11 276.216C1167.87 285.658 1169.29 296.81 1168.36 309.613H1144.67V300.894C1144.61 289.25 1142.56 280.763 1138.53 275.434C1134.5 270.104 1128.16 267.41 1119.5 267.41C1109.71 267.41 1102.44 270.423 1097.69 276.477C1092.94 282.53 1090.56 291.365 1090.56 302.98C1090.56 313.813 1092.94 322.212 1097.69 328.15C1102.44 334.088 1109.39 337.071 1118.51 337.071C1124.39 337.071 1129.46 335.768 1133.72 333.161C1137.98 330.554 1141.28 326.76 1143.57 321.807L1167.15 328.932C1163.03 338.578 1156.72 346.08 1148.17 351.438C1139.6 356.797 1130.19 359.461 1119.88 359.461V359.432ZM1083 309.584V291.538H1156.63V309.584H1083Z" fill="black"/>
<path d="M1185.86 356.48V249.425H1206.97V282.619H1209.96V356.451H1185.86V356.48ZM1250.39 356.48V291.772C1250.39 284.299 1248.57 278.477 1244.95 274.335C1241.33 270.193 1236.34 268.108 1230.09 268.108C1223.83 268.108 1219.14 270.193 1215.46 274.335C1211.78 278.506 1209.96 283.923 1209.96 290.585L1199.24 283.459C1199.24 276.536 1200.95 270.28 1204.4 264.719C1207.84 259.157 1212.48 254.784 1218.33 251.598C1224.18 248.382 1230.73 246.789 1238 246.789C1245.99 246.789 1252.68 248.498 1258.07 251.887C1263.46 255.305 1267.48 259.911 1270.15 265.761C1272.81 271.612 1274.17 278.188 1274.17 285.545V356.509H1250.39V356.48ZM1314.61 356.48V291.454C1314.61 284.125 1312.78 278.39 1309.16 274.248C1305.54 270.106 1300.59 268.05 1294.39 268.05C1290.57 268.05 1287.12 268.919 1284.08 270.686C1281.04 272.423 1278.63 275.001 1276.84 278.419C1275.04 281.837 1274.17 285.863 1274.17 290.556L1263.57 284.299C1263.51 276.913 1265.16 270.367 1268.58 264.719C1271.97 259.071 1276.61 254.668 1282.4 251.482C1288.22 248.296 1294.68 246.731 1301.83 246.731C1313.65 246.731 1322.72 250.294 1329.03 257.391C1335.35 264.487 1338.5 273.843 1338.5 285.4V356.451H1314.61V356.48Z" fill="black"/>
<path d="M1409.82 359.432C1398.98 359.432 1389.46 357.086 1381.29 352.394C1373.09 347.702 1366.69 341.184 1362.11 332.872C1357.54 324.53 1355.22 314.971 1355.22 304.138C1355.22 292.436 1357.48 282.299 1361.97 273.667C1366.46 265.035 1372.71 258.344 1380.71 253.594C1388.7 248.844 1397.94 246.469 1408.46 246.469C1419.55 246.469 1428.99 249.076 1436.76 254.26C1444.52 259.445 1450.28 266.773 1454.05 276.216C1457.81 285.658 1459.23 296.81 1458.31 309.613H1434.61V300.894C1434.55 289.25 1432.5 280.763 1428.47 275.434C1424.45 270.104 1418.1 267.41 1409.44 267.41C1399.65 267.41 1392.38 270.423 1387.63 276.477C1382.88 282.53 1380.51 291.365 1380.51 302.98C1380.51 313.813 1382.88 322.212 1387.63 328.15C1392.38 334.088 1399.33 337.071 1408.46 337.071C1414.34 337.071 1419.41 335.768 1423.66 333.161C1427.92 330.554 1431.22 326.76 1433.51 321.807L1457.09 328.932C1452.98 338.578 1446.66 346.08 1438.12 351.438C1429.54 356.797 1420.13 359.461 1409.82 359.461V359.432ZM1372.95 309.584V291.538H1446.57V309.584H1372.95Z" fill="black"/>
<path d="M1475.8 356.478V249.423H1497.12V282.617H1499.98V356.449H1475.8V356.478ZM1550.04 356.478V304.949C1550.04 301.59 1549.8 297.853 1549.34 293.74C1548.88 289.656 1547.8 285.688 1546.12 281.893C1544.44 278.099 1541.93 274.971 1538.59 272.538C1535.26 270.105 1530.74 268.859 1525.07 268.859C1522.03 268.859 1519.01 269.351 1516.06 270.336C1513.08 271.321 1510.38 273.03 1507.98 275.434C1505.57 277.838 1503.63 281.14 1502.18 285.34C1500.74 289.54 1500.01 294.899 1500.01 301.445L1485.85 295.391C1485.85 286.267 1487.62 278.012 1491.15 270.626C1494.68 263.24 1499.9 257.331 1506.76 252.928C1513.63 248.526 1522.08 246.324 1532.13 246.324C1540.07 246.324 1546.62 247.657 1551.77 250.292C1556.93 252.928 1561.01 256.288 1564.05 260.401C1567.1 264.485 1569.33 268.859 1570.8 273.493C1572.25 278.128 1573.21 282.502 1573.64 286.644C1574.08 290.786 1574.28 294.117 1574.28 296.694V356.449H1550.09L1550.04 356.478Z" fill="black"/>
<path d="M1579.78 268.164V249.423H1654.43V268.164H1579.78ZM1654.43 356.478C1647.36 357.81 1640.44 358.39 1633.66 358.216C1626.88 358.042 1620.83 356.797 1615.47 354.451C1610.11 352.104 1606.06 348.397 1603.28 343.299C1600.84 338.665 1599.54 333.943 1599.42 329.135C1599.28 324.298 1599.22 318.852 1599.22 312.77V219.705H1623V311.379C1623 315.666 1623.06 319.432 1623.15 322.676C1623.23 325.92 1623.93 328.556 1625.17 330.612C1627.55 334.58 1631.34 336.782 1636.56 337.245C1641.77 337.709 1647.74 337.448 1654.4 336.463V356.478H1654.43Z" fill="black"/>
<path d="M325.857 255.711V109.379C325.857 96.4319 318.963 84.4983 307.754 78.0101L181.032 4.84441C169.822 -1.6148 156.035 -1.6148 144.825 4.84441L18.1032 78.0101C6.89368 84.4693 0 96.4319 0 109.379V255.711C0 268.658 6.89368 280.592 18.1032 287.08L144.825 360.246C156.035 366.705 169.822 366.705 181.032 360.246L307.754 287.08C318.963 280.621 325.857 268.658 325.857 255.711Z" fill="#1A6AFF"/>
<path d="M247.015 227.297C247.015 231.468 244.785 235.349 241.193 237.406L168.78 279.231C166.956 280.274 165.797 282.244 165.797 284.358C165.797 288.21 162.698 291.339 158.845 291.339C157.716 291.339 156.586 291.049 155.572 290.499C144.363 284.445 121.104 271.266 120.843 271.121L83.8837 249.745C83.0727 249.252 82.3776 248.731 81.7983 248.152C81.5665 247.92 81.3348 247.659 81.1321 247.428L81.0162 247.283L80.7845 246.993L80.5238 246.588L80.2631 246.211L80.2052 246.124V246.037C79.2493 244.473 78.7859 242.764 78.7859 240.968V227.326C78.8149 223.271 82.1169 219.969 86.172 219.969C87.4464 219.969 88.6919 220.316 89.8216 220.954L159.975 261.476C160.873 261.968 161.887 262.258 162.9 262.258C163.914 262.258 164.957 261.968 165.826 261.476L236.008 220.954C237.138 220.287 238.383 219.969 239.687 219.969C243.742 219.969 247.015 223.242 247.015 227.297Z" fill="#34AFFF"/>
<path d="M247.044 182.485C247.044 186.105 245.074 189.465 241.975 191.261L167.998 233.956C166.665 234.738 165.825 236.186 165.825 237.75C165.825 241.892 162.466 245.252 158.324 245.252C157.107 245.252 155.862 244.933 154.761 244.354C143.32 238.126 121.103 225.556 120.872 225.411L83.8544 204.064C80.7551 202.239 78.8145 198.85 78.8145 195.258V178.922C78.8145 175.736 81.3923 173.129 84.6075 173.129C85.6212 173.129 86.6061 173.419 87.504 173.911L160.786 216.2C161.423 216.576 162.176 216.779 162.929 216.779C163.682 216.779 164.406 216.576 165.072 216.2L235.255 175.707C236.471 175.012 237.804 174.635 239.165 174.635C243.51 174.635 247.044 178.169 247.044 182.485Z" fill="white"/>
<path d="M245.683 127.306C245.48 126.988 245.277 126.698 245.104 126.408L245.046 126.322L244.959 126.206C244.669 125.829 244.38 125.568 244.061 125.25C243.424 124.584 242.757 124.062 241.975 123.628L167.999 80.9043C166.464 80.0064 164.726 79.543 162.93 79.543C161.134 79.543 159.425 80.0064 157.89 80.8754L83.8842 123.628C83.1021 124.062 82.4069 124.584 81.8276 125.221C81.4511 125.539 81.1614 125.916 80.9297 126.235C80.4084 126.843 79.9449 127.654 79.5973 128.523C79.076 129.797 78.8442 131.101 78.8442 132.404V149.552C78.8442 151.318 79.3077 153.056 80.1766 154.62C80.3794 154.968 80.6401 155.373 80.9297 155.75V155.808L81.0166 155.866L81.1325 156.011C81.3642 156.271 81.5959 156.532 81.8566 156.764C82.4649 157.372 83.1311 157.893 83.8842 158.328C84.4345 158.618 136.253 188.249 154.878 198.531C155.978 199.14 157.224 199.458 158.44 199.458C162.524 199.458 165.855 196.127 165.855 192.043C165.855 190.479 166.695 189.031 168.028 188.249L242.004 145.554C244.901 143.903 246.784 140.92 247.015 137.589C247.044 137.299 247.073 137.068 247.073 136.778V132.404C247.073 130.608 246.581 128.842 245.683 127.306ZM159.888 99.1813L159.975 102.831C160.033 106.336 161.974 109.609 165.015 111.376L213.532 139.414C214.69 140.08 215.965 140.514 217.297 140.688L162.959 171.739L98.4825 134.403C99.0618 134.2 99.6412 133.939 100.191 133.621L159.888 99.1813Z" fill="white"/>
</svg>
