<svg width="1382" height="369" viewBox="0 0 1382 369" fill="none" xmlns="http://www.w3.org/2000/svg">
<path d="M325.942 255.777V109.408C325.942 96.457 319.046 84.5203 307.834 78.0305L181.079 4.84567C169.866 -1.61522 156.075 -1.61522 144.863 4.84567L18.1079 78.0305C6.89548 84.4914 0 96.457 0 109.408V255.777C0 268.728 6.89548 280.665 18.1079 287.155L144.863 360.34C156.075 366.8 169.866 366.8 181.079 360.34L307.834 287.155C319.046 280.694 325.942 268.728 325.942 255.777Z" fill="#2CC3F2"/>
<path d="M446.961 254.474V111.726H470.864V254.474H446.961Z" fill="black"/>
<path d="M494.563 254.472V147.389H515.888V180.591H518.756V254.443H494.563V254.472ZM568.821 254.472V202.929C568.821 199.568 568.589 195.831 568.125 191.717C567.662 187.632 566.589 183.663 564.909 179.867C563.229 176.072 560.708 172.943 557.377 170.509C554.045 168.075 549.525 166.829 543.846 166.829C540.804 166.829 537.791 167.322 534.836 168.307C531.852 169.292 529.157 171.001 526.752 173.406C524.348 175.811 522.406 179.114 520.958 183.315C519.509 187.516 518.785 192.876 518.785 199.424L504.618 193.368C504.618 184.242 506.384 175.985 509.919 168.568C513.454 161.18 518.669 155.269 525.536 150.866C532.402 146.462 540.862 144.26 550.916 144.26C558.854 144.26 565.402 145.593 570.559 148.229C575.716 150.866 579.801 154.255 582.844 158.34C585.886 162.455 588.116 166.8 589.594 171.436C591.071 176.072 591.998 180.447 592.433 184.561C592.868 188.704 593.07 192.036 593.07 194.614V254.385H568.879L568.821 254.472Z" fill="black"/>
<path d="M672.599 147.39H603.47V166.135H672.599V147.39Z" fill="black"/>
<path d="M620.739 254.471V145.708C620.739 142.985 620.826 140 621.029 136.726C621.232 133.453 621.782 130.208 622.709 126.963C623.636 123.718 625.317 120.792 627.78 118.126C630.822 114.765 634.095 112.418 637.659 111.144C641.194 109.869 644.67 109.116 648.118 108.971C651.565 108.797 654.55 108.71 657.128 108.71H670.514V128.151H658.114C653.565 128.151 650.175 129.281 647.944 131.569C645.742 133.858 644.612 136.842 644.612 140.551V254.471H620.71H620.739Z" fill="black"/>
<path d="M714.175 108.71H690.273V254.442H714.175V108.71Z" fill="black"/>
<path d="M778.146 257.544C770.208 257.544 763.66 256.211 758.503 253.575C753.346 250.938 749.261 247.548 746.218 243.463C743.176 239.349 740.916 235.003 739.468 230.368C738.019 225.732 737.063 221.357 736.657 217.243C736.223 213.1 736.02 209.768 736.02 207.189V147.419H760.212V198.961C760.212 202.264 760.444 205.973 760.908 210.116C761.371 214.259 762.443 218.199 764.123 222.023C765.804 225.819 768.325 228.948 771.656 231.382C774.988 233.815 779.508 235.061 785.186 235.061C788.229 235.061 791.242 234.569 794.197 233.583C797.181 232.598 799.876 230.889 802.281 228.484C804.685 226.08 806.627 222.748 808.075 218.518C809.524 214.288 810.248 208.928 810.248 202.467L824.415 208.522C824.415 217.649 822.648 225.906 819.113 233.294C815.579 240.682 810.364 246.592 803.497 250.996C796.631 255.4 788.171 257.602 778.117 257.602L778.146 257.544ZM813.145 254.473V221.27H810.277V147.419H834.266V254.502H813.145V254.473Z" fill="black"/>
<path d="M906.931 257.427C896.095 257.427 886.563 255.08 878.393 250.386C870.194 245.693 863.791 239.174 859.213 230.859C854.635 222.515 852.318 212.954 852.318 202.118C852.318 190.413 854.577 180.244 859.068 171.639C863.559 163.005 869.817 156.312 877.813 151.561C885.81 146.809 895.052 144.434 905.569 144.434C916.666 144.434 926.111 147.041 933.875 152.227C941.64 157.413 947.406 164.743 951.172 174.188C954.938 183.634 956.358 194.788 955.431 207.594H931.732V198.873C931.674 187.255 929.616 178.737 925.589 173.406C921.562 168.075 915.217 165.381 906.554 165.381C896.762 165.381 889.49 168.394 884.738 174.449C879.987 180.504 877.611 189.341 877.611 200.959C877.611 211.795 879.987 220.197 884.738 226.136C889.49 232.076 896.443 235.06 905.569 235.06C911.451 235.06 916.521 233.756 920.78 231.149C925.039 228.541 928.341 224.746 930.63 219.791L954.214 226.919C950.1 236.566 943.784 244.07 935.237 249.43C926.661 254.79 917.245 257.456 906.931 257.456V257.427ZM870.049 207.565V189.515H943.697V207.565H870.049Z" fill="black"/>
<path d="M972.959 254.472V147.389H994.283V180.591H997.152V254.443H972.959V254.472ZM1047.22 254.472V202.929C1047.22 199.568 1046.98 195.831 1046.52 191.717C1046.06 187.632 1044.99 183.663 1043.3 179.867C1041.62 176.072 1039.1 172.943 1035.77 170.509C1032.44 168.075 1027.92 166.829 1022.24 166.829C1019.2 166.829 1016.19 167.322 1013.23 168.307C1010.25 169.292 1007.55 171.001 1005.15 173.406C1002.74 175.811 1000.8 179.114 999.353 183.315C997.905 187.516 997.181 192.876 997.181 199.424L983.013 193.368C983.013 184.242 984.78 175.985 988.315 168.568C991.849 161.18 997.064 155.269 1003.93 150.866C1010.8 146.462 1019.26 144.26 1029.31 144.26C1037.25 144.26 1043.8 145.593 1048.95 148.229C1054.11 150.866 1058.2 154.255 1061.24 158.34C1064.28 162.455 1066.51 166.8 1067.99 171.436C1069.47 176.072 1070.39 180.447 1070.83 184.561C1071.26 188.704 1071.47 192.036 1071.47 194.614V254.385H1047.27L1047.22 254.472Z" fill="black"/>
<path d="M1139.81 257.426C1128.77 257.426 1119.36 254.964 1111.56 250.038C1103.77 245.113 1097.8 238.391 1093.66 229.873C1089.52 221.356 1087.43 211.708 1087.37 200.93C1087.43 189.949 1089.6 180.214 1093.86 171.725C1098.12 163.236 1104.18 156.544 1112.06 151.705C1119.94 146.867 1129.27 144.404 1140.1 144.404C1152.27 144.404 1162.56 147.475 1170.99 153.589C1179.42 159.702 1184.92 168.046 1187.5 178.621L1163.71 185.053C1161.86 179.316 1158.79 174.826 1154.5 171.61C1150.21 168.394 1145.32 166.8 1139.84 166.8C1133.64 166.8 1128.51 168.278 1124.49 171.204C1120.46 174.159 1117.47 178.186 1115.56 183.343C1113.65 188.501 1112.69 194.353 1112.69 200.901C1112.69 211.07 1114.98 219.298 1119.53 225.586C1124.08 231.873 1130.86 235.002 1139.84 235.002C1146.19 235.002 1151.2 233.553 1154.85 230.627C1158.53 227.729 1161.28 223.528 1163.13 218.024L1187.53 223.471C1184.23 234.364 1178.43 242.766 1170.18 248.59C1161.92 254.442 1151.81 257.368 1139.84 257.368L1139.81 257.426Z" fill="black"/>
<path d="M1250.83 257.427C1240 257.427 1230.47 255.08 1222.3 250.386C1214.1 245.693 1207.69 239.174 1203.12 230.859C1198.54 222.515 1196.22 212.954 1196.22 202.118C1196.22 190.413 1198.48 180.244 1202.97 171.639C1207.46 163.005 1213.72 156.312 1221.72 151.561C1229.71 146.809 1238.96 144.434 1249.47 144.434C1260.57 144.434 1270.01 147.041 1277.78 152.227C1285.54 157.413 1291.31 164.743 1295.08 174.188C1298.84 183.634 1300.26 194.788 1299.33 207.594H1275.63V198.873C1275.58 187.255 1273.52 178.737 1269.49 173.406C1265.47 168.075 1259.12 165.381 1250.46 165.381C1240.66 165.381 1233.39 168.394 1228.64 174.449C1223.89 180.504 1221.51 189.341 1221.51 200.959C1221.51 211.795 1223.89 220.197 1228.64 226.136C1233.39 232.076 1240.35 235.06 1249.47 235.06C1255.35 235.06 1260.42 233.756 1264.68 231.149C1268.94 228.541 1272.25 224.746 1274.53 219.791L1298.12 226.919C1294 236.566 1287.69 244.07 1279.14 249.43C1270.56 254.79 1261.15 257.456 1250.83 257.456V257.427ZM1213.95 207.565V189.515H1287.6V207.565H1213.95Z" fill="black"/>
<path d="M1317.04 254.472V147.389H1338.16V173.465L1335.58 170.104C1336.91 166.54 1338.68 163.266 1340.88 160.34C1343.08 157.385 1345.75 154.98 1348.85 153.039C1351.48 151.243 1354.41 149.852 1357.63 148.838C1360.84 147.824 1364.12 147.186 1367.51 146.955C1370.87 146.723 1374.14 146.868 1377.33 147.389V169.698C1374.14 168.771 1370.49 168.481 1366.38 168.8C1362.23 169.119 1358.52 170.278 1355.22 172.277C1351.92 174.073 1349.22 176.333 1347.14 179.114C1345.05 181.896 1343.52 185.054 1342.53 188.588C1341.55 192.123 1341.05 195.947 1341.05 200.032V254.472H1317.07H1317.04Z" fill="black"/>
<path d="M228.043 166.193H103.693C99.0286 166.193 95.6967 161.644 97.1453 157.183L102.564 140.552C103.491 137.713 106.127 135.801 109.111 135.801H233.462C238.126 135.801 241.458 140.349 240.009 144.811L234.591 161.442C233.664 164.281 231.028 166.193 228.043 166.193Z" fill="white"/>
<path d="M211.124 228.222H86.7733C82.1087 228.222 78.7775 223.674 80.2262 219.212L85.6437 202.582C86.5708 199.742 89.2073 197.83 92.1915 197.83H216.542C221.206 197.83 224.538 202.379 223.09 206.841L217.672 223.471C216.745 226.31 214.108 228.222 211.124 228.222Z" fill="white"/>
<path d="M164.45 113.116L121.368 256.066C120.499 258.964 117.804 260.963 114.791 260.963H98.7692C94.1626 260.963 90.8597 256.53 92.1924 252.097L135.275 109.146C136.144 106.249 138.838 104.25 141.851 104.25H157.873C162.48 104.25 165.783 108.683 164.45 113.116Z" fill="white"/>
<path d="M226.334 113.116L183.251 256.066C182.382 258.964 179.688 260.963 176.675 260.963H160.653C156.046 260.963 152.744 256.53 154.076 252.097L197.158 109.146C198.028 106.249 200.722 104.25 203.735 104.25H219.757C224.364 104.25 227.667 108.683 226.334 113.116Z" fill="white"/>
<path d="M204.227 187.373L180.238 166.194H210.602L204.227 187.373Z" fill="#74DFFF"/>
<path d="M142.083 187.373L118.093 166.194H148.456L142.083 187.373Z" fill="#74DFFF"/>
<path d="M185.367 249.404L161.378 228.225H191.742L185.367 249.404Z" fill="#74DFFF"/>
<path d="M123.627 249.404L99.6379 228.225H130.001L123.627 249.404Z" fill="#74DFFF"/>
</svg>
