<svg width="369" height="93" viewBox="0 0 369 93" fill="none" xmlns="http://www.w3.org/2000/svg">
<path d="M122.991 62C123.236 62 123.4 61.8364 123.4 61.5909V39.7864C123.4 39.6227 123.482 39.5409 123.645 39.5409H130.682C130.927 39.5409 131.091 39.3773 131.091 39.1318V34.5909C131.091 34.3455 130.927 34.1818 130.682 34.1818H110.105C109.859 34.1818 109.695 34.3455 109.695 34.5909V39.1318C109.695 39.3773 109.859 39.5409 110.105 39.5409H117.141C117.305 39.5409 117.386 39.6227 117.386 39.7864V61.5909C117.386 61.8364 117.55 62 117.795 62H122.991ZM136.703 61.5909C136.703 61.8364 136.867 62 137.113 62H154.949C155.194 62 155.358 61.8364 155.358 61.5909V57.2136C155.358 56.9682 155.194 56.8045 154.949 56.8045H142.963C142.799 56.8045 142.717 56.7227 142.717 56.5591V50.7909C142.717 50.6273 142.799 50.5455 142.963 50.5455H152.944C153.19 50.5455 153.353 50.3818 153.353 50.1364V45.8C153.353 45.5545 153.19 45.3909 152.944 45.3909H142.963C142.799 45.3909 142.717 45.3091 142.717 45.1455V39.6227C142.717 39.4591 142.799 39.3773 142.963 39.3773H154.949C155.194 39.3773 155.358 39.2136 155.358 38.9682V34.5909C155.358 34.3455 155.194 34.1818 154.949 34.1818H137.113C136.867 34.1818 136.703 34.3455 136.703 34.5909V61.5909ZM160.021 61.5909C159.939 61.8364 160.021 62 160.307 62H165.667C165.953 62 166.117 61.8773 166.198 61.5909L167.753 56.7227H177.489L179.085 61.5909C179.167 61.8773 179.33 62 179.617 62H184.935C185.221 62 185.303 61.8364 185.221 61.5909L175.812 34.5909C175.73 34.3455 175.567 34.1818 175.28 34.1818H170.126C169.839 34.1818 169.676 34.3455 169.594 34.5909L160.021 61.5909ZM169.43 51.6091L172.58 41.8727H172.703L175.853 51.6091H169.43ZM190.707 61.5909C190.707 61.8364 190.871 62 191.116 62H195.739C195.985 62 196.148 61.8364 196.148 61.5909V45.9227H196.312L201.466 57.6636C201.63 58.0318 201.876 58.1955 202.244 58.1955H205.066C205.435 58.1955 205.68 58.0318 205.844 57.6636L210.998 45.9227H211.162V61.5909C211.162 61.8364 211.326 62 211.571 62H216.194C216.439 62 216.603 61.8364 216.603 61.5909V34.5909C216.603 34.3455 216.439 34.1818 216.194 34.1818H211.407C211.08 34.1818 210.876 34.3045 210.753 34.5909L203.839 50.4636H203.676L196.639 34.5909C196.516 34.3045 196.312 34.1818 195.985 34.1818H191.116C190.871 34.1818 190.707 34.3455 190.707 34.5909V61.5909ZM248.727 62C249.013 62 249.218 61.8364 249.259 61.5909L256.418 34.5909C256.459 34.3455 256.377 34.1818 256.09 34.1818H250.854C250.568 34.1818 250.404 34.3045 250.363 34.5909L246.518 52.0591H246.436L241.527 34.5909C241.445 34.3455 241.281 34.1818 241.036 34.1818H237.477C237.19 34.1818 237.027 34.3455 236.945 34.5909L232.199 52.0591H232.118L228.109 34.5909C228.068 34.3455 227.904 34.1818 227.618 34.1818H222.34C222.054 34.1818 221.972 34.3455 222.013 34.5909L229.213 61.5909C229.295 61.8364 229.459 62 229.704 62H233.795C234.081 62 234.245 61.8364 234.327 61.5909L239.195 44.2864H239.277L244.104 61.5909C244.186 61.8364 244.349 62 244.636 62H248.727ZM271.637 62.45C276.505 62.45 280.35 60.2 281.782 55.7C282.396 53.7773 282.56 52.2227 282.56 48.0909C282.56 43.9591 282.396 42.4045 281.782 40.4818C280.35 35.9818 276.505 33.7318 271.637 33.7318C266.769 33.7318 262.923 35.9818 261.491 40.4818C260.878 42.4045 260.714 43.9591 260.714 48.0909C260.714 52.2227 260.878 53.7773 261.491 55.7C262.923 60.2 266.769 62.45 271.637 62.45ZM271.637 57.1318C269.346 57.1318 267.873 55.9864 267.26 54.0636C266.932 53.0818 266.81 51.7318 266.81 48.0909C266.81 44.45 266.932 43.1 267.26 42.1182C267.873 40.1955 269.346 39.05 271.637 39.05C273.928 39.05 275.4 40.1955 276.014 42.1182C276.341 43.1 276.464 44.45 276.464 48.0909C276.464 51.7318 276.341 53.0818 276.014 54.0636C275.4 55.9864 273.928 57.1318 271.637 57.1318ZM310.602 62C310.889 62 311.011 61.7545 310.889 61.5091L305.407 50.5455C308.475 49.1955 310.357 46.3727 310.357 42.8136C310.357 37.7409 306.593 34.1818 300.907 34.1818H289.82C289.575 34.1818 289.411 34.3455 289.411 34.5909V61.5909C289.411 61.8364 289.575 62 289.82 62H295.016C295.261 62 295.425 61.8364 295.425 61.5909V51.65C295.425 51.4864 295.507 51.4045 295.67 51.4045H299.393L304.179 61.5909C304.302 61.8773 304.425 62 304.793 62H310.602ZM300.579 46.2909H295.67C295.507 46.2909 295.425 46.2091 295.425 46.0455V39.6227C295.425 39.4591 295.507 39.3773 295.67 39.3773H300.579C302.87 39.3773 304.343 40.7273 304.343 42.8136C304.343 44.9409 302.87 46.2909 300.579 46.2909ZM317.212 61.5909C317.212 61.8364 317.376 62 317.621 62H322.817C323.062 62 323.226 61.8364 323.226 61.5909V54.5136L326.867 49.9318L333.167 61.6318C333.33 61.9182 333.453 62 333.78 62H339.794C340.08 62 340.203 61.7955 340.039 61.5091L330.835 45.2682L339.262 34.7136C339.467 34.4682 339.344 34.1818 339.099 34.1818H333.167C332.839 34.1818 332.676 34.2636 332.471 34.55L323.226 46.6182V34.5909C323.226 34.3455 323.062 34.1818 322.817 34.1818H317.621C317.376 34.1818 317.212 34.3455 317.212 34.5909V61.5909ZM354.741 62.45C361.941 62.45 365.664 58.7273 365.664 53.6955C365.664 48.6636 362.636 46.0455 356.909 45.2682L355.436 45.0636C352.245 44.6136 351.1 43.5909 351.1 41.9955C351.1 40.2364 352.368 38.9682 354.823 38.9682C357.114 38.9682 359.159 39.7045 361.286 41.0955C361.491 41.2182 361.695 41.1773 361.859 40.9727L364.355 37.25C364.559 36.9636 364.518 36.8 364.273 36.6364C361.941 34.8364 358.505 33.7318 354.823 33.7318C348.809 33.7318 344.964 37.1273 344.964 42.2409C344.964 47.15 348.114 49.8091 353.759 50.5864L355.232 50.7909C358.545 51.2409 359.527 52.2636 359.527 53.9C359.527 55.8636 357.891 57.2136 354.986 57.2136C352.041 57.2136 349.545 55.8227 347.705 54.35C347.5 54.1864 347.255 54.1864 347.091 54.3909L343.982 57.95C343.777 58.1955 343.859 58.4818 344.023 58.6455C346.191 60.7318 350.405 62.45 354.741 62.45Z" fill="black"/>
<path fill-rule="evenodd" clip-rule="evenodd" d="M35.7564 2.41982C39.4635 0.302257 44.0166 0.313793 47.713 2.45011L77.0047 19.3792C80.7149 21.5235 83 25.4835 83 29.7688V63.1593C83 67.438 80.7218 71.3931 77.0205 73.5398L47.7287 90.5286C44.0243 92.6771 39.4557 92.6887 35.7405 90.559L6.03226 73.5296C2.30128 71.3909 0 67.4192 0 63.1187V29.8094C0 25.5024 2.30818 21.5257 6.04805 19.3895L35.7564 2.41982ZM53.7358 42.332L60.374 38.2572C60.9914 37.8776 61.1851 37.0691 60.8061 36.4511L59.0735 33.6269C58.6939 33.0082 57.8848 32.8144 57.2661 33.1947L48.4796 38.5948C46.4113 39.8657 44.0305 40.5389 41.6024 40.5389H41.3981C38.97 40.5389 36.5891 39.8657 34.5202 38.5948L25.7337 33.1947C25.1157 32.8144 24.3065 33.0082 23.9262 33.6269L22.1943 36.4511C21.8147 37.0691 22.0084 37.8776 22.6265 38.2572L29.264 42.332C32.3968 44.2563 33.6907 45.0576 35.0502 46.6011C36.3816 48.1163 37.391 49.9027 38.0649 51.9355C38.3782 52.88 38.5122 53.8763 38.5135 54.8713L38.5292 65.4922C38.5306 66.2173 39.1184 66.8038 39.8428 66.8038H43.1576C43.8814 66.8038 44.4699 66.2173 44.4712 65.4922L44.4863 54.8713C44.4876 53.8763 44.6216 52.88 44.9355 51.9355C45.6088 49.9027 46.6182 48.1163 47.9502 46.6011C49.3091 45.0576 50.6036 44.2563 53.7358 42.332Z" fill="url(#paint0_linear_123_1685)"/>
<path fill-rule="evenodd" clip-rule="evenodd" d="M35.7564 2.41982C39.4635 0.302257 44.0166 0.313793 47.713 2.45011L77.0047 19.3792C80.7149 21.5235 83 25.4835 83 29.7688V63.1593C83 67.438 80.7218 71.3931 77.0205 73.5398L47.7287 90.5286C44.0243 92.6771 39.4557 92.6887 35.7405 90.559L6.03226 73.5296C2.30128 71.3909 0 67.4192 0 63.1187V29.8094C0 25.5024 2.30818 21.5257 6.04805 19.3895L35.7564 2.41982ZM53.7358 42.332L60.374 38.2572C60.9914 37.8776 61.1851 37.0691 60.8061 36.4511L59.0735 33.6269C58.6939 33.0082 57.8848 32.8144 57.2661 33.1947L48.4796 38.5948C46.4113 39.8657 44.0305 40.5389 41.6024 40.5389H41.3981C38.97 40.5389 36.5891 39.8657 34.5202 38.5948L25.7337 33.1947C25.1157 32.8144 24.3065 33.0082 23.9262 33.6269L22.1943 36.4511C21.8147 37.0691 22.0084 37.8776 22.6265 38.2572L29.264 42.332C32.3968 44.2563 33.6907 45.0576 35.0502 46.6011C36.3816 48.1163 37.391 49.9027 38.0649 51.9355C38.3782 52.88 38.5122 53.8763 38.5135 54.8713L38.5292 65.4922C38.5306 66.2173 39.1184 66.8038 39.8428 66.8038H43.1576C43.8814 66.8038 44.4699 66.2173 44.4712 65.4922L44.4863 54.8713C44.4876 53.8763 44.6216 52.88 44.9355 51.9355C45.6088 49.9027 46.6182 48.1163 47.9502 46.6011C49.3091 45.0576 50.6036 44.2563 53.7358 42.332Z" fill="black"/>
<defs>
<linearGradient id="paint0_linear_123_1685" x1="-135.209" y1="-17.1555" x2="16.6347" y2="170.148" gradientUnits="userSpaceOnUse">
<stop/>
<stop offset="0.692304"/>
<stop offset="1" stop-color="#B4EC51"/>
</linearGradient>
</defs>
</svg>
