<svg width="1256" height="369" viewBox="0 0 1256 369" fill="none" xmlns="http://www.w3.org/2000/svg">
<path d="M445.542 254.474V111.726H469.734L535.965 212.347V111.726H560.157V254.474H535.965L469.734 153.852V254.474H445.542Z" fill="black"/>
<path d="M623.898 257.544C615.959 257.544 609.411 256.211 604.254 253.575C599.097 250.938 595.012 247.548 591.97 243.463C588.928 239.349 586.668 235.003 585.219 230.368C583.771 225.732 582.814 221.357 582.409 217.243C581.974 213.1 581.771 209.768 581.771 207.189V147.419H605.963V198.961C605.963 202.264 606.195 205.973 606.659 210.116C607.122 214.259 608.194 218.199 609.875 222.023C611.555 225.819 614.076 228.948 617.408 231.382C620.74 233.815 625.259 235.061 630.938 235.061C633.98 235.061 636.993 234.569 639.948 233.583C642.933 232.598 645.627 230.889 648.032 228.484C650.436 226.08 652.377 222.748 653.826 218.518C655.275 214.288 655.999 208.928 655.999 202.467L670.167 208.522C670.167 217.649 668.399 225.906 664.865 233.294C661.33 240.682 656.115 246.592 649.249 250.996C642.382 255.4 633.922 257.602 623.869 257.602L623.898 257.544ZM658.896 254.473V221.27H656.028V147.419H680.017V254.502H658.896V254.473Z" fill="black"/>
<path d="M692.533 166.137V147.392H767.195V166.137H692.533ZM767.195 254.475C760.126 255.807 753.202 256.387 746.422 256.213C739.643 256.039 733.587 254.793 728.227 252.447C722.867 250.1 718.811 246.391 716.03 241.292C713.596 236.656 712.292 231.934 712.176 227.125C712.032 222.286 711.974 216.839 711.974 210.755V117.666H735.76V209.364C735.76 213.652 735.818 217.419 735.905 220.664C735.992 223.909 736.687 226.545 737.933 228.602C740.309 232.571 744.104 234.773 749.32 235.237C754.535 235.7 760.503 235.44 767.166 234.455V254.475H767.195Z" fill="black"/>
<path d="M784.666 254.472V147.389H805.787V173.465L803.208 170.104C804.541 166.54 806.308 163.266 808.51 160.34C810.712 157.385 813.377 154.98 816.477 153.039C819.114 151.243 822.04 149.852 825.256 148.838C828.472 147.824 831.746 147.186 835.136 146.955C838.497 146.723 841.77 146.868 844.957 147.389V169.698C841.77 168.771 838.12 168.481 834.006 168.8C829.863 169.119 826.154 170.278 822.851 172.277C819.548 174.073 816.854 176.333 814.768 179.114C812.682 181.896 811.147 185.054 810.162 188.588C809.176 192.123 808.684 195.947 808.684 200.032V254.472H784.695H784.666Z" fill="black"/>
<path d="M859.588 131.135V109.231H883.491V131.135H859.588ZM859.588 254.471V147.388H883.491V254.471H859.588Z" fill="black"/>
<path d="M896.905 166.137V147.392H971.567V166.137H896.905ZM971.567 254.475C964.498 255.807 957.574 256.387 950.794 256.213C944.014 256.039 937.959 254.793 932.599 252.447C927.239 250.1 923.183 246.391 920.402 241.292C917.968 236.656 916.664 231.934 916.549 227.125C916.404 222.286 916.346 216.839 916.346 210.755V117.666H940.132V209.364C940.132 213.652 940.19 217.419 940.277 220.664C940.364 223.909 941.059 226.545 942.305 228.602C944.681 232.571 948.476 234.773 953.691 235.237C958.906 235.7 964.875 235.44 971.538 234.455V254.475H971.567Z" fill="black"/>
<path d="M989.937 131.135V109.231H1013.84V131.135H989.937ZM989.937 254.471V147.388H1013.84V254.471H989.937Z" fill="black"/>
<path d="M1086.24 257.427C1075.52 257.427 1066.19 255.022 1058.2 250.184C1050.2 245.345 1044 238.71 1039.6 230.221C1035.19 221.732 1032.99 211.969 1032.99 200.93C1032.99 189.892 1035.25 179.838 1039.74 171.378C1044.23 162.918 1050.49 156.312 1058.49 151.561C1066.48 146.809 1075.72 144.434 1086.24 144.434C1096.76 144.434 1106.41 146.838 1114.4 151.677C1122.4 156.515 1128.6 163.15 1133.03 171.639C1137.46 180.128 1139.67 189.892 1139.67 200.93C1139.67 211.969 1137.44 221.819 1132.97 230.337C1128.51 238.826 1122.28 245.461 1114.29 250.271C1106.29 255.051 1096.93 257.456 1086.24 257.456V257.427ZM1086.24 235.031C1095.77 235.031 1102.84 231.873 1107.45 225.499C1112.08 219.154 1114.4 210.955 1114.4 200.901C1114.4 190.848 1112.06 182.243 1107.36 176.072C1102.67 169.901 1095.63 166.8 1086.24 166.8C1079.84 166.8 1074.57 168.249 1070.42 171.117C1066.28 173.986 1063.24 177.984 1061.24 183.112C1059.27 188.24 1058.25 194.18 1058.25 200.901C1058.25 211.273 1060.63 219.56 1065.35 225.731C1070.07 231.902 1077.03 235.002 1086.21 235.002L1086.24 235.031Z" fill="black"/>
<path d="M1157.17 254.472V147.389H1178.49V180.591H1181.36V254.443H1157.17V254.472ZM1231.42 254.472V202.929C1231.42 199.568 1231.19 195.831 1230.73 191.717C1230.27 187.632 1229.19 183.663 1227.51 179.867C1225.83 176.072 1223.31 172.943 1219.98 170.509C1216.65 168.075 1212.13 166.829 1206.45 166.829C1203.41 166.829 1200.39 167.322 1197.44 168.307C1194.45 169.292 1191.76 171.001 1189.36 173.406C1186.95 175.811 1185.01 179.114 1183.56 183.315C1182.11 187.516 1181.39 192.876 1181.39 199.424L1167.22 193.368C1167.22 184.242 1168.99 175.985 1172.52 168.568C1176.06 161.18 1181.27 155.269 1188.14 150.866C1195.01 146.462 1203.47 144.26 1213.52 144.26C1221.46 144.26 1228.01 145.593 1233.16 148.229C1238.32 150.866 1242.4 154.255 1245.45 158.34C1248.49 162.455 1250.72 166.8 1252.2 171.436C1253.68 176.072 1254.6 180.447 1255.04 184.561C1255.47 188.704 1255.67 192.036 1255.67 194.614V254.385H1231.48L1231.42 254.472Z" fill="black"/>
<path d="M80.6023 182.592C80.6023 136.874 117.803 99.6728 163.551 99.6728C165.289 99.6728 167.027 99.7308 168.737 99.8467L171.634 97.413L171.75 97.2971L180.876 89.6193L183.687 87.2726C177.197 85.9108 170.446 85.1865 163.551 85.1865C109.749 85.1865 66.116 128.79 66.116 182.592C66.116 214.144 81.1238 242.189 104.389 259.978H104.418L104.939 258.559L106.214 255.111L109.169 247.259L109.72 245.753V245.637C91.9305 230.455 80.6023 207.828 80.6023 182.592Z" fill="#5DD1A4"/>
<path d="M218.948 102.481L217.383 106.654L217.296 106.914L217.209 107.117L216.108 110.101L213.674 116.591C237.171 134.467 250.904 164.599 245.168 197.425C237.722 240.043 197.566 269.914 154.599 265.018C154.425 265.018 154.252 264.989 154.078 264.96L150.601 267.857L149.152 269.074L141.417 275.593L139.708 277.041C147.327 278.983 155.324 279.997 163.552 279.997C217.296 279.997 261.421 235.495 260.958 181.75C260.668 148.896 244.125 119.894 218.948 102.481Z" fill="white"/>
<path d="M222.742 192.067L206.488 205.742L173.459 199.194C173.459 199.194 173.228 199.165 173.17 199.165C171.895 199.165 171.315 200.875 172.445 201.628L194.667 215.68L155.12 248.94L135.766 245.145C135.766 245.145 135.563 245.116 135.476 245.116C134.201 245.116 133.651 246.825 134.81 247.549L147.326 255.459L143.096 259.023L141.676 260.239L139.619 261.978L133.999 266.7L130.754 269.424L129.45 270.525L126.727 272.814L117.339 280.665L116.383 281.476C115.601 282.114 114.761 282.403 113.95 282.403C111.487 282.403 109.285 279.97 110.328 277.188L114.268 266.642L115.253 264.035L115.804 262.615L117.079 259.167L119.454 252.793L120.034 251.287L120.584 249.838L132.811 217.186L155.989 220.315C155.989 220.315 156.134 220.344 156.192 220.344C157.496 220.344 158.075 218.519 156.829 217.853L136.722 206.785L142.893 190.329L101.578 181.376C97.7539 180.536 96.537 175.668 99.5502 173.119L179.051 106.308L179.196 106.192L183.918 102.194L188.322 98.4854L191.335 95.9648L191.538 95.7909L197.101 91.1263L204.982 84.5206L205.938 83.7383C206.691 83.072 207.56 82.7822 208.4 82.7822C210.805 82.7822 213.007 85.2449 211.993 87.9973L208.864 96.3704L206.546 102.599L206.459 102.802L205.242 106.018L203.736 110.103L201.737 115.405L201.679 115.521L179.428 174.886L220.685 183.81C224.538 184.65 225.726 189.546 222.742 192.067Z" fill="white"/>
<path d="M227.493 162.95L219.236 168.831L211.182 174.568L209.472 175.814L209.27 175.959L187.077 171.091V170.946L201.621 132.21L202.171 134.817L204.837 148.551L206.865 158.981L198.115 165.355L226.219 159.792C226.219 159.792 226.421 159.763 226.508 159.763C228.131 159.763 228.942 161.965 227.522 162.979L227.493 162.95Z" fill="#5DD1A4"/>
<path d="M325.942 255.777V109.408C325.942 96.457 319.046 84.5203 307.834 78.0305L181.079 4.84567C169.866 -1.61522 156.075 -1.61522 144.863 4.84567L18.1079 78.0305C6.89548 84.4914 0 96.457 0 109.408V255.777C0 268.728 6.89548 280.665 18.1079 287.155L144.863 360.34C156.075 366.8 169.866 366.8 181.079 360.34L307.834 287.155C319.046 280.694 325.942 268.728 325.942 255.777Z" fill="#009657"/>
<path d="M80.051 182.592C80.051 136.874 117.252 99.6728 163 99.6728C164.738 99.6728 166.476 99.7308 168.186 99.8467L171.083 97.413L171.199 97.2971L180.325 89.6193L183.136 87.2726C176.646 85.9108 169.895 85.1865 163 85.1865C109.197 85.1865 65.5647 128.79 65.5647 182.592C65.5647 214.144 80.5726 242.189 103.838 259.978H103.867L104.388 258.559L105.663 255.111L108.618 247.259L109.168 245.753V245.637C91.3793 230.455 80.051 207.828 80.051 182.592Z" fill="#5DD1A4"/>
<path d="M218.395 102.481L216.831 106.654L216.744 106.914L216.657 107.117L215.556 110.101L213.122 116.591C236.619 134.467 250.352 164.599 244.615 197.425C237.169 240.043 197.013 269.914 154.047 265.018C153.873 265.018 153.699 264.989 153.525 264.96L150.049 267.857L148.6 269.074L140.864 275.593L139.155 277.041C146.775 278.983 154.771 279.997 162.999 279.997C216.744 279.997 260.869 235.495 260.405 181.75C260.116 148.896 243.572 119.894 218.395 102.481Z" fill="white"/>
<path d="M222.19 192.067L205.937 205.742L172.908 199.194C172.908 199.194 172.676 199.165 172.618 199.165C171.344 199.165 170.764 200.875 171.894 201.628L194.116 215.68L154.569 248.94L135.215 245.145C135.215 245.145 135.012 245.116 134.925 245.116C133.65 245.116 133.1 246.825 134.259 247.549L146.775 255.459L142.545 259.023L141.125 260.239L139.068 261.978L133.447 266.7L130.202 269.424L128.899 270.525L126.175 272.814L116.788 280.665L115.832 281.476C115.05 282.114 114.21 282.403 113.398 282.403C110.936 282.403 108.734 279.97 109.777 277.188L113.717 266.642L114.702 264.035L115.253 262.615L116.527 259.167L118.903 252.793L119.483 251.287L120.033 249.838L132.26 217.186L155.438 220.315C155.438 220.315 155.583 220.344 155.641 220.344C156.944 220.344 157.524 218.519 156.278 217.853L136.171 206.785L142.342 190.329L101.027 181.376C97.2027 180.536 95.9858 175.668 98.9989 173.119L178.5 106.308L178.645 106.192L183.367 102.194L187.771 98.4854L196.55 91.1263L204.43 84.5206L205.386 83.7383C206.14 83.072 207.009 82.7822 207.849 82.7822C210.254 82.7822 212.456 85.2449 211.442 87.9973L208.313 96.3704L201.185 115.405L201.127 115.521L178.876 174.886L220.133 183.81C223.987 184.65 225.175 189.546 222.19 192.067Z" fill="white"/>
<path d="M226.942 162.95L218.685 168.831L210.63 174.568L208.921 175.814L208.718 175.959L186.525 171.091V170.946L201.069 132.21L201.62 134.817L204.285 148.551L206.313 158.981L197.564 165.355L225.667 159.792C225.667 159.792 225.87 159.763 225.957 159.763C227.579 159.763 228.391 161.965 226.971 162.979L226.942 162.95Z" fill="#5DD1A4"/>
</svg>
