<svg width="1317" height="369" viewBox="0 0 1317 369" fill="none" xmlns="http://www.w3.org/2000/svg">
<path d="M325.942 255.777V109.408C325.942 96.457 319.046 84.5203 307.834 78.0304L181.079 4.84567C169.866 -1.61522 156.075 -1.61522 144.863 4.84567L18.1079 78.0304C6.89548 84.4913 0 96.457 0 109.408V255.777C0 268.728 6.89548 280.665 18.1079 287.155L144.863 360.339C156.075 366.8 169.866 366.8 181.079 360.339L307.834 287.155C319.046 280.694 325.942 268.728 325.942 255.777Z" fill="#7B62D5"/>
<path d="M444.962 254.474V111.726H503.95C505.341 111.726 507.108 111.783 509.31 111.87C511.483 111.957 513.511 112.189 515.365 112.508C523.622 113.754 530.46 116.506 535.849 120.736C541.238 124.966 545.236 130.297 547.843 136.758C550.451 143.19 551.755 150.346 551.755 158.227C551.755 166.107 550.422 173.147 547.786 179.608C545.149 186.04 541.122 191.4 535.733 195.63C530.344 199.86 523.564 202.613 515.365 203.858C513.511 204.119 511.483 204.322 509.281 204.467C507.079 204.612 505.283 204.67 503.979 204.67H468.893V254.532H444.991L444.962 254.474ZM468.864 182.303H502.965C504.298 182.303 505.775 182.245 507.427 182.1C509.078 181.955 510.585 181.694 511.975 181.318C515.944 180.333 519.074 178.565 521.334 176.074C523.622 173.553 525.245 170.714 526.201 167.556C527.157 164.398 527.649 161.269 527.649 158.227C527.649 155.184 527.157 152.055 526.201 148.868C525.245 145.653 523.622 142.813 521.334 140.293C519.045 137.772 515.915 136.034 511.975 135.048C510.585 134.643 509.078 134.411 507.427 134.295C505.775 134.208 504.298 134.15 502.965 134.15H468.864V182.332V182.303Z" fill="black"/>
<path d="M594.545 257.455C586.809 257.455 580.261 255.978 574.902 253.052C569.542 250.125 565.485 246.185 562.762 241.318C560.038 236.45 558.648 231.032 558.648 225.151C558.648 219.994 559.517 215.358 561.226 211.215C562.936 207.101 565.601 203.508 569.165 200.495C572.729 197.482 577.364 195.019 583.043 193.107C587.331 191.717 592.372 190.471 598.166 189.341C603.961 188.211 610.219 187.168 616.998 186.212C623.778 185.256 630.877 184.213 638.265 183.083L629.746 187.95C629.804 180.562 628.153 175.086 624.792 171.581C621.431 168.075 615.724 166.337 607.727 166.337C602.889 166.337 598.253 167.467 593.734 169.697C589.243 171.957 586.114 175.811 584.318 181.286L562.501 174.449C565.138 165.409 570.179 158.137 577.625 152.633C585.071 147.157 595.095 144.404 607.727 144.404C617.259 144.404 625.633 145.969 632.847 149.069C640.061 152.169 645.45 157.268 648.955 164.337C650.868 168.104 652.027 171.957 652.432 175.898C652.838 179.838 653.041 184.097 653.041 188.732V254.471H632.122V231.264L635.599 235.031C630.761 242.766 625.14 248.445 618.708 252.037C612.276 255.63 604.222 257.426 594.574 257.426L594.545 257.455ZM599.296 238.42C604.714 238.42 609.35 237.464 613.174 235.552C616.999 233.64 620.07 231.293 622.359 228.512C624.648 225.73 626.183 223.123 626.965 220.689C628.211 217.647 628.935 214.17 629.109 210.23C629.283 206.29 629.341 203.103 629.341 200.669L636.671 202.842C629.457 203.972 623.286 204.957 618.128 205.826C612.971 206.695 608.539 207.507 604.859 208.26C601.151 209.013 597.877 209.853 595.037 210.781C592.256 211.766 589.909 212.925 587.997 214.257C586.085 215.59 584.607 217.097 583.593 218.806C582.579 220.515 582.058 222.543 582.058 224.861C582.058 227.498 582.724 229.844 584.028 231.844C585.361 233.872 587.273 235.465 589.822 236.653C592.372 237.841 595.53 238.449 599.296 238.449V238.42Z" fill="black"/>
<path d="M661.097 166.137V147.392H735.76V166.137H661.097ZM735.731 254.475C728.662 255.807 721.737 256.387 714.957 256.213C708.178 256.039 702.122 254.793 696.763 252.447C691.403 250.1 687.347 246.391 684.565 241.292C682.131 236.657 680.828 231.934 680.712 227.125C680.567 222.286 680.509 216.839 680.509 210.755V117.666H704.295V209.364C704.295 213.652 704.353 217.419 704.44 220.664C704.527 223.909 705.222 226.545 706.468 228.602C708.844 232.571 712.64 234.773 717.855 235.237C723.07 235.7 729.038 235.44 735.702 234.455V254.475H735.731Z" fill="black"/>
<path d="M753.028 254.474V111.726H774.351V186.881H777.22V254.503H753.028V254.474ZM827.284 254.474V202.931C827.284 199.571 827.053 195.833 826.589 191.719C826.126 187.634 825.054 183.665 823.373 179.869C821.693 176.074 819.172 172.945 815.84 170.511C812.508 168.077 807.989 166.831 802.31 166.831C799.268 166.831 796.255 167.324 793.3 168.309C790.315 169.294 787.621 171.004 785.216 173.408C782.811 175.813 780.87 179.116 779.422 183.317C777.973 187.518 777.249 192.878 777.249 199.426L763.081 193.37C763.081 184.244 764.848 175.987 768.383 168.599C771.918 161.211 777.133 155.3 783.999 150.897C790.866 146.493 799.326 144.291 809.379 144.291C817.318 144.291 823.866 145.624 829.023 148.26C834.18 150.897 838.265 154.286 841.307 158.371C844.349 162.486 846.58 166.831 848.058 171.467C849.535 176.103 850.463 180.478 850.897 184.592C851.332 188.735 851.534 192.067 851.534 194.645V254.416H827.342L827.284 254.474Z" fill="black"/>
<path d="M892.096 254.472L859.386 147.216L882.796 147.419L903.714 216.113L924.922 147.419H945.058L966.179 216.113L987.184 147.419H1010.59L977.884 254.501H959.254L934.975 180.853L910.783 254.501H892.154L892.096 254.472Z" fill="black"/>
<path d="M1050.98 257.455C1043.25 257.455 1036.7 255.978 1031.34 253.052C1025.98 250.125 1021.92 246.185 1019.2 241.318C1016.47 236.45 1015.08 231.032 1015.08 225.151C1015.08 219.994 1015.95 215.358 1017.66 211.215C1019.37 207.101 1022.04 203.508 1025.6 200.495C1029.16 197.482 1033.8 195.019 1039.48 193.107C1043.77 191.717 1048.81 190.471 1054.6 189.341C1060.4 188.211 1066.65 187.168 1073.43 186.212C1080.21 185.256 1087.31 184.213 1094.7 183.083L1086.18 187.95C1086.24 180.562 1084.59 175.086 1081.23 171.581C1077.87 168.075 1072.16 166.337 1064.16 166.337C1059.32 166.337 1054.69 167.467 1050.17 169.697C1045.68 171.957 1042.55 175.811 1040.75 181.286L1018.94 174.449C1021.57 165.409 1026.61 158.137 1034.06 152.633C1041.51 147.157 1051.53 144.404 1064.16 144.404C1073.7 144.404 1082.07 145.969 1089.28 149.069C1096.5 152.169 1101.89 157.268 1105.39 164.337C1107.3 168.104 1108.46 171.957 1108.87 175.898C1109.27 179.838 1109.48 184.097 1109.48 188.732V254.471H1088.56V231.264L1092.03 235.031C1087.2 242.766 1081.58 248.445 1075.14 252.037C1068.71 255.63 1060.66 257.426 1051.01 257.426L1050.98 257.455ZM1055.73 238.42C1061.15 238.42 1065.79 237.464 1069.61 235.552C1073.43 233.64 1076.51 231.293 1078.79 228.512C1081.08 225.73 1082.62 223.123 1083.4 220.689C1084.65 217.647 1085.37 214.17 1085.54 210.23C1085.72 206.29 1085.78 203.103 1085.78 200.669L1093.11 202.842C1085.89 203.972 1079.72 204.957 1074.56 205.826C1069.41 206.695 1064.97 207.507 1061.3 208.26C1057.59 209.013 1054.31 209.853 1051.47 210.781C1048.69 211.766 1046.35 212.925 1044.43 214.257C1042.52 215.59 1041.04 217.097 1040.03 218.806C1039.01 220.515 1038.49 222.543 1038.49 224.861C1038.49 227.498 1039.16 229.844 1040.46 231.844C1041.8 233.872 1043.71 235.465 1046.26 236.653C1048.81 237.841 1051.97 238.449 1055.73 238.449V238.42Z" fill="black"/>
<path d="M1141.11 302.075L1161.74 245.462L1162.15 262.121L1115.44 147.419H1140.33L1173.45 232.28H1167.1L1199.32 147.419H1223.22L1163.54 302.075H1141.14H1141.11Z" fill="black"/>
<path d="M1272.39 257.456C1259.18 257.456 1248.43 254.472 1240.17 248.532C1231.92 242.593 1226.9 234.22 1225.11 223.442L1249.5 219.675C1250.75 224.977 1253.53 229.121 1257.82 232.163C1262.11 235.205 1267.52 236.711 1274.07 236.711C1279.81 236.711 1284.27 235.581 1287.4 233.293C1290.53 231.004 1292.09 227.875 1292.09 223.934C1292.09 221.501 1291.51 219.531 1290.35 218.024C1289.19 216.546 1286.67 215.098 1282.76 213.707C1278.85 212.316 1272.88 210.578 1264.83 208.463C1255.85 206.087 1248.69 203.509 1243.42 200.785C1238.12 198.033 1234.32 194.788 1232 191.022C1229.68 187.255 1228.53 182.706 1228.53 177.346C1228.53 170.683 1230.26 164.859 1233.77 159.905C1237.28 154.951 1242.17 151.126 1248.43 148.461C1254.72 145.795 1262.11 144.434 1270.62 144.434C1279.14 144.434 1286.33 145.737 1292.79 148.287C1299.22 150.865 1304.43 154.545 1308.4 159.297C1312.37 164.048 1314.81 169.64 1315.73 176.043L1291.34 180.418C1290.73 175.869 1288.67 172.247 1285.14 169.611C1281.6 166.974 1276.88 165.468 1271 165.149C1265.38 164.801 1260.86 165.67 1257.41 167.67C1253.96 169.698 1252.25 172.508 1252.25 176.13C1252.25 178.187 1252.95 179.925 1254.34 181.374C1255.73 182.822 1258.51 184.271 1262.71 185.748C1266.91 187.197 1273.17 188.993 1281.49 191.108C1290.01 193.281 1296.84 195.773 1301.97 198.583C1307.1 201.394 1310.81 204.755 1313.07 208.637C1315.33 212.519 1316.49 217.271 1316.49 222.804C1316.49 233.582 1312.58 242.042 1304.75 248.184C1296.93 254.327 1286.09 257.398 1272.27 257.398L1272.39 257.456Z" fill="black"/>
<path d="M265.273 236.365L164.854 106.22C164.274 105.496 163.492 105.148 162.681 105.148V119.229C163.202 119.229 163.753 119.49 164.042 120.069L188.988 166.802C189.654 168.019 188.553 169.497 187.249 169.149L169.634 164.629V203.8C169.634 207.48 171.981 210.725 175.458 211.883L262.23 240.885C264.867 241.783 266.982 238.567 265.273 236.365Z" fill="#9E9EE8"/>
<path d="M162.681 105.148V119.229C162.13 119.229 161.609 119.49 161.29 120.069L136.374 166.802C135.707 168.019 136.779 169.497 138.112 169.149L155.727 164.629V203.8C155.727 207.48 153.38 210.725 149.904 211.883L63.1598 240.885C60.5233 241.783 58.3792 238.567 60.1176 236.365L160.537 106.22C161.087 105.496 161.898 105.148 162.71 105.148H162.681Z" fill="white"/>
</svg>
