<svg width="936" height="369" viewBox="0 0 936 369" fill="none" xmlns="http://www.w3.org/2000/svg">
<path d="M325.942 255.777V109.408C325.942 96.4569 319.046 84.5204 307.834 78.0305L181.079 4.84567C169.866 -1.61522 156.075 -1.61522 144.863 4.84567L18.1079 78.0305C6.89548 84.4914 0 96.4569 0 109.408V255.777C0 268.728 6.89548 280.665 18.1079 287.155L144.863 360.34C156.075 366.8 169.866 366.8 181.079 360.34L307.834 287.155C319.046 280.694 325.942 268.728 325.942 255.777Z" fill="#7B62D5"/>
<path d="M444.962 254.472V111.695H503.95C505.341 111.695 507.108 111.753 509.31 111.84C511.512 111.927 513.511 112.159 515.365 112.477C523.622 113.723 530.46 116.476 535.849 120.706C541.238 124.936 545.236 130.267 547.843 136.728C550.451 143.189 551.755 150.316 551.755 158.196C551.755 166.077 550.422 173.117 547.786 179.549C545.149 185.981 541.122 191.341 535.733 195.571C530.344 199.801 523.564 202.553 515.365 203.799C513.511 204.06 511.483 204.263 509.281 204.408C507.079 204.552 505.283 204.61 503.979 204.61H468.893V254.472H444.991H444.962ZM468.864 182.302H502.965C504.298 182.302 505.775 182.244 507.427 182.099C509.078 181.983 510.585 181.693 511.975 181.316C515.944 180.331 519.074 178.564 521.334 176.072C523.622 173.552 525.245 170.712 526.201 167.554C527.157 164.367 527.649 161.267 527.649 158.225C527.649 155.183 527.157 152.054 526.201 148.867C525.245 145.651 523.622 142.812 521.334 140.291C519.045 137.771 515.915 136.032 511.975 135.047C510.585 134.642 509.078 134.41 507.427 134.294C505.775 134.207 504.298 134.149 502.965 134.149H468.864V182.331V182.302Z" fill="black"/>
<path d="M606.282 257.544C598.343 257.544 591.795 256.211 586.638 253.574C581.481 250.938 577.396 247.548 574.354 243.463C571.312 239.378 569.052 235.003 567.603 230.367C566.155 225.732 565.199 221.357 564.793 217.243C564.358 213.1 564.155 209.768 564.155 207.189V147.419H588.348V198.961C588.348 202.264 588.579 205.972 589.043 210.116C589.507 214.259 590.579 218.199 592.259 222.023C593.939 225.819 596.46 228.948 599.792 231.381C603.124 233.815 607.643 235.061 613.322 235.061C616.364 235.061 619.377 234.569 622.332 233.583C625.288 232.598 628.011 230.889 630.416 228.484C632.82 226.08 634.761 222.748 636.21 218.518C637.659 214.288 638.383 208.928 638.383 202.467L652.551 208.522C652.551 217.648 650.784 225.906 647.249 233.294C643.714 240.682 638.499 246.592 631.633 250.996C624.766 255.4 616.306 257.602 606.253 257.602L606.282 257.544ZM641.28 254.473V221.27H638.412V147.419H662.401V254.502H641.28V254.473Z" fill="black"/>
<path d="M686.448 254.472V108.74H710.351V254.472H686.448Z" fill="black"/>
<path d="M775.394 257.457C762.183 257.457 751.434 254.473 743.177 248.533C734.92 242.594 729.908 234.221 728.111 223.443L752.506 219.677C753.752 224.979 756.533 229.122 760.821 232.164C765.109 235.206 770.527 236.713 777.075 236.713C782.811 236.713 787.273 235.583 790.402 233.294C793.531 231.005 795.096 227.876 795.096 223.936C795.096 221.502 794.517 219.532 793.358 218.025C792.199 216.548 789.678 215.099 785.767 213.708C781.855 212.318 775.887 210.579 767.833 208.464C758.851 206.088 751.695 203.51 746.422 200.787C741.12 198.034 737.325 194.789 735.007 191.023C732.689 187.256 731.53 182.708 731.53 177.348C731.53 170.684 733.268 164.861 736.774 159.906C740.28 154.952 745.176 151.128 751.434 148.462C757.721 145.797 765.109 144.464 773.627 144.464C782.145 144.464 789.33 145.739 795.791 148.317C802.223 150.896 807.438 154.575 811.408 159.327C815.377 164.078 817.81 169.67 818.737 176.073L794.343 180.448C793.734 175.899 791.677 172.278 788.142 169.641C784.608 167.005 779.885 165.498 774.004 165.179C768.383 164.86 763.863 165.701 760.415 167.7C756.968 169.728 755.259 172.538 755.259 176.189C755.259 178.246 755.954 179.984 757.345 181.433C758.735 182.882 761.517 184.33 765.718 185.808C769.919 187.256 776.177 189.053 784.492 191.168C793.01 193.341 799.847 195.832 804.975 198.643C810.104 201.453 813.812 204.814 816.072 208.696C818.332 212.578 819.491 217.33 819.491 222.864C819.491 233.642 815.58 242.102 807.757 248.244C799.934 254.386 789.098 257.457 775.278 257.457H775.394Z" fill="black"/>
<path d="M885.751 257.457C874.915 257.457 865.384 255.11 857.213 250.417C849.014 245.723 842.611 239.204 838.033 230.889C833.456 222.545 831.138 212.984 831.138 202.148C831.138 190.443 833.398 180.303 837.889 171.669C842.38 163.035 848.638 156.343 856.634 151.591C864.63 146.84 873.873 144.464 884.39 144.464C895.486 144.464 904.931 147.042 912.696 152.258C920.461 157.473 926.226 164.774 929.992 174.219C933.759 183.664 935.178 194.818 934.251 207.624H910.552V198.903C910.494 187.285 908.437 178.767 904.41 173.436C900.383 168.106 894.037 165.411 885.375 165.411C875.582 165.411 868.31 168.424 863.558 174.479C858.807 180.535 856.431 189.371 856.431 200.989C856.431 211.825 858.807 220.227 863.558 226.167C868.31 232.106 875.263 235.09 884.39 235.09C890.271 235.09 895.341 233.786 899.6 231.179C903.859 228.571 907.162 224.776 909.451 219.822L933.035 226.949C928.921 236.597 922.604 244.101 914.058 249.461C905.482 254.82 896.065 257.486 885.751 257.486V257.457ZM848.869 207.595V189.545H922.518V207.595H848.869Z" fill="black"/>
<path d="M174.068 92.4897V174.656H151.266V92.4897C151.266 86.2027 156.365 81.1035 162.682 81.1035C165.811 81.1035 168.679 82.3782 170.736 84.4353C172.793 86.4923 174.068 89.3317 174.068 92.4897Z" fill="white"/>
<path d="M99.8688 155.269V174.652H77.0674V155.269C77.0674 148.982 82.1667 143.883 88.4538 143.883C91.5828 143.883 94.4512 145.158 96.5082 147.215C98.5943 149.272 99.8688 152.14 99.8688 155.269Z" fill="white"/>
<path d="M248.296 155.269V174.652H225.495V155.269C225.495 148.982 230.594 143.883 236.881 143.883C240.039 143.883 242.878 145.158 244.935 147.215C247.021 149.272 248.296 152.14 248.296 155.269Z" fill="white"/>
<path d="M136.953 126.905V174.652H114.152V126.905C114.152 120.589 119.28 115.49 125.567 115.49C128.725 115.49 131.564 116.765 133.621 118.822C135.678 120.908 136.953 123.747 136.953 126.905Z" fill="white"/>
<path d="M211.182 126.905V174.652H188.38V126.905C188.38 123.747 189.655 120.908 191.712 118.822C193.769 116.765 196.638 115.49 199.767 115.49C206.083 115.49 211.182 120.589 211.182 126.905Z" fill="white"/>
<path d="M151.295 271.13V188.964H174.096V271.13C174.096 277.417 168.997 282.516 162.681 282.516C159.552 282.516 156.684 281.242 154.627 279.185C152.57 277.128 151.295 274.288 151.295 271.13Z" fill="#9E9EE8"/>
<path d="M225.495 208.347V188.964H248.296V208.347C248.296 214.634 243.197 219.733 236.91 219.733C233.781 219.733 230.912 218.458 228.855 216.401C226.769 214.344 225.495 211.476 225.495 208.347Z" fill="#9E9EE8"/>
<path d="M77.0674 208.347V188.964H99.8688V208.347C99.8688 214.634 94.7698 219.733 88.4828 219.733C85.3248 219.733 82.4854 218.458 80.4283 216.401C78.3423 214.344 77.0674 211.476 77.0674 208.347Z" fill="#9E9EE8"/>
<path d="M188.409 236.711V188.964H211.21V236.711C211.21 243.027 206.082 248.126 199.795 248.126C196.637 248.126 193.798 246.851 191.741 244.794C189.684 242.708 188.409 239.869 188.409 236.711Z" fill="#9E9EE8"/>
<path d="M114.182 236.711V188.964H136.983V236.711C136.983 239.869 135.708 242.708 133.651 244.794C131.594 246.851 128.726 248.126 125.597 248.126C119.281 248.126 114.182 243.027 114.182 236.711Z" fill="#9E9EE8"/>
</svg>
