<svg width="1899" height="366" viewBox="0 0 1899 366" fill="none" xmlns="http://www.w3.org/2000/svg">
<path d="M441.473 146.801V5.18066H499.995C501.374 5.18066 503.128 5.2382 505.313 5.32443C507.497 5.41067 509.48 5.64062 511.32 5.9568C519.512 7.19277 526.296 9.92341 531.642 14.12C536.989 18.3166 540.954 23.6054 543.541 30.0152C546.128 36.3963 547.422 43.496 547.422 51.3143C547.422 62.8404 544.519 72.757 538.684 81.0639C532.849 89.3708 523.91 94.4872 511.838 96.4705L501.72 97.3615H465.215V146.829H441.501L441.473 146.801ZM465.157 75.2002H498.988C500.311 75.2002 501.777 75.1427 503.415 74.999C505.053 74.884 506.549 74.5966 507.929 74.2229C511.867 73.2456 514.971 71.4923 517.213 69.0203C519.484 66.5196 521.092 63.7028 522.041 60.5697C522.989 57.4366 523.478 54.3323 523.478 51.3143C523.478 48.2962 522.989 45.1918 522.041 42.03C521.092 38.8395 519.484 36.0226 517.213 33.5219C514.942 31.0212 511.838 29.2966 507.929 28.3193C506.549 27.9169 505.053 27.687 503.415 27.572C501.777 27.4857 500.311 27.4283 498.988 27.4283H465.157V75.229V75.2002ZM522.789 146.801L494.85 89.1696L518.936 83.8521L549.635 146.801H522.789Z" fill="black"/>
<path d="M611.634 149.761C600.884 149.761 591.429 147.433 583.323 142.777C575.189 138.12 568.836 131.653 564.295 123.403C559.753 115.125 557.454 105.64 557.454 94.8897C557.454 83.2773 559.695 73.217 564.15 64.6514C568.605 56.0858 574.814 49.446 582.748 44.732C590.681 40.0181 599.85 37.6611 610.284 37.6611C621.293 37.6611 630.664 40.2481 638.367 45.3932C646.07 50.5383 651.789 57.8104 655.526 67.1808C659.263 76.5512 660.672 87.6175 659.752 100.322H636.239V91.6704C636.182 80.1442 634.142 71.6936 630.147 66.4048C626.151 61.1159 619.855 58.4427 611.261 58.4427C601.546 58.4427 594.332 61.4321 589.618 67.4395C584.904 73.4469 582.547 82.2137 582.547 93.7399C582.547 104.49 584.904 112.826 589.618 118.718C594.332 124.611 601.23 127.571 610.284 127.571C616.119 127.571 621.149 126.278 625.375 123.691C629.6 121.104 632.877 117.338 635.147 112.423L658.545 119.494C654.463 129.066 648.196 136.51 639.717 141.828C631.209 147.146 621.867 149.79 611.634 149.79V149.761ZM575.044 100.293V82.3862H648.111V100.293H575.044Z" fill="black"/>
<path d="M724.597 149.762C713.646 149.762 704.304 147.318 696.572 142.432C688.84 137.546 682.919 130.877 678.808 122.427C674.698 113.976 672.629 104.404 672.571 93.7117C672.629 82.8178 674.785 73.1599 679.01 64.738C683.236 56.3162 689.242 49.6764 697.061 44.8762C704.879 40.076 714.135 37.6328 724.885 37.6328C736.957 37.6328 747.16 40.6797 755.525 46.7446C763.889 52.8095 769.351 61.0876 771.909 71.579L748.311 77.9601C746.471 72.2689 743.424 67.8137 739.17 64.6231C734.916 61.4326 730.058 59.8517 724.625 59.8517C718.474 59.8517 713.387 61.3176 709.392 64.2207C705.396 67.1525 702.436 71.1479 700.539 76.2643C698.641 81.3806 697.694 87.1868 697.694 93.6829C697.694 103.772 699.964 111.935 704.477 118.172C708.99 124.41 715.715 127.514 724.625 127.514C730.92 127.514 735.893 126.077 739.515 123.174C743.166 120.3 745.896 116.132 747.735 110.67L771.937 116.074C768.66 126.882 762.913 135.217 754.721 140.995C746.529 146.801 736.496 149.704 724.625 149.704L724.597 149.762Z" fill="black"/>
<path d="M786.023 146.801V40.5642H806.977V66.4334L804.418 63.0992C805.741 59.5638 807.494 56.3157 809.679 53.4126C811.863 50.5095 814.508 48.0951 817.583 46.198C820.199 44.4159 823.101 43.0361 826.292 42.0301C829.482 41.0241 832.731 40.3917 836.094 40.1618C839.428 39.9318 842.675 40.0755 845.837 40.5929V62.7256C842.675 61.8058 839.054 61.5183 834.972 61.8345C830.862 62.1507 827.183 63.3004 823.906 65.2837C820.629 67.0658 817.956 69.3079 815.886 72.0672C813.817 74.8266 812.294 77.9597 811.317 81.4664C810.339 84.9731 809.851 88.7673 809.851 92.8202V146.829H786.051L786.023 146.801Z" fill="black"/>
<path d="M900.394 149.847C892.519 149.847 886.022 148.525 880.905 145.909C875.789 143.294 871.737 139.931 868.719 135.878C865.701 131.796 863.459 127.485 862.021 122.886C860.584 118.287 859.635 113.947 859.233 109.865C858.801 105.755 858.601 102.449 858.601 99.8909V40.5928H882.601V91.7277C882.601 95.0045 882.832 98.6837 883.291 102.794C883.751 106.904 884.814 110.813 886.482 114.608C888.149 118.373 890.65 121.477 893.955 123.892C897.261 126.306 901.744 127.542 907.378 127.542C910.396 127.542 913.385 127.054 916.317 126.076C919.278 125.099 921.951 123.403 924.337 121.017C926.722 118.632 928.648 115.326 930.085 111.13C931.523 106.933 932.241 101.616 932.241 95.2057L946.297 101.213C946.297 110.267 944.544 118.459 941.037 125.789C937.53 133.119 932.357 138.982 925.545 143.351C918.733 147.72 910.339 149.905 900.365 149.905L900.394 149.847ZM935.116 146.801V113.86H932.271V40.5928H956.07V146.829H935.116V146.801Z" fill="black"/>
<path d="M979.927 24.4685V2.73828H1003.64V24.4685H979.927ZM979.927 146.801V40.5648H1003.64V146.801H979.927Z" fill="black"/>
<path d="M1016.95 59.1613V40.5641H1091.02V59.1613H1016.95ZM1091.02 146.801C1084.01 148.123 1077.14 148.698 1070.41 148.525C1063.69 148.353 1057.68 147.117 1052.36 144.789C1047.04 142.46 1043.02 138.781 1040.26 133.722C1037.85 129.123 1036.55 124.438 1036.44 119.667C1036.29 114.866 1036.24 109.463 1036.24 103.427V11.0732H1059.83V102.047C1059.83 106.301 1059.89 110.038 1059.98 113.257C1060.06 116.476 1060.75 119.092 1061.99 121.133C1064.35 125.07 1068.11 127.255 1073.29 127.715C1078.46 128.175 1084.38 127.916 1090.99 126.939V146.801H1091.02Z" fill="black"/>
<path d="M1109.24 24.4685V2.73828H1132.96V24.4685H1109.24ZM1109.24 146.801V40.5648H1132.96V146.801H1109.24Z" fill="black"/>
<path d="M1156.61 146.8V40.5638H1177.77V73.5041H1180.61V146.772H1156.61V146.8ZM1230.28 146.8V95.6654C1230.28 92.3311 1230.05 88.6232 1229.59 84.5416C1229.13 80.4887 1228.07 76.5509 1226.4 72.7855C1224.74 69.02 1222.24 65.9157 1218.93 63.5012C1215.62 61.0868 1211.14 59.8508 1205.51 59.8508C1202.49 59.8508 1199.5 60.3394 1196.57 61.3167C1193.61 62.294 1190.93 63.9899 1188.55 66.3756C1186.16 68.7613 1184.24 72.0381 1182.8 76.206C1181.36 80.3738 1180.64 85.6914 1180.64 92.1874L1166.59 86.18C1166.59 77.1258 1168.34 68.9338 1171.85 61.6041C1175.36 54.2745 1180.53 48.4109 1187.34 44.0418C1194.15 39.6728 1202.55 37.4883 1212.52 37.4883C1220.4 37.4883 1226.89 38.8105 1232.01 41.4261C1237.12 44.0418 1241.18 47.4048 1244.2 51.4576C1247.21 55.5392 1249.43 59.8508 1250.89 64.4498C1252.36 69.0488 1253.28 73.3891 1253.71 77.4707C1254.14 81.5523 1254.34 84.8865 1254.34 87.4447V146.743H1230.34L1230.28 146.8Z" fill="black"/>
<path d="M1318.99 149.761C1309.21 149.761 1300.68 147.289 1293.41 142.374C1286.13 137.459 1280.5 130.762 1276.5 122.311C1272.51 113.86 1270.5 104.318 1270.5 93.6824C1270.5 83.0472 1272.51 73.3319 1276.53 64.91C1280.56 56.4881 1286.28 49.8196 1293.69 44.9332C1301.11 40.0468 1309.82 37.6035 1319.85 37.6035C1329.88 37.6035 1338.42 40.0468 1345.29 44.9332C1352.16 49.8196 1357.33 56.4881 1360.87 64.9387C1364.4 73.3894 1366.18 82.961 1366.18 93.6536C1366.18 104.346 1364.4 113.745 1360.87 122.225C1357.33 130.704 1352.04 137.43 1345.03 142.345C1338.02 147.26 1329.33 149.732 1318.96 149.732L1318.99 149.761ZM1321.03 196.958C1315.14 196.958 1309.47 196.038 1304.07 194.199C1298.67 192.359 1293.78 189.715 1289.47 186.294C1285.13 182.845 1281.59 178.706 1278.83 173.848L1300.68 163.041C1302.72 166.921 1305.59 169.767 1309.27 171.635C1312.98 173.503 1316.92 174.423 1321.11 174.423C1326.03 174.423 1330.43 173.561 1334.28 171.808C1338.16 170.054 1341.15 167.496 1343.27 164.133C1345.4 160.77 1346.41 156.545 1346.26 151.486V121.305H1349.23V40.5641H1369.98V151.917C1369.98 154.619 1369.86 157.177 1369.63 159.649C1369.4 162.121 1369.03 164.507 1368.51 166.864C1366.93 173.762 1363.91 179.396 1359.46 183.822C1355 188.249 1349.48 191.554 1342.87 193.71C1336.26 195.866 1328.99 196.958 1321 196.958H1321.03ZM1322.61 128.52C1328.96 128.52 1334.11 127.054 1338.02 124.151C1341.92 121.248 1344.77 117.166 1346.58 111.906C1348.39 106.646 1349.28 100.581 1349.28 93.7111C1349.28 86.8414 1348.39 80.6903 1346.58 75.4589C1344.77 70.2563 1341.98 66.1748 1338.16 63.2716C1334.36 60.3685 1329.45 58.9026 1323.41 58.9026C1317.06 58.9026 1311.8 60.4547 1307.69 63.559C1303.55 66.6633 1300.5 70.8599 1298.55 76.1487C1296.59 81.4376 1295.59 87.2726 1295.59 93.7111C1295.59 100.15 1296.57 106.1 1298.49 111.36C1300.42 116.649 1303.41 120.816 1307.4 123.892C1311.4 126.968 1316.49 128.52 1322.64 128.52H1322.61Z" fill="black"/>
<path d="M501.374 356.715C487.204 356.715 475.074 353.611 464.985 347.431C454.896 341.223 447.135 332.6 441.731 321.505C436.328 310.438 433.626 297.561 433.626 282.959C433.626 268.358 436.328 255.48 441.731 244.414C447.135 233.348 454.896 224.696 464.985 218.487C475.074 212.279 487.204 209.203 501.374 209.203C517.701 209.203 531.297 213.285 542.191 221.448C553.085 229.611 560.701 240.62 565.099 254.446L541.213 261.028C538.453 251.772 533.769 244.558 527.158 239.326C520.547 234.124 511.953 231.508 501.404 231.508C491.89 231.508 483.985 233.635 477.661 237.889C471.337 242.143 466.566 248.122 463.404 255.854C460.242 263.586 458.604 272.583 458.547 282.959C458.547 293.336 460.128 302.361 463.319 310.065C466.509 317.768 471.281 323.746 477.633 328.029C483.985 332.283 491.918 334.41 501.432 334.41C511.981 334.41 520.575 331.795 527.186 326.535C533.797 321.275 538.512 314.089 541.242 304.891L565.128 311.473C560.731 325.299 553.084 336.307 542.219 344.471C531.325 352.634 517.73 356.715 501.404 356.715H501.374Z" fill="black"/>
<path d="M629.225 356.715C618.59 356.715 609.336 354.33 601.403 349.53C593.469 344.729 587.317 338.147 582.948 329.725C578.579 321.303 576.395 311.617 576.395 300.665C576.395 289.714 578.637 279.74 583.093 271.347C587.548 262.954 593.756 256.4 601.689 251.686C609.622 246.972 618.792 244.615 629.225 244.615C639.659 244.615 649.232 247.001 657.165 251.801C665.098 256.601 671.248 263.184 675.646 271.605C680.044 280.027 682.229 289.714 682.229 300.665C682.229 311.617 680.015 321.389 675.589 329.84C671.162 338.262 664.983 344.844 657.05 349.616C649.117 354.358 639.832 356.744 629.225 356.744V356.715ZM629.225 334.497C638.682 334.497 645.696 331.363 650.267 325.04C654.866 318.745 657.165 310.611 657.165 300.637C657.165 290.663 654.836 282.126 650.18 276.003C645.523 269.881 638.538 266.805 629.225 266.805C622.873 266.805 617.642 268.242 613.532 271.088C609.421 273.934 606.403 277.9 604.42 282.988C602.465 288.076 601.46 293.968 601.46 300.637C601.46 310.927 603.816 319.147 608.501 325.27C613.187 331.392 620.086 334.468 629.197 334.468L629.225 334.497Z" fill="black"/>
<path d="M699.59 353.755V247.519H720.544V280.459H723.506V353.727H699.59V353.755ZM763.632 353.755V289.542C763.632 282.126 761.82 276.377 758.227 272.238C754.634 268.099 749.69 266.03 743.482 266.03C737.273 266.03 732.617 268.099 728.967 272.238C725.316 276.377 723.506 281.753 723.506 288.364L712.87 281.293C712.87 274.394 714.565 268.214 717.986 262.695C721.406 257.177 726.005 252.836 731.812 249.675C737.618 246.513 744.114 244.903 751.329 244.903C759.262 244.903 765.902 246.599 771.248 249.962C776.595 253.325 780.59 257.924 783.234 263.73C785.879 269.537 787.23 276.061 787.23 283.362V353.784H763.632V353.755ZM827.356 353.755V289.226C827.356 281.954 825.546 276.262 821.953 272.152C818.36 268.042 813.444 266.001 807.293 266.001C803.499 266.001 800.078 266.863 797.06 268.617C794.042 270.341 791.656 272.899 789.874 276.291C788.092 279.683 787.23 283.678 787.23 288.335L776.709 282.126C776.652 274.797 778.29 268.3 781.682 262.695C785.074 257.09 789.644 252.722 795.393 249.56C801.17 246.427 807.58 244.846 814.68 244.846C826.407 244.846 835.404 248.381 841.67 255.423C847.936 262.466 851.07 271.721 851.07 283.218V353.727H827.356V353.755Z" fill="black"/>
<path d="M872.77 353.755V247.519H893.724V280.459H896.686V353.727H872.77V353.755ZM936.782 353.755V289.542C936.782 282.126 934.972 276.377 931.379 272.238C927.786 268.099 922.842 266.03 916.634 266.03C910.425 266.03 905.768 268.099 902.117 272.238C898.467 276.377 896.656 281.753 896.656 288.364L886.022 281.293C886.022 274.394 887.717 268.214 891.138 262.695C894.558 257.177 899.157 252.836 904.963 249.675C910.77 246.513 917.266 244.903 924.48 244.903C932.414 244.903 939.053 246.599 944.399 249.962C949.745 253.325 953.742 257.924 956.386 263.73C959.031 269.537 960.381 276.061 960.381 283.362V353.784H936.782V353.755ZM1000.54 353.755V289.226C1000.54 281.954 998.726 276.262 995.133 272.152C991.54 268.042 986.624 266.001 980.473 266.001C976.679 266.001 973.258 266.863 970.24 268.617C967.222 270.341 964.836 272.899 963.054 276.291C961.272 279.683 960.41 283.678 960.41 288.335L949.889 282.126C949.832 274.797 951.47 268.3 954.862 262.695C958.254 257.09 962.824 252.722 968.573 249.56C974.35 246.427 980.76 244.846 987.86 244.846C999.587 244.846 1008.58 248.381 1014.85 255.423C1021.12 262.466 1024.25 271.721 1024.25 283.218V353.727H1000.54V353.755Z" fill="black"/>
<path d="M1086.05 356.801C1078.17 356.801 1071.68 355.479 1066.56 352.864C1061.44 350.248 1057.39 346.885 1054.37 342.832C1051.36 338.75 1049.11 334.439 1047.68 329.84C1046.24 325.241 1045.29 320.901 1044.89 316.819C1044.46 312.709 1044.26 309.403 1044.26 306.845V247.547H1068.26V298.682C1068.26 301.959 1068.49 305.638 1068.95 309.748C1069.41 313.858 1070.47 317.768 1072.14 321.562C1073.8 325.327 1076.3 328.431 1079.61 330.846C1082.92 333.26 1087.4 334.496 1093.03 334.496C1096.05 334.496 1099.04 334.008 1101.97 333.03C1104.93 332.053 1107.61 330.357 1109.99 327.972C1112.38 325.586 1114.3 322.28 1115.74 318.084C1117.18 313.887 1117.9 308.57 1117.9 302.16L1131.95 308.167C1131.95 317.221 1130.2 325.413 1126.69 332.743C1123.19 340.073 1118.01 345.936 1111.2 350.305C1104.39 354.674 1095.99 356.859 1086.02 356.859L1086.05 356.801ZM1120.77 353.755V320.814H1117.93V247.547H1141.73V353.783H1120.77V353.755Z" fill="black"/>
<path d="M1164.52 353.754V247.518H1185.67V280.458H1188.52V353.726H1164.52V353.754ZM1238.19 353.754V302.619C1238.19 299.285 1237.96 295.577 1237.5 291.496C1237.04 287.443 1235.98 283.505 1234.31 279.74C1232.64 275.974 1230.14 272.87 1226.83 270.455C1223.53 268.041 1219.05 266.805 1213.41 266.805C1210.39 266.805 1207.4 267.294 1204.47 268.271C1201.51 269.248 1198.84 270.944 1196.45 273.33C1194.07 275.715 1192.14 278.992 1190.7 283.16C1189.27 287.328 1188.55 292.645 1188.55 299.142L1174.49 293.134C1174.49 284.08 1176.25 275.888 1179.75 268.558C1183.26 261.229 1188.43 255.365 1195.24 250.996C1202.06 246.627 1210.45 244.442 1220.42 244.442C1228.3 244.442 1234.8 245.765 1239.91 248.38C1245.03 250.996 1249.08 254.359 1252.1 258.412C1255.12 262.465 1257.33 266.805 1258.8 271.404C1260.26 276.003 1261.18 280.343 1261.61 284.425C1262.05 288.506 1262.25 291.841 1262.25 294.399V353.697H1238.25L1238.19 353.754Z" fill="black"/>
<path d="M1284.78 231.422V209.691H1308.5V231.422H1284.78ZM1284.78 353.754V247.518H1308.5V353.754H1284.78Z" fill="black"/>
<path d="M1379.52 356.715C1368.57 356.715 1359.23 354.272 1351.5 349.386C1343.76 344.499 1337.84 337.831 1333.73 329.38C1329.62 320.93 1327.55 311.358 1327.5 300.665C1327.55 289.771 1329.71 280.114 1333.93 271.692C1338.16 263.27 1344.17 256.63 1351.98 251.83C1359.8 247.03 1369.06 244.615 1379.81 244.615C1391.88 244.615 1402.08 247.662 1410.45 253.727C1418.81 259.792 1424.28 268.07 1426.83 278.561L1403.24 284.943C1401.4 279.251 1398.35 274.796 1394.09 271.605C1389.84 268.415 1384.98 266.834 1379.55 266.834C1373.4 266.834 1368.31 268.3 1364.32 271.203C1360.32 274.135 1357.36 278.13 1355.46 283.247C1353.57 288.363 1352.62 294.169 1352.62 300.665C1352.62 310.754 1354.89 318.917 1359.4 325.155C1363.91 331.392 1370.64 334.497 1379.55 334.497C1385.84 334.497 1390.82 333.059 1394.44 330.156C1398.09 327.282 1400.82 323.114 1402.66 317.653L1426.86 323.057C1423.58 333.864 1417.84 342.2 1409.64 347.977C1401.45 353.784 1391.42 356.687 1379.55 356.687L1379.52 356.715Z" fill="black"/>
<path d="M1473.43 356.715C1465.75 356.715 1459.26 355.249 1453.94 352.346C1448.62 349.443 1444.6 345.534 1441.89 340.705C1439.19 335.876 1437.81 330.501 1437.81 324.666C1437.81 319.55 1438.68 314.951 1440.37 310.84C1442.07 306.759 1444.71 303.195 1448.25 300.205C1451.78 297.216 1456.38 294.773 1462.01 292.876C1466.27 291.496 1471.27 290.26 1477.02 289.139C1482.77 288.018 1488.98 286.983 1495.7 286.035C1502.43 285.086 1509.47 284.051 1516.8 282.93L1508.35 287.759C1508.41 280.43 1506.77 274.997 1503.43 271.519C1500.1 268.041 1494.44 266.317 1486.5 266.317C1481.7 266.317 1477.1 267.438 1472.62 269.651C1468.17 271.893 1465.06 275.716 1463.28 281.148L1441.64 274.365C1444.25 265.397 1449.25 258.182 1456.64 252.721C1464.03 247.288 1473.97 244.558 1486.5 244.558C1495.96 244.558 1504.27 246.11 1511.42 249.185C1518.58 252.261 1523.93 257.32 1527.41 264.333C1529.3 268.07 1530.45 271.893 1530.86 275.802C1531.26 279.711 1531.46 283.936 1531.46 288.535V353.755H1510.71V330.731L1514.16 334.468C1509.36 342.142 1503.78 347.776 1497.4 351.34C1491.02 354.905 1483.03 356.687 1473.45 356.687L1473.43 356.715ZM1478.17 337.831C1483.54 337.831 1488.14 336.882 1491.94 334.985C1495.73 333.088 1498.78 330.76 1501.05 328C1503.32 325.241 1504.84 322.654 1505.62 320.24C1506.85 317.222 1507.57 313.772 1507.75 309.863C1507.92 305.954 1507.98 302.792 1507.98 300.378L1515.25 302.534C1508.09 303.655 1501.97 304.632 1496.85 305.494C1491.74 306.356 1487.34 307.161 1483.69 307.909C1480.01 308.656 1476.76 309.489 1473.94 310.409C1471.18 311.387 1468.86 312.536 1466.96 313.859C1465.06 315.181 1463.6 316.675 1462.59 318.371C1461.58 320.067 1461.07 322.079 1461.07 324.379C1461.07 326.994 1461.73 329.323 1463.02 331.306C1464.34 333.318 1466.24 334.899 1468.77 336.077C1471.3 337.256 1474.43 337.86 1478.17 337.86V337.831Z" fill="black"/>
<path d="M1539.45 266.115V247.518H1613.52V266.115H1539.45ZM1613.52 353.755C1606.51 355.077 1599.64 355.652 1592.91 355.479C1586.19 355.307 1580.18 354.071 1574.86 351.743C1569.55 349.414 1565.52 345.735 1562.76 340.676C1560.35 336.077 1559.05 331.392 1558.94 326.621C1558.8 321.821 1558.74 316.417 1558.74 310.381V218.027H1582.34V309.001C1582.34 313.255 1582.39 316.992 1582.48 320.211C1582.57 323.43 1583.26 326.046 1584.49 328.087C1586.85 332.025 1590.61 334.209 1595.79 334.669C1600.96 335.129 1606.88 334.87 1613.49 333.893V353.755H1613.52Z" fill="black"/>
<path d="M1631.75 231.422V209.691H1655.46V231.422H1631.75ZM1631.75 353.754V247.518H1655.46V353.754H1631.75Z" fill="black"/>
<path d="M1727.26 356.715C1716.63 356.715 1707.37 354.33 1699.44 349.53C1691.5 344.729 1685.35 338.147 1680.98 329.725C1676.62 321.303 1674.43 311.617 1674.43 300.665C1674.43 289.714 1676.67 279.74 1681.13 271.347C1685.58 262.954 1691.79 256.4 1699.73 251.686C1707.66 246.972 1716.83 244.615 1727.26 244.615C1737.7 244.615 1747.27 247.001 1755.2 251.801C1763.13 256.601 1769.28 263.184 1773.68 271.605C1778.08 280.027 1780.26 289.714 1780.26 300.665C1780.26 311.617 1778.05 321.389 1773.62 329.84C1769.2 338.262 1763.02 344.844 1755.08 349.616C1747.15 354.358 1737.87 356.744 1727.26 356.744V356.715ZM1727.26 334.497C1736.72 334.497 1743.73 331.363 1748.3 325.04C1752.9 318.745 1755.2 310.611 1755.2 300.637C1755.2 290.663 1752.87 282.126 1748.22 276.003C1743.56 269.881 1736.57 266.805 1727.26 266.805C1720.91 266.805 1715.68 268.242 1711.57 271.088C1707.46 273.934 1704.44 277.9 1702.45 282.988C1700.5 288.076 1699.49 293.968 1699.49 300.637C1699.49 310.927 1701.85 319.147 1706.54 325.27C1711.22 331.392 1718.12 334.468 1727.23 334.468L1727.26 334.497Z" fill="black"/>
<path d="M1797.65 353.754V247.518H1818.81V280.458H1821.66V353.726H1797.65V353.754ZM1871.32 353.754V302.619C1871.32 299.285 1871.09 295.577 1870.63 291.496C1870.17 287.443 1869.11 283.505 1867.44 279.74C1865.78 275.974 1863.28 272.87 1859.97 270.455C1856.67 268.041 1852.18 266.805 1846.55 266.805C1843.53 266.805 1840.54 267.294 1837.61 268.271C1834.65 269.248 1831.97 270.944 1829.59 273.33C1827.2 275.715 1825.28 278.992 1823.84 283.16C1822.4 287.328 1821.68 292.645 1821.68 299.142L1807.63 293.134C1807.63 284.08 1809.38 275.888 1812.89 268.558C1816.4 261.229 1821.57 255.365 1828.38 250.996C1835.19 246.627 1843.59 244.442 1853.56 244.442C1861.44 244.442 1867.93 245.765 1873.05 248.38C1878.17 250.996 1882.22 254.359 1885.24 258.412C1888.25 262.465 1890.47 266.805 1891.93 271.404C1893.4 276.003 1894.32 280.343 1894.75 284.425C1895.18 288.506 1895.38 291.841 1895.38 294.399V353.697H1871.38L1871.32 353.754Z" fill="black"/>
<path d="M323.366 253.756V108.543C323.366 95.6947 316.525 83.8523 305.401 77.4137L179.648 4.80737C168.524 -1.60246 154.842 -1.60246 143.718 4.80737L17.9648 77.4137C6.84099 83.8236 0 95.6947 0 108.543V253.756C0 266.604 6.84099 278.447 17.9648 284.885L143.718 357.492C154.842 363.902 168.524 363.902 179.648 357.492L305.401 284.885C316.525 278.475 323.366 266.604 323.366 253.756Z" fill="#A0D346"/>
<path d="M251.765 152.405C240.699 120.213 218.624 97.8213 199.624 97.8213C197.152 97.8213 194.681 98.2525 192.295 99.0286C186.173 101.156 181.286 105.87 177.866 112.394L55.5606 196.872C55.0432 197.016 54.5257 197.159 54.0083 197.332C48.4895 199.229 44.0634 203.167 41.4765 208.369C36.2164 219.177 40.7011 232.284 51.5087 237.573C54.5842 239.067 57.8318 239.786 61.0511 239.786C64.0404 239.786 66.9722 239.154 69.6741 238.004L103.333 236.078L107.214 251.743C107.731 253.87 109.628 255.336 111.813 255.336H112.071L156.135 252.922C157.515 252.836 158.808 252.146 159.671 251.025C160.504 249.904 160.791 248.467 160.475 247.116L157.227 233.003L218.422 229.525C222.418 231.249 226.414 232.198 230.265 232.198C232.795 232.198 235.267 231.824 237.624 231.019C257.917 224.035 264.24 188.795 251.765 152.405ZM115.463 245.65L112.962 235.532L147.627 233.549L149.984 243.753L115.463 245.65ZM199.136 214.75L99.222 220.47L82.6944 221.419H82.6382L74.3309 221.908L64.8447 222.454C64.2698 223 63.5232 223.402 62.7184 223.69C62.5747 223.747 62.4312 223.776 62.2875 223.776C60.8503 224.178 59.4125 224.063 58.0616 223.402C56.5957 222.684 55.4744 221.448 54.9571 219.896H54.929C54.4116 218.343 54.5262 216.647 55.2448 215.182C55.9059 213.831 56.9696 212.853 58.3493 212.307C58.4355 212.221 58.5797 212.163 58.7521 212.106C59.5282 211.847 60.3894 211.704 61.1942 211.79L69.0131 206.357L75.8832 201.615L173.612 134.096C172.462 146.772 174.272 161.805 179.503 177.039C179.503 177.039 179.514 177.058 179.533 177.096C184.793 192.33 192.553 205.294 201.291 214.607L199.106 214.722H199.136V214.75ZM242.165 194.17C242.022 195.895 241.849 197.533 241.59 199.085C241.331 200.637 241.016 202.103 240.671 203.483C240.326 204.863 239.922 206.156 239.462 207.335C239.261 207.909 239.003 208.484 238.773 209.03C238.285 210.094 237.766 211.071 237.191 211.905C236.933 212.336 236.646 212.738 236.33 213.112C236.042 213.486 235.727 213.802 235.41 214.118C234.491 215.067 233.513 215.699 232.507 216.044C232.219 216.159 231.932 216.216 231.615 216.245C231.5 216.274 231.415 216.303 231.3 216.303C231.242 216.36 231.184 216.36 231.127 216.331C230.868 216.389 230.581 216.418 230.265 216.418C225.293 216.418 218.479 212.307 212.041 205.437C211.696 205.064 211.351 204.69 211.006 204.288C210.719 203.972 210.431 203.655 210.173 203.31C209.742 202.793 209.311 202.276 208.88 201.758C208.449 201.241 208.018 200.723 207.616 200.177C205.718 197.734 203.936 195.09 202.24 192.273C201.953 191.784 201.636 191.267 201.349 190.749C201.061 190.261 200.803 189.772 200.515 189.284C200.257 188.795 199.998 188.306 199.739 187.818C199.48 187.358 199.25 186.927 199.02 186.467C198.273 185.058 197.583 183.621 196.95 182.155C196.893 182.069 196.865 182.011 196.837 181.925C196.147 180.402 195.514 178.878 194.882 177.326C194.249 175.745 193.645 174.136 193.099 172.526C192.323 170.255 191.605 167.956 191.03 165.656C189.996 161.977 189.219 158.298 188.644 154.676C188.271 152.319 187.983 149.962 187.811 147.692C187.753 146.887 187.696 146.082 187.638 145.306C187.638 144.875 187.609 144.472 187.609 144.041C187.58 143.552 187.553 143.064 187.553 142.604V141.368C187.553 140.132 187.581 138.896 187.638 137.689C187.638 136.769 187.725 135.849 187.811 134.958C187.926 133.693 188.07 132.457 188.271 131.279C188.444 130.1 188.673 128.951 188.932 127.83C189.191 126.737 189.478 125.674 189.794 124.697C189.909 124.294 190.053 123.892 190.197 123.518C190.915 121.506 191.748 119.753 192.668 118.287C193.099 117.597 193.559 116.965 194.048 116.418C194.278 116.131 194.536 115.872 194.795 115.642C195.025 115.412 195.284 115.182 195.543 115.01C195.773 114.809 196.002 114.665 196.232 114.55C196.605 114.291 196.98 114.119 197.383 113.975C198.101 113.774 198.819 113.63 199.624 113.63C208.908 113.63 226.988 128.864 236.818 157.522C241.59 171.434 242.941 184.138 242.165 194.17Z" fill="white"/>
<path d="M236.818 157.522C226.987 128.865 208.908 113.631 199.623 113.631C198.819 113.631 198.101 113.775 197.382 113.976C196.98 114.119 196.605 114.292 196.231 114.551C196.001 114.666 195.772 114.809 195.542 115.011C195.283 115.183 195.024 115.413 194.794 115.643C194.535 115.873 194.277 116.132 194.047 116.419C193.559 116.965 193.099 117.597 192.668 118.287C191.748 119.753 190.915 121.507 190.196 123.519C190.052 123.892 189.908 124.295 189.793 124.697C189.477 125.674 189.19 126.738 188.932 127.83C188.673 128.951 188.443 130.101 188.271 131.279C188.069 132.458 187.925 133.694 187.81 134.959C187.724 135.85 187.666 136.769 187.638 137.689C187.58 138.896 187.552 140.132 187.552 141.368V142.604C187.552 143.064 187.579 143.553 187.608 144.042C187.608 144.473 187.638 144.875 187.638 145.306C187.695 146.082 187.753 146.887 187.81 147.692C187.983 149.963 188.27 152.32 188.644 154.677C189.219 158.298 189.995 161.978 191.03 165.657C191.605 167.956 192.323 170.256 193.099 172.527C193.645 174.136 194.249 175.746 194.881 177.327C195.513 178.879 196.146 180.402 196.836 181.926C196.865 182.012 196.892 182.069 196.95 182.156C197.582 183.622 198.273 185.059 199.02 186.467C199.25 186.927 199.48 187.358 199.739 187.818C199.997 188.307 200.256 188.795 200.515 189.284C200.802 189.773 201.061 190.261 201.348 190.75C201.636 191.267 201.952 191.785 202.24 192.273C203.935 195.09 205.718 197.735 207.615 200.178C208.017 200.724 208.448 201.241 208.88 201.759C209.311 202.276 209.741 202.794 210.172 203.311C210.431 203.656 210.718 203.972 211.006 204.288C211.351 204.691 211.695 205.064 212.04 205.438C218.479 212.308 225.292 216.418 230.265 216.418C230.581 216.418 230.868 216.389 231.126 216.332C231.184 216.361 231.242 216.361 231.299 216.303C231.414 216.303 231.5 216.303 231.615 216.246C231.931 216.217 232.219 216.159 232.506 216.044C233.512 215.7 234.49 215.067 235.41 214.119C235.726 213.802 236.042 213.486 236.329 213.113C236.645 212.739 236.932 212.336 237.191 211.905C237.766 211.072 238.284 210.094 238.773 209.031C239.003 208.485 239.261 207.91 239.462 207.335C239.922 206.157 240.325 204.863 240.67 203.512C241.015 202.104 241.331 200.638 241.589 199.086C241.848 197.534 242.021 195.895 242.165 194.17C242.941 184.139 241.589 171.434 236.818 157.522ZM219.456 177.126C217.214 181.696 213.392 185.001 208.965 186.668C205.976 181.552 203.36 175.803 201.261 169.738C198.962 163.099 197.44 156.401 196.721 150.02C201.148 148.756 206.063 149.043 210.547 151.256C220.147 155.941 224.142 167.525 219.456 177.126Z" fill="#83B60B"/>
<path d="M179.502 177.01L178.123 177.47L81.659 210.669L54.9561 219.867H54.928C54.4106 218.315 54.5252 216.619 55.2438 215.153C55.9049 213.802 56.9687 212.825 58.3484 212.279C58.4346 212.193 58.5787 212.135 58.7512 212.078C59.5272 211.819 60.3884 211.675 61.1932 211.762L69.0121 206.329L75.8822 201.586L173.611 134.067C172.461 146.743 174.271 161.776 179.502 177.01Z" fill="white"/>
<path d="M219.457 177.125C217.215 181.695 213.392 185.001 208.966 186.668C205.976 181.552 203.36 175.803 201.262 169.738C198.963 163.098 197.44 156.401 196.722 150.02C201.148 148.755 206.064 149.043 210.548 151.256C220.148 155.941 224.142 167.525 219.457 177.125Z" fill="white"/>
</svg>
